<?xml version="1.0" encoding="utf-8"?>
<!-- Generator: Adobe Illustrator 27.9.0, SVG Export Plug-In . SVG Version: 6.00 Build 0)  -->
<svg version="1.1" id="Layer_1" xmlns="http://www.w3.org/2000/svg" xmlns:xlink="http://www.w3.org/1999/xlink" x="0px" y="0px"
	 viewBox="0 0 608.3 366" style="enable-background:new 0 0 608.3 366;" xml:space="preserve">
<style type="text/css">
	.st0{opacity:0.2;}
	.st1{fill:#FFFFFF;}
</style>
<g class="st0">
	<polygon class="st1" points="542.8,284.4 542.8,284.4 542.8,284.4 	"/>
	<path class="st1" d="M573.4,228.1L573.4,228.1c-12.3-1.9-24.8-2-37.1-3.7c-1.5-0.2-3-0.3-4.3-1.2c-4.6-2.9-9.7-4.3-14.8-5.8
		c-4.6-1.3-8.8-2.7-11.5-7c-0.6-1-1.6-1.8-2.6-2.5c-1.4-1-1.8-2.3-1.5-3.9c0.7-4,1-8,0.9-12c-0.1-2.1,0.7-3.7,2.4-4.9
		c2.2-1.7,2.9-3.9,2.6-6.6c-0.5-4.2,0.2-8.2,1.8-12.1c2.5-6.1,4.2-12.4,5-18.9c0.9-6.8,0.9-13.5-4.4-19c-1.3-1.4-1.4-3-0.8-4.8
		c0.8-2.5,1.4-5.1,1.6-7.7c0.4-5.2,1.2-10.5-3.1-14.8c-1-1-1.2-2.5-1.6-3.9c-1.6-6.8-4.1-13.3-7.9-19.1c-3.8-6-7.5-12.2-14.2-15.6
		c-0.7-0.4-1.4-0.9-2-1.3c-23.1-15.2-47.6-19.3-73.8-8.9c-11.9,4.7-22.4,12.5-34.8,16.2c-2.1,0.6-2.5,2.5-1.7,4.1
		c2.2,4.6,0.6,8.3-2.3,11.9c-4.8,5.7-9.5,11.4-14.2,17.2c-1.4,3.2,0.6,5.4,2.2,7.7c2,2.9,3.8,5.8,4.4,9.4c0.9,5.5-0.3,10.6-1.8,15.7
		c-1.4,4.6-0.3,8,3.1,11c0.8,0.7,1.5,1.3,2.3,1.9c1.1,0.8,1.5,1.8,1.1,3.2c-1.2,3.9-0.4,7.7,0.9,11.5c2.6,7.2,6.7,13.5,11.7,19.2
		c2,2.3,3.2,4.7,3.1,7.6c-0.2,5.3,2.3,8.8,6.8,11.1c2.3,1.2,3.7,2.9,4.6,5.3c1.8,5.1,4.4,9.7,7.8,13.9c1.5,1.9,1.7,3.7,0.9,5.9
		c-1.2,3.2-2.3,6.5-2.8,9.8c-0.6,4.6-3,7.5-7.1,9.3c-2.2,1-4.5,2-5.9,4c-1.9,2.5-4.4,3.9-7.3,5.1c-10.6,4.4-20.9,9.4-30.9,15
		c-1.1,0.6-2.4,1.1-2.8,2.5c0.6,0.8,1.2,1.6,1.6,2.5c1.2,2.3,2.7,2.5,5,1.2c3.6-2.1,7.5-3.8,11.2-5.7c2.5-1.3,5.1-1.6,7.8-0.5
		c1,0.2,2,0.4,2.9,0.5c2.8,0.4,3.5,2.2,2.9,4.5c-2.1,7.8-4.4,15.6-6.6,23.4c3.5,3.2,7.3,5.8,11.3,8.2c2.4-14.9,5.5-29.7,9.2-44.4
		c0.6-2.2,1.2-4.5,4.4-5.4c-2.7,18.5-4.6,36.9-3.8,55.4c2,1.2,4.1,2.4,6.4,3.1c10.3-4.4,21-8,31.7-11.1c20.2-5.8,40.8-9.6,61.5-12.9
		c0.8-0.1,1.6-0.1,2.4-0.1c2.4-0.7,4.8-1.1,7.3-1c3.1-0.9,6.3-1.1,9.6-1.3c2.6-0.4,5.2-0.7,7.7-1.1c3-0.4,6.1-0.7,9.1-1.1
		c2.6-0.4,5.1-0.7,7.7-1.1c2.5-0.8,5.3-0.2,8.2-1.6c-2-1.6-4.2-1.2-6.1-1.2c-2.2,0-3.3-0.8-3.7-3c-2.7-17-7.2-33.5-12.3-49.9
		c-0.3-1.1-1.4-2.3-0.4-3.3c1.2-1.2,2.6-0.2,3.9,0.2c2,0.7,3,2.2,3.7,4.1c6.7,17.3,13.4,34.6,20.1,51.9c0.4,1.1,0.9,2.2,1.4,3.3
		c1.9-1.4,3.1-3.4,4.8-4.9c1.6-1.5,1.5-2.8,0.6-4.7c-6.5-13.8-12.9-27.6-19.2-41.4c-0.5-1.1-1.6-2.3-0.7-3.5
		c0.9-1.2,2.4-0.5,3.7-0.4c4.7,0.3,9.4,0.8,14.1,1.1c7.9,0.6,15.9,0.4,23.6,2.3c3.2,0.8,4.6,0,4.9-3.2c0-0.4,0.1-0.8,0.1-1.2
		C579.1,228.3,576.1,228.5,573.4,228.1z M377.1,144.7L377.1,144.7c-2.3-5.9-2.3-12.1-2.6-18.4c-0.1-2.1,0-4.2,0-6.3
		c0-3.7-1.8-6.6-4-9.5c-2.2-2.9-1.9-3.4,1.6-4.2c3.8-0.8,7.1-2.7,10.1-5.1c4.8-3.9,9.2-8.4,14.9-11.1c2.5-1.1,5-2.1,7.8-1.9
		c0,0.5,0,0.6,0,0.7c-7.6,4.7-12.5,11.4-15.3,19.8c-0.2,0.5-0.4,0.9-0.8,1.3c-7.9,7.2-6.8,16.8-7.1,26c-0.1,2.1,0,4.2,0.5,6.3
		c0.6,2.8-1.2,3.6-3.1,4.3C377.6,147.2,377.5,145.7,377.1,144.7z M386.5,163.6L386.5,163.6c-0.9,0.6-1.5-0.2-1.9-0.9
		c-1.7-2.3-3.1-4.9-4.2-7.6c-0.9-2.4,0.9-2.9,2.4-3.5c1.3-0.2,1.5,0.7,1.5,1.4c0.3,3,1.2,5.9,2.3,8.7
		C386.9,162.4,387.2,163.2,386.5,163.6z M388.6,148.6L388.6,148.6c-1.9,0.6-2.2-0.7-2.1-1.5c0.3-2.4,2.5-1.2,3.8-1.7
		c1.2-0.5,1.6,0.6,1.5,1.6C391.8,149.7,389.3,147.8,388.6,148.6z M393,138.2L393,138.2c-0.8-1.8-1.6-4.4,0.1-5.7
		c3.9-2.9,3.1-6.9,3.3-10.6c0.5-8.5,2.7-16.4,7.3-23.5c2.3-3.6,5.4-6.1,9.7-7c6.3-1.6,12.5-1.8,18.7,0.4c2.2,0.8,6.5-1.8,7-4.2
		c0.3-1.5-1-2-2-2.6c-10.1-6.5-21.1-8.3-32.9-6c-4.2,0.8-8.4,2.1-12.4,3.6c-0.9,0.3-2.2,1.1-2.8,0.3c-0.8-1.1,0.6-1.9,1.4-2.6
		c4.1-4.2,8.7-7.8,14-10.3c1-0.5,2.8-0.7,2.2-2.3c-0.5-1.4-2.1-0.8-3.2-0.7c-0.9,0.1-1.7,0.5-2.8,0c0.9-2.5,3.2-3.3,5.2-4.3
		c19.7-9.5,39.8-10.6,59.9-1.8c19.4,8.5,30.3,23.7,34.1,44.3c0.7,4,1.4,8.1,1.2,12.3c0,1.1,0.2,2.6-1,2.8c-1.2,0.3-1.3-1.3-1.7-2.1
		c-3.1-6.2-6.6-12.2-10.4-17.9c-0.5-0.8-0.8-1.9-2.2-2.1c-0.5,2.5,0.8,4.8,0.9,7.2c0.2,5.5,2,10.3,5.9,14.4c2.2,2.3,2.5,5.4,3.1,8.4
		c0.4,1.9-1,1.8-2.3,1.7c-10.7-1-21.2,0.9-31.7,2.5c-4.9,0.8-9.5,2.5-13,6.4c-0.6,0.7-1.4,1.3-2.3,1.2c-3.2-0.4-6.2,0.3-9.1,1.5
		c-0.8,0.4-1.8,0.2-2.6-0.4c-7.8-5.7-16.7-4.8-25.5-4.1c-1.5,0.1-3,0.2-4.5,0.3c-2.5,0.5-4.9,1-7.4,1.4
		C395.7,138.8,393.9,140,393,138.2z M490.4,134.3c0,2.4-1.9,1.4-2.7,1.7c-1.6,0.3-2.8,0.3-2.6-1.3c0.3-2.3,2.3-1.1,3.5-1.5
		C489.6,132.7,490.5,132.9,490.4,134.3z M479.1,139.3L479.1,139.3c-1.9-1-3.6-2.1-6-3.6c3-0.8,5.3-1.2,7.6-0.1
		c1.4,0.7,2.6,1.9,1.9,3.5C481.7,141.3,480.2,139.9,479.1,139.3z M480,144.2c-4.2,1.1-6.5-1.2-9.2-2.3c-3.1-1.4-5.8,0.5-8.8,0.9
		c1.9-4.3,6-5.6,9.9-3.3C474.4,140.8,476.6,142.7,480,144.2z M436.7,193.3L436.7,193.3c-2.1,0.6-4.2,1.3-6.3,1.9
		c-1.2,0.3-2.4,0.3-3.6,0c-0.8-0.3-1.6-0.7-1.7-1.5c-0.1-0.8,0.9-1,1.5-1.3c2.5-1.3,4.3-3.3,5.7-5.7c1.3-2.2,3.3-2.8,6.3-2.7
		c2.2,0.6,4.9,1.7,7.8,1.8c3.5,0.1,6.4-0.4,8.8-3.8c1.9-2.7,5.7-3.8,8.3-6.2c0.8-0.7,2,0.1,2.7,0.7c1.5,1.3,3,2.7,4.2,4.3
		c1.9,2.2,3.9,4.1,6.8,4.6c0.7,0.1,1.5,0.2,1.6,1.1c0.1,0.8-0.5,1.3-1.1,1.7c-1.3,0.9-2.8,1-4.3,1
		C461.1,189.5,448.7,190,436.7,193.3z M464.6,196.3c-2.5,2.2-5,2.7-7.4,3.3c-3.2,0.9-6.5,1.4-9.7,2c-2.2,0.4-4.1-0.3-6.2-2
		C449,197.2,456.4,196.7,464.6,196.3L464.6,196.3z M432.2,226.1c-5.1-0.3-9.1-2.9-12.7-6.3c-4.9-4.7-8.2-10.6-10.5-17
		c-0.3-0.9-0.3-2-0.5-2.8c0.2-3,0.7-5.6,3.5-7.1c2.7-1.4,3.8-0.9,4.4,2c1.2,6,3,11.9,5.8,17.3c0.7,1.4,1.6,2.8,2.7,4
		c1.3,1.5,2.3,1.4,2.9-0.7c0.3-1.2,0.3-3.2,1.6-3.3c1.5,0,1.4,2.1,2,3.3c1.1,2.4,2.1,4.8,3.2,7.1C435.6,225.2,435,226.3,432.2,226.1
		L432.2,226.1z M434.7,176.1L434.7,176.1c0.3,0.6,0.8,1.3,0.1,1.9c-0.6,0.5-1.3,0.3-2,0.1c-2.4-1-3.5-5.4-2-7.5
		c0.6-0.8,1.4-1.2,2.3-0.9c1.5,0.4,0.5,1.6,0.6,2.2C433.7,173.5,434,174.9,434.7,176.1z M420.6,146.7c-0.2,1.3-1.7,0.6-2.6,0.6
		c-3.3,0.1-5.9,1.7-8.6,3.3c-1.8,1-4.2,3.2-5.4,1.6c-1.1-1.4,2.3-2.2,3.5-3.3c1.6-1.5,3.5-2.6,5.4-3.8c1-0.6,2.2-0.9,3.1-1.2
		c0.9,0.2,1.6,0.3,2.3,0.6C419.4,144.7,420.9,145.3,420.6,146.7L420.6,146.7z M395.9,151.5L395.9,151.5c-0.8-0.5-0.7-1.4-0.5-2.2
		c0.5-2.5,6.4-5.7,8.9-4.9c0.4,0.1,0.7,0.4,0.7,0.9c-0.1,0.2-0.3,0.4-0.5,0.6c-2.2,1.8-4.3,3.6-6.5,5.3
		C397.3,151.8,396.5,151.9,395.9,151.5z M400.2,172c2.3,0.1,4.1,2.2,6.2,1.2c1.1-0.5,1-1.8,1.1-2.9c-3.2-2-6.8-3.4-8.8-7
		c-0.6-1.1-1.9-2.1-0.5-3.4c1.2-1.2,2.5-1.9,4.2-0.5c2.2,1.8,4,1.5,5.6-1.2c1.8-3.1,4.9-4.4,8.4-4.3c4,0.2,8,0.5,11.9-1.8
		c-1.5,2.5-2,4.7,0.9,6.2c1.5,0.3,2.1-1.2,3.5-1.8c0,4.4-1.9,7.7-4.6,10.6c-1,1.1-2.1,2.1-3.1,3.1c-0.3,0.7-0.9,1.4-0.9,2.1
		c-0.1,4.2-3.3,5.8-6.4,7.6c-5.8,5.6-7.3,5.5-12.8-0.3C402.8,177.6,401,175.3,400.2,172z M454.8,268.7L454.8,268.7
		c-0.7,2.5-1.3,5-2.2,7.5c-1.6,4.2-3.5,8.3-5.2,12.4c-1.3,3-3.3,4.7-6.7,4.3c-7.6,1.4-15.1,2.8-22.7,4.2c-3.1,0.6-6.1,1.1-9.2,1.7
		c-2.8,0.6-4.3-0.4-5-3.3c-2.4-10.9-2.8-21.8-2.2-32.9c0.3-2.7-0.6-6.4,3.1-7c3-0.5,3,3.2,4,5.1c5,9.4,10.6,18.2,18.5,25.3
		c1.5,1.3,2.8,3,5,3c0.6-1.9-0.8-3-1.8-4.1c-9-9.6-14.7-21-18.2-33.7c-0.9-3.2-1.3-6.5-1-9.8c0-0.3-0.1-0.6-0.1-0.9
		c0.1-1.7,0.1-3.9,1.5-4.7c1.4-0.8,2.4,1.3,3.5,2.2c6.2,4.9,12.9,8.7,20.2,11.8c0.8,0.4,2.3,0.4,2,1.7c-0.2,1-1.6,0.5-2.4,0.7
		c-2.2,0.6-4.4,1.2-6.7,1.8c-0.4,0.4-0.8,0.8-1.3,1.2c-0.3,4,0.7,7.9,1,11.9c0.2,2.7,2.2,3.4,4.5,3.4c2.6,0,5.1-0.7,7.7-1.2
		c0.8-0.2,1.9-0.8,2.5,0c0.5,0.8-0.5,1.6-0.9,2.4c-0.2,0.3-0.5,0.6-0.7,0.9c-1.4,3.4-3.5,6.6-3.1,10.6c3.4-4.2,5.7-9.1,10-12.5
		c1-1.5,2.4-2.6,4-3.6c0.5-0.3,1-0.9,1.6-0.4C455,267.4,454.9,268.1,454.8,268.7z M461.1,290.2L461.1,290.2
		c-1.2,0.2-2.8,0.7-3.4,0.1c-0.9-0.8,0.7-1.8,1-2.8c0.6-1.8,1.3-3.5,2.3-6.2c0.6,2.7,0.9,4.7,1.4,6.6
		C462.8,289.2,462.3,290,461.1,290.2z M463.1,252c0,1.1-0.4,1.4-1.5,1.2c-6.5-0.9-18.2-14-18.2-20.4c0-1.3,0.1-2.6,0.4-3.9
		c1.1-4.8,1.1-9.5-0.8-14.5c2.8,0.5,3.3,3.2,5.2,4.1c1.9-4.1,0.4-7.4-3.8-8.5c-0.7-0.2-1.8-0.3-2-1.2c-0.2-1,0.8-1.3,1.4-1.7
		c2.1-1.3,4.3-2.1,6.8-2.1c6.4,0,12.5-1.1,18.3-4.1c4.2-2.2,6.8-0.6,7.5,4.1c0.2,1.5,0.6,2.9,1,4.4c0.2,0.7,0.4,1.4,1.3,1.4
		c0.8,0,1.2-0.6,1.6-1.2c0.2-0.3,0.4-0.5,0.4-0.8c-0.5-8.2,6.6-14.9,4.7-23.4c-0.5-3.9-2.6-6.2-6.5-7.5c-3.3-1.1-5.3-4.2-7.6-6.6
		c-2.2-2.4-4.8-4.1-8-4.9c-1.1-0.3-2.2-0.4-3.2,0.3c0,0.3-0.1,0.6,0,0.9c1.3,5.1,1.2,5.3-3.3,8.2c-4.6,3-9.3,3.6-14.2,0.7
		c-4.8-2.5-6.3-5-5.3-10.1c0.9-4.5,0.8-8.9,0.3-13.4c-0.4-3.9,0.9-6.3,3.8-7.4c3.4-1.2,4.6-0.6,6.1,2.6c0.6,1.3,1.2,2.6,2.1,3.6
		c0.9,1.2,2,2.8,3.9,1.4c1.7-1.2,2.5-2.6,0.8-4.5c-0.2-0.2-0.2-0.7-0.4-1.4c3.2,0.5,6,2,9.1,1.9c3.6-0.1,6.9-1.1,10.2-2.2
		c1.3-0.4,2.7-0.8,3.5,0.5c1.1,1.7,2.5,2.1,4.4,1.9c2.5-0.2,2.9,1.2,2.3,3.2c-0.7,2.5-2.2,4.4-4.1,6.2c-0.2,1.1,0.4,2,0.8,2.9
		c4.8-0.8,6.4-4.8,7.7-8.6c1.2-3.6,1.2-7.5,1.6-11.3c0.2-2.3,3.9-6.1,6.1-6.3c1.5-0.1,1.7,1.2,1.9,2.2c0.7,3,1.1,6.1,1.7,9.2
		c0.1,0.6,0,1.5,0.9,1.7c0.8,0.2,1.3-0.5,1.7-1c1.5-1.7,1.9-3.5,0.3-5.4c-1-1.2-1.6-2.3-0.7-3.8c0.7-1.1,1.7-1.8,3-1.6
		c1.6,0.2,2.3,1.6,2.7,3c1.6,5.8,0.7,11.6-0.8,17.2c-1.5,5.8-4.2,11.3-5,17.3c-0.1,0.6-0.1,1.3-0.8,1.5c-1.5,0.4-1.2-1.5-2.3-1.8
		c-1.4,3.7-3.4,6.9-2.8,11.5c1.4,9.2,0.9,18.5-3,27.2c-3.7,8.3-10,14.5-17.3,19.7c-1.7,1.2-3.5,1.5-5.2-0.1c-0.4-0.4-1-0.9-1.6-0.5
		c-0.8,0.4-0.5,1.3-0.3,1.9c1.5,3.3,0.3,6.1-1.4,8.8C464.9,245.5,463.1,248.4,463.1,252L463.1,252z M524.5,276.3L524.5,276.3
		c0,0.3,0,0.6,0.1,0.9c0.9,6.3,0.6,6.6-6.1,6.5c-9.2,1-18.5,2-27.7,3.1c-4.5,0.5-9,1-13.4,1.6c-1.6,0.2-2.4-0.1-2.7-1.8
		c-0.9-6.1-3.2-11.7-5.7-17.3c-0.9-1.3-2.9-3.2-2.1-4.2c1.1-1.2,3,0.6,4.4,1.2c6.6,3,12.3,7.5,18.3,11.4c1.5-1.3,0.2-2.2-0.5-2.9
		c-2-2.3-4.2-4.5-6.2-6.8c0,0,0,0,0,0c0,0,0,0,0-0.1c0,0,0,0-0.1,0.1c0,0,0,0,0,0c-1.7-1.2-3.2-2.6-4.7-4.4c2.3-0.9,4.5-0.2,6.6-0.4
		c4.1-0.3,5.3-1.7,4.7-5.8c-0.4-2.7-0.8-5.4-1-8.1c-0.2-2.7-1.6-3.6-4.1-3.7c-3.8-0.1-7.3,1-11,1.9c0.5-1.5,1.7-1.9,2.6-2.6
		c9.8-7.5,18-16.3,22.5-28c0.7-1.9,1.3-1.3,2.2-0.3c1.7,1.9,2.3,4.4,2.9,6.8c2,9.1,1.2,18.2-0.2,27.2c-1,6.2-2.3,12.4-4.3,18.4
		c-0.3,0.8-0.6,1.5,0.7,2.8c6.8-12.8,9.4-26.4,11.2-40.2c0.1-1.9,0.3-3.8,0.4-5.7c0.1-1.7,1-1.5,2-0.8c1.7,1.1,2.3,3,2.8,4.8
		C519.6,245.4,522.1,260.8,524.5,276.3z"/>
	<path class="st1" d="M482.8,268C482.8,268,482.8,268.1,482.8,268C482.8,268.1,482.8,268.1,482.8,268
		C482.8,268.1,482.8,268.1,482.8,268C482.8,268.1,482.8,268.1,482.8,268C482.8,268.1,482.8,268.1,482.8,268L482.8,268
		c0.2-0.1,0.4-0.3,0.5-0.5C483.2,267.7,483,267.9,482.8,268z"/>
	<path class="st1" d="M486.4,267c0.1,0,0.2,0,0.4-0.1c-0.1-0.1-0.1-0.1-0.2-0.2C486.5,266.8,486.5,266.9,486.4,267z"/>
	<path class="st1" d="M488,266.7L488,266.7c0.1,0.1,0.1,0.3,0.2,0.4C488.2,267,488.1,266.9,488,266.7
		C488.1,266.7,488,266.7,488,266.7z"/>
</g>
</svg>
