<?xml version="1.0" encoding="utf-8"?>
<!-- Generator: Adobe Illustrator 27.9.0, SVG Export Plug-In . SVG Version: 6.00 Build 0)  -->
<svg version="1.1" id="Layer_1" xmlns="http://www.w3.org/2000/svg" xmlns:xlink="http://www.w3.org/1999/xlink" x="0px" y="0px"
	 viewBox="0 0 102 32" style="enable-background:new 0 0 102 32;" xml:space="preserve">
<style type="text/css">
	.st0{fill:#fff;}
</style>
<g>
	<path class="st0" d="M17.13,17.32c-0.68,2.47-1.32,4.8-1.97,7.14c-0.1,0.36-0.19,0.71-0.29,1.07c-0.32,1.18,0,1.84,1.1,2.33
		c0.76,0.33,0.76,0.33,0.54,1.14c-0.32,1.2-0.32,1.2-1.58,1.2c-4.46,0-8.91-0.01-13.37,0.01c-0.53,0-0.67-0.14-0.46-0.62
		c0.05-0.1,0.06-0.23,0.08-0.34c0.08-0.72,0.31-1.2,1.2-1.25c0.88-0.06,1.47-0.73,1.95-1.44c0.91-1.33,1.27-2.87,1.69-4.38
		c1.41-5.09,2.8-10.18,4.2-15.27c0.06-0.22,0.11-0.45,0.16-0.68c0.3-1.41-0.21-2.33-1.58-2.72c-0.4-0.12-0.47-0.25-0.36-0.64
		c0.37-1.39,0.35-1.39,1.77-1.39c4.18,0,8.37,0.01,12.55-0.01c0.49,0,0.71,0.09,0.47,0.6c-0.02,0.03-0.02,0.08-0.03,0.11
		C23.11,2.9,22.86,3.44,22,3.66c-0.75,0.19-1.3,0.8-1.52,1.57c-0.89,3.12-1.74,6.24-2.65,9.52c0.93-0.71,1.74-1.33,2.54-1.94
		c3.07-2.35,6.15-4.7,9.22-7.06c0.42-0.33,0.98-0.63,0.84-1.28c-0.14-0.65-0.71-0.89-1.3-1.02c-0.34-0.08-0.41-0.19-0.32-0.54
		c0.35-1.44,0.34-1.44,1.79-1.44c3.6,0,7.2,0,10.8,0c0.87,0,1.75-0.01,2.62-0.04c0.35-0.01,0.47,0.08,0.33,0.42
		c-0.01,0.04-0.02,0.08-0.02,0.11c-0.13,0.85-0.36,1.5-1.45,1.58c-0.8,0.06-1.5,0.61-2.14,1.12c-4.06,3.24-8.11,6.49-12.17,9.73
		c-0.23,0.18-0.38,0.3-0.16,0.64c2.3,3.51,4.52,7.08,6.96,10.5c0.83,1.17,1.88,2.12,3.33,2.52c0.29,0.08,0.72-0.1,0.83,0.22
		c0.09,0.25-0.09,0.6-0.17,0.9c-0.26,1.04-0.26,1.03-1.33,1.03c-2.18,0-4.36-0.01-6.54,0c-3.46,0.03-6.24-1.32-8.39-4.05
		c-2.07-2.62-3.82-5.43-5.6-8.24C17.41,17.76,17.31,17.6,17.13,17.32z"/>
	<path class="st0" d="M72.27,1.46c-0.63,2.51-1.25,4.95-1.85,7.4c-0.06,0.24-0.18,0.35-0.4,0.3c-0.25-0.05-0.58,0.18-0.74-0.24
		c-0.41-1.08-1.32-1.56-2.37-1.59c-2.9-0.06-5.8-0.02-8.7-0.03c-0.28,0-0.36,0.12-0.42,0.36c-0.45,1.69-0.91,3.37-1.37,5.07
		c0.21,0.13,0.43,0.07,0.63,0.07c2.94,0,5.88,0.02,8.82-0.01c0.55-0.01,0.58,0.14,0.46,0.6c-0.52,2.01-1.01,4.03-1.51,6.05
		c-0.03,0.11-0.01,0.24-0.17,0.33c-1.19-1.25-2.73-1.49-4.36-1.48c-1.67,0.01-3.35,0.03-5.02,0.01c-0.36,0-0.5,0.12-0.59,0.45
		c-0.57,2.16-1.17,4.31-1.75,6.47c-0.35,1.29,0.07,2.19,1.32,2.73c0.41,0.17,0.47,0.35,0.34,0.73c-0.16,0.48-0.12,1.13-0.43,1.41
		c-0.35,0.32-1,0.1-1.52,0.1c-3.62,0-7.24-0.02-10.86,0c-0.55,0-0.58-0.13-0.45-0.62c2.12-7.67,4.23-15.35,6.34-23.02
		C48.11,4.84,47.67,4,46,3.43c-0.27-0.09-0.3-0.19-0.24-0.45c0.33-1.52,0.32-1.52,1.84-1.52c7.98,0,15.96,0,23.94,0
		C71.77,1.46,72,1.46,72.27,1.46z"/>
	<path class="st0" d="M97.51,23.69c-0.46,1.96-0.9,3.83-1.31,5.71c-0.07,0.32-0.28,0.37-0.53,0.42c-3.66,0.71-7.34,1.11-11.07,0.97
		c-3.2-0.11-6.3-0.65-9.18-2.13c-3.54-1.82-5.9-4.58-6.58-8.59c-0.53-3.17,0.22-6.1,1.87-8.81c2.2-3.6,5.42-5.99,9.22-7.67
		c3.57-1.57,7.33-2.27,11.21-2.4c3.19-0.11,6.32,0.23,9.4,1.08c0.47,0.13,0.54,0.29,0.41,0.75c-0.59,2.01-1.14,4.03-1.7,6.05
		c-0.14,0.5-0.92,0.74-1.25,0.34c-2-2.44-4.72-2.8-7.61-2.67c-3.16,0.15-6.11,0.95-8.51,3.15c-4.46,4.09-3.5,11.11,1.88,13.87
		c2.53,1.3,5.22,1.57,8,1.24C93.7,24.77,95.58,24.31,97.51,23.69z"/>
</g>
</svg>
