<?xml version="1.0" encoding="utf-8"?>
<!-- Generator: Adobe Illustrator 27.9.0, SVG Export Plug-In . SVG Version: 6.00 Build 0)  -->
<svg version="1.1" id="Layer_1" xmlns="http://www.w3.org/2000/svg" xmlns:xlink="http://www.w3.org/1999/xlink" x="0px" y="0px"
	 viewBox="0 0 150 126" style="enable-background:new 0 0 150 126;" xml:space="preserve">
<style type="text/css">
	.st0{fill:#FFFFFF;}
</style>
<g>
	<path class="st0" d="M74.64,1.92c-40.31,0-73,20.48-73,45.75c0,17.13,15.02,32.06,37.26,39.9L6.51,123.55l57.92-30.57
		c3.34,0.29,6.76,0.45,10.22,0.45c40.32,0,73-20.49,73-45.75C147.65,22.4,114.97,1.92,74.64,1.92z M20.07,69.24l-0.7-3.89l1.69-0.13
		c2.1-0.16,2.83-0.46,3.02-0.57c0.63-0.36,1.02-1.22,1.17-2.54c0,0,1.32-11.56,1.41-12.36c-0.35-0.74-7.37-15.83-7.37-15.83
		c-0.98-2.09-1.45-2.48-1.51-2.52c-0.1-0.06-0.65-0.38-2.51-0.58l-1.14-0.12l-0.7-3.9h17.49l0.7,3.94l-1.73,0.09
		c-1.76,0.09-2.34,0.26-2.45,0.31c-0.05,0.02-0.07,0.03-0.1,0.04c0,0.03,0,0.07,0.01,0.13c0.02,0.09,0.08,0.34,0.31,0.94
		c0.19,0.47,0.31,0.75,0.35,0.83c0.01,0.01,0.04,0.06,0.04,0.06s3.3,7.18,4.8,10.45c1.52-2.35,3.64-5.63,3.64-5.63
		c1.08-1.67,1.9-3.03,2.36-3.94c0.76-1.47,0.86-2.17,0.86-2.42c0-0.05,0-0.09-0.01-0.11c-0.03-0.15-0.05-0.28-0.44-0.41
		c-0.14-0.04-0.74-0.19-2.58-0.26l-1.23-0.04l-0.7-3.98h14.32h1.28l0.69,3.82l-1.61,0.19c-1.12,0.14-1.62,0.42-1.82,0.57
		c-0.2,0.15-0.77,0.69-1.8,2.35c0,0-9.78,15.51-10.13,16.07c-0.22,1.82-1.3,10.83-1.3,10.83c-0.1,0.83-0.15,1.54-0.15,2.06
		c0,0.6,0.05,0.96,0.08,1.12c0.1,0.55,0.27,0.88,0.51,0.96c0.38,0.13,1.39,0.36,3.89,0.43l1.24,0.03l0.72,3.99H20.07z M75.41,61.84
		c-0.7,1.63-1.46,2.99-2.31,4.15c-1.86,2.59-3.9,3.91-6.09,3.91c-1.21,0-2.27-0.34-3.15-1.01c-0.96-0.7-1.57-1.77-1.82-3.18
		c-0.11-0.61-0.16-1.26-0.17-1.92c0-0.07,0-0.15,0-0.22c0-0.51,0.03-1.06,0.08-1.63c-0.52,0.98-1,1.82-1.45,2.5
		c-2.42,3.64-5.14,5.49-8.06,5.49c-0.87,0-1.7-0.19-2.51-0.57c-1.08-0.53-2.46-1.67-2.88-4.06c-0.09-0.51-0.13-0.9-0.13-1.23
		c0-0.03,0.01-1.16,0.01-1.16s1.2-16.45,1.21-16.54c0-0.04,0-0.47,0-0.47l-0.02-0.25c-0.04-0.22-0.08-0.34-0.11-0.4
		c-0.21-0.06-0.81-0.17-2.28-0.17h-1.28l-0.62-3.55c0,0,5.63-1.15,5.65-1.16l4.54-0.88l-0.07,0.02c0.29-0.07,1.02-0.16,1.7,0.5
		l0.02,0.02l0.02,0.02c0.37,0.38,0.57,0.86,0.57,1.35v0.03l-0.02,0.48c0,0-1.69,20.08-1.69,20.11c0,0-0.08,1.05-0.08,1.07
		c0,0-0.01,0.24-0.01,0.26c0.02,0.08,0.04,0.13,0.04,0.14c0.01,0.01,0.03,0.02,0.03,0.02c0,0,0.02,0.01,0.07,0.01
		c0.15,0,0.99-0.12,2.53-2.42c1.31-1.95,2.45-4.04,3.38-6.19c0.84-1.93,1.55-4.08,2.1-6.38c0.36-1.51,0.84-3.91,1.42-7.13l0.23-1.26
		h7.4l-0.15,1.66c0,0-1.88,20.9-1.88,20.88c0,0-0.02,0.25-0.04,0.5c0.03-0.04,0.06-0.06,0.09-0.11c0.04-0.05,0.3-0.37,0.84-1.24
		l2.07-3.23l3.35,2.02L75.41,61.84z M121.18,62.1c0,0-0.22,0.41-0.21,0.4c-1.13,2.13-2.38,3.87-3.72,5.18
		c-1.52,1.47-3.2,2.21-4.99,2.21c-0.92,0-1.76-0.24-2.53-0.73c-1.11-0.74-1.82-1.94-2.12-3.58c-0.06-0.37-0.1-0.75-0.11-1.17
		l0.03-1.24l0,0.01l0-0.04c0,0,1.34-16.5,1.34-16.48l0.02-0.49l-0.01-0.16l-0.01-0.06c-0.02-0.13-0.06-0.19-0.07-0.2
		c-0.76,0.01-1.75,0.84-2.81,2.34c-1.33,1.88-2.45,3.81-3.34,5.76c-0.76,1.94-1.25,3.59-1.46,4.89c-0.23,1.35-0.56,4.33-1,9.13
		l-0.13,1.39h-7.63c0,0,2.04-22.51,2.05-22.59c0-0.03,0.01-0.42,0.01-0.42s-0.02-0.25-0.02-0.25c-0.02-0.12-0.05-0.19-0.07-0.24
		c-0.01,0-0.01,0-0.02,0c-0.25,0-1.18,0.18-2.79,2.46c-1.37,1.93-2.49,3.79-3.31,5.55c-0.77,1.62-1.42,3.84-1.92,6.59
		c-0.31,1.73-0.7,4.28-1.15,7.58l-0.18,1.32h-7.55c0,0,2.21-22.64,2.21-22.64c0,0,0.03-0.45,0.03-0.49c0-0.13-0.01-0.23-0.02-0.33
		c-0.02-0.1-0.04-0.16-0.05-0.21c-0.25-0.05-0.91-0.13-2.51-0.07l-1.33,0.05l-0.69-3.83l1.53-0.25c1.9-0.31,4.99-0.96,9.19-1.93
		l0.69-0.16l1.54,1.15c0,0-0.36,3.39-0.61,5.7c0.41-0.63,0.82-1.22,1.22-1.79l0.02-0.03c2.5-3.3,4.97-4.91,7.54-4.91
		c1.05,0,2.06,0.29,3.01,0.88c1.42,0.88,2.35,2.35,2.68,4.25c0.07,0.37,0.09,0.8,0.1,1.28c0.24-0.36,0.47-0.72,0.7-1.03l0-0.01
		c2.63-3.62,5.23-5.38,7.95-5.38c1.24,0,2.45,0.41,3.59,1.23c1.21,0.86,1.99,2.21,2.3,4.01c0.04,0.24,0.08,0.59,0.08,1.34
		c0,0.51-0.02,1.2-0.06,2.16l0,0.04c0,0-1.23,13.15-1.4,15.02c0.01,0,0.01-0.01,0.01-0.01c0.26-0.32,0.49-0.62,0.68-0.9
		c0.02-0.04,0.23-0.35,0.23-0.35l2.26-3.52l3.47,2.37L121.18,62.1z M131.02,68.42c-0.81,1-1.96,1.53-3.32,1.53
		c-1.15,0-2.25-0.4-3.27-1.19c-1.05-0.81-1.71-1.96-1.99-3.44c-0.2-1.14,0.09-2.26,0.83-3.23l0-0.01c0.54-0.71,1.56-1.56,3.33-1.56
		c1.14,0,2.25,0.4,3.31,1.19c1.08,0.82,1.77,1.93,1.99,3.21C132.13,66.22,131.82,67.43,131.02,68.42z M135.26,33.63
		c-0.19,1.13-0.93,4.19-2.27,9.35c-0.15,0.61-0.51,2.17-1.37,6.15l-2.03,9.71l-2.49-0.5l-1.26-0.25c0,0,0.29-10.21,0.29-10.22
		c0.16-5.94,0.19-7.58,0.18-7.93l-0.05-5.45c-0.03-2.77,0.22-4.74,0.78-6.03l0-0.01c0.72-1.62,2.02-2.52,3.67-2.52
		c1.17,0,2.24,0.46,3.09,1.32c0.81,0.81,1.31,1.78,1.49,2.86C135.47,31.19,135.47,32.38,135.26,33.63z"/>
</g>
</svg>
