<?xml version="1.0" encoding="utf-8"?>
<!-- Generator: Adobe Illustrator 27.9.0, SVG Export Plug-In . SVG Version: 6.00 Build 0)  -->
<svg version="1.1" id="Layer_1" xmlns="http://www.w3.org/2000/svg" xmlns:xlink="http://www.w3.org/1999/xlink" x="0px" y="0px"
	 viewBox="0 0 102.5 32" style="enable-background:new 0 0 102.5 32;" xml:space="preserve">
<style type="text/css">
	.st0{fill:#FFF9F3;}
</style>
<path class="st0" d="M0,0v32h102.5V0H0z M28.4,15c2.3,3.5,4.5,7.1,7,10.5c0.8,1.2,1.9,2.1,3.3,2.5c0.3,0.1,0.7-0.1,0.8,0.2
	c0.1,0.2-0.1,0.6-0.2,0.9c-0.3,1-0.3,1-1.3,1c-2.2,0-4.4,0-6.5,0c-3.5,0-6.2-1.3-8.4-4c-2.1-2.6-3.8-5.4-5.6-8.2
	c-0.1-0.1-0.2-0.3-0.4-0.6c-0.7,2.5-1.3,4.8-2,7.1c-0.1,0.4-0.2,0.7-0.3,1.1c-0.3,1.2,0,1.8,1.1,2.3c0.8,0.3,0.8,0.3,0.5,1.1
	c-0.3,1.2-0.3,1.2-1.6,1.2c-4.5,0-8.9,0-13.4,0c-0.5,0-0.7-0.1-0.5-0.6C1,29.4,1,29.3,1,29.2C1.3,28.5,1.5,28,2.4,28
	c0.9-0.1,1.5-0.7,2-1.4c0.9-1.3,1.3-2.9,1.7-4.4C7.4,17.1,8.8,12,10.2,6.9c0.1-0.2,0.1-0.4,0.2-0.7c0.3-1.4-0.2-2.3-1.6-2.7
	C8.4,3.4,8.3,3.3,8.4,2.9c0.4-1.4,0.3-1.4,1.8-1.4c4.2,0,8.4,0,12.5,0c0.5,0,0.7,0.1,0.5,0.6v0.1c-0.1,0.7-0.3,1.3-1.2,1.5
	c-0.8,0.2-1.3,0.8-1.5,1.6c-0.9,3.1-1.7,6.2-2.6,9.5c0.9-0.7,1.7-1.3,2.5-1.9c3.1-2.3,6.2-4.7,9.2-7.1c0.4-0.3,1-0.6,0.8-1.3
	c-0.1-0.6-0.7-0.9-1.3-1c-0.3-0.1-0.4-0.2-0.3-0.5c0.3-1.4,0.3-1.4,1.8-1.4c3.6,0,7.2,0,10.8,0c0.9,0,1.8,0,2.6,0
	c0.3,0,0.5,0.1,0.3,0.4v0.1c-0.1,0.8-0.4,1.5-1.5,1.6c-0.8,0.1-1.5,0.6-2.1,1.1c-4.1,3.2-8.1,6.5-12.2,9.7
	C28.3,14.6,28.2,14.7,28.4,15z M57,12.8c2.9,0,5.9,0,8.8,0c0.5,0,0.6,0.1,0.5,0.6c-0.5,2-1,4-1.5,6c0,0.1,0,0.2-0.2,0.3
	c-1.2-1.2-2.7-1.5-4.4-1.5s-3.3,0-5,0c-0.4,0-0.5,0.1-0.6,0.5c-0.6,2.2-1.2,4.3-1.8,6.5c-0.3,1.3,0.1,2.2,1.3,2.7
	c0.4,0.2,0.5,0.3,0.3,0.7c-0.2,0.5-0.1,1.1-0.4,1.4c-0.3,0.3-1,0.1-1.5,0.1c-3.6,0-7.2,0-10.9,0c-0.5,0-0.6-0.1-0.4-0.6
	c2.1-7.7,4.2-15.4,6.3-23c0.4-1.7,0-2.5-1.7-3.1c-0.3-0.1-0.3-0.2-0.2-0.5c0.3-1.5,0.3-1.5,1.8-1.5c8,0,16,0,23.9,0
	c0.2,0,0.5,0,0.7,0c-0.4,2.6-1,5-1.6,7.5c-0.1,0.2-0.2,0.4-0.4,0.3c-0.2,0-0.6,0.2-0.7-0.2c-0.4-1.1-1.3-1.6-2.4-1.6
	c-2.9-0.1-5.8,0-8.7,0c-0.3,0-0.4,0.1-0.4,0.4c-0.4,1.7-0.9,3.4-1.4,5.1C56.6,12.9,56.8,12.8,57,12.8z M101,3c-0.6,2-1.1,4-1.7,6
	c-0.1,0.5-0.9,0.7-1.2,0.3c-2-2.4-4.7-2.8-7.6-2.7c-3.2,0.2-6.1,1-8.5,3.2c-4.6,4.2-3.6,11.2,1.8,14c2.5,1.3,5.2,1.6,8,1.2
	c1.9-0.2,3.8-0.7,5.8-1.3c-0.5,2-0.9,3.8-1.3,5.7c-0.1,0.3-0.3,0.4-0.5,0.4c-3.7,0.7-7.3,1.1-11.1,1c-3.2-0.1-6.3-0.6-9.2-2.1
	c-3.5-1.8-5.9-4.6-6.6-8.6c-0.5-3.2,0.2-6.1,1.9-8.8c2.2-3.6,5.4-6,9.2-7.7c3.6-1.6,7.3-2.3,11.2-2.4c3.2-0.1,6.3,0.2,9.4,1.1
	C101,2.4,101.1,2.6,101,3z"/>
</svg>
