<?xml version="1.0" encoding="utf-8"?>
<!-- Generator: Adobe Illustrator 27.9.0, SVG Export Plug-In . SVG Version: 6.00 Build 0)  -->
<svg version="1.1" id="Layer_1" xmlns="http://www.w3.org/2000/svg" xmlns:xlink="http://www.w3.org/1999/xlink" x="0px" y="0px"
	 viewBox="0 0 202 378" style="enable-background:new 0 0 202 378;" xml:space="preserve">
<style type="text/css">
	.st0{fill:#010101;}
	.st1{fill:#FFFFFF;}
</style>
<g>
	<path class="st0" d="M80.45,282.01c-1.22-0.9-2.29-1.67-3.35-2.46c-5.28-3.92-10.67-7.7-15.76-11.86
		c-7.98-6.53-14.7-14.13-19.26-23.47c-1.95-3.99-3.37-8.16-4.09-12.55c-0.14-0.84-0.26-1.7-0.28-2.55c-0.02-0.68-0.21-1.25-0.5-1.85
		c-2.5-5.12-4.38-10.45-5.45-16.06c-0.41-2.13-0.56-4.28-0.71-6.44c-0.07-1.01-0.17-2.02-0.28-3.03c-0.1-0.88-0.47-1.17-1.38-1.05
		c-1.44,0.2-2.85,0.19-4.29-0.12c-2.35-0.5-3.95-1.92-5.21-3.86c-1.99-3.07-3.17-6.47-4.14-9.96c-0.89-3.21-1.3-6.51-2.08-9.74
		c-1.32-5.4-2.98-10.7-4.61-16.01c-1.52-4.97-3.06-9.94-4.07-15.05c-0.88-4.47-1.26-8.96-0.2-13.46c0.54-2.28,1.67-4.1,3.88-5.12
		c0.64-0.29,1.33-0.4,2.01-0.55c0.42-0.09,0.49-0.24,0.36-0.64c-2.07-6.17-3.37-12.55-4.9-18.86c-0.93-3.83-1.96-7.64-2.9-11.47
		c-0.8-3.27-1.12-6.56-0.35-9.89c0.26-1.13,0.84-2.07,1.61-2.92c1.29-1.43,2.9-2.5,4.35-3.74c1.5-1.28,2.86-2.68,3.57-4.58
		c0.34-0.91,0.39-1.84,0.2-2.78c-0.74-3.66-2.15-7.02-4.41-10.02C7.79,61.35,7.4,60.73,7,60.14c-0.51-0.76-0.61-1.56-0.34-2.44
		c1.31-4.15,4.19-6.46,8.4-7.24c2-0.37,4-0.03,6,0.04c2.07,0.07,4.08-0.16,6.03-0.85c0.27-0.1,0.54-0.21,0.81-0.33
		c0.12-0.05,0.22-0.15,0.4-0.28c-1.64-0.62-3-1.55-4.28-2.61c-2.15-1.78-4.05-3.79-5.58-6.12c-0.45-0.68-0.85-1.38-1.09-2.16
		c-0.23-0.75-0.03-1.15,0.73-1.37c0.72-0.21,1.46-0.21,2.21-0.26c5.28-0.33,10.36-1.41,14.95-4.21c3.53-2.16,6.17-5.13,7.96-8.87
		c0.28-0.59,0.5-1.22,0.55-1.86c0.17-2.1,1.32-3.51,3.13-4.39c1.45-0.71,2.98-1.24,4.44-1.91c9.09-4.15,18.59-7.04,28.32-9.21
		c3.97-0.89,7.97-1.67,12.03-1.97c5.08-0.37,10.17-0.64,15.27-0.37c5.11,0.27,10.18,0.86,15.17,1.96c6.55,1.44,13,3.27,19.12,6.07
		c6.04,2.78,11.65,6.31,16.97,10.3c3.67,2.75,7.24,5.62,10.39,8.95c10.01,10.56,17.24,22.78,21.72,36.63
		c1.78,5.5,3.05,11.11,3.9,16.82c0.31,2.09,0.56,4.19,0.72,6.3c0.03,0.33,0.06,0.69,0.2,0.98c0.89,1.9,2.03,3.63,3.83,4.77
		c1.2,0.76,1.45,1.89,1.48,3.14c0.07,2.5-0.51,4.91-1.14,7.3c-1.43,5.46-3.36,10.77-5.01,16.17c-0.31,1.01-0.58,2.02-0.85,3.04
		c-0.2,0.79-0.03,1.16,0.68,1.57c0.95,0.55,1.95,1.02,2.81,1.73c2.07,1.74,2.91,4.05,3.11,6.65c0.31,4.16-0.39,8.22-1.26,12.25
		c-2.68,12.4-6.13,24.61-9.7,36.78c-1.12,3.81-2.51,7.53-4.58,10.95c-0.35,0.58-0.74,1.13-1.16,1.66c-1.4,1.77-3.38,2.44-5.49,2.84
		c-1.07,0.21-2.16,0.13-3.24,0.13c-1.02,0.01-1.31,0.26-1.54,1.23c-0.14,0.58-0.1,1.17-0.08,1.75c0.08,3.32-0.09,6.63-0.57,9.91
		c-0.73,5.05-1.94,9.99-3.49,14.85c-1.99,6.25-4.44,12.31-7.36,18.18c-2.07,4.16-4.96,7.73-8.22,10.98
		c-7.11,7.09-14.5,13.85-22.84,19.51c-2.05,1.39-4.13,2.72-6.24,4.02c-0.24,0.15-0.53,0.25-0.69,0.63c0.45,0,0.87,0.03,1.27,0
		c3.31-0.29,6.62-0.33,9.93-0.12c1.82,0.12,3.63,0.3,5.41,0.72c2.17,0.51,3.4,2.01,3.57,4.25c0.07,0.86,0.03,1.71-0.01,2.57
		c-0.22,4.22-0.1,8.44-0.13,12.65c-0.01,0.79-0.12,1.57-0.31,2.34c-0.51,2.04-1.78,2.82-3.9,2.61c-7.24-0.72-14.48-1.5-21.78-1.29
		c-1.8,0.05-3.59,0.25-5.39,0.37c-0.5,0.03-0.43,0.35-0.38,0.67c0.23,1.51,0.84,2.93,1.22,4.4c1.47,5.56,2.76,11.15,3.49,16.86
		c0.71,5.59,1.26,11.19,1.63,16.81c0.41,6.35,0.63,12.7,0.5,19.07c-0.05,2.5-0.16,5-0.79,7.44c-0.02,0.07-0.02,0.14-0.04,0.2
		c-0.5,1.51-0.67,2.21-2.74,1.97c-3.74-0.43-7.33,0.36-10.87,1.46c-1.59,0.5-3.26-0.83-3.11-2.49c0.33-3.55,0.41-7.11,0.5-10.68
		c0.24-10.74,0.25-21.47,0.16-32.21c0-0.43,0-0.86-0.12-1.27c-0.03-0.11-0.05-0.24-0.17-0.27c-0.17-0.03-0.22,0.12-0.27,0.24
		c-0.11,0.32-0.21,0.64-0.29,0.96c-1.31,5.25-3.28,10.28-5.25,15.31c-2.9,7.41-5.9,14.78-9.31,21.97c-0.31,0.65-0.65,1.28-1.03,1.89
		c-0.62,0.99-1.18,1.16-2.28,0.75c-1.22-0.46-2.38-1.07-3.5-1.71c-2.69-1.55-5.56-2.44-8.64-2.78c-1.85-0.2-2.18-0.9-1.31-2.51
		c7.31-13.54,13.27-27.69,18.78-42.03c1.53-3.99,3-8.02,4.78-11.91c0.23-0.5,0.61-1.07,0.24-1.58c-0.37-0.52-1.01-0.21-1.52-0.14
		c-2.74,0.35-5.49,0.29-8.23,0.37c-4.62,0.14-9.24,0.18-13.86,0.31c-2.18,0.06-4.36,0.29-6.55,0.24c-1.9-0.04-3.4-0.77-4.32-2.49
		c-0.54-1-0.7-2.11-0.66-3.21c0.15-4.15,0.02-8.3,0.12-12.45c0.03-1.19,0.23-2.37,0.39-3.56c0.15-1.09,0.8-1.77,1.83-2.13
		c1.65-0.58,3.36-0.78,5.09-0.94c2.75-0.25,5.5-0.1,8.25-0.14c1.8-0.02,3.61-0.09,5.41-0.15C79.67,282.18,79.95,282.09,80.45,282.01
		z"/>
	<path class="st1" d="M54.41,120.44c-5.23-0.01-10.46-0.05-15.69,0.16c-1.3,0.05-2.6,0.21-3.9,0.36c-0.45,0.05-0.68,0.02-0.68-0.54
		c0-1.99,0.11-3.95,0.68-5.88c0.79-2.69,2.47-4.53,5.04-5.6c0.85-0.35,1.7-0.7,2.53-1.09c0.75-0.35,1.2-0.95,1.41-1.78
		c0.89-3.48,1.43-7.04,2.15-10.55c1.45-7.15,3.42-14.12,7.05-20.51c3.08-5.42,7.2-9.87,12.31-13.43c3.22-2.24,6.76-3.48,10.68-3.64
		c6.14-0.25,12.17,0.36,18.03,2.28c1.97,0.64,3.8,1.59,5.65,2.5c0.38,0.19,0.78,0.34,1.18,0.49c0.8,0.29,1.52,0.21,2.19-0.37
		c1.71-1.47,3.45-2.9,5.16-4.37c0.89-0.76,0.84-1.92-0.12-2.91c-1.32-1.38-2.65-2.78-4.02-4.11c-4.73-4.57-10.01-8.35-16.1-10.92
		c-3.31-1.39-6.77-2.2-10.29-2.79c-3.25-0.54-6.5-0.96-9.8-0.93c-5.93,0.06-11.62,1.33-17.14,3.44c-2.7,1.03-5.39,2.09-8.08,3.13
		c-0.21,0.08-0.48,0.36-0.66,0.12c-0.14-0.17,0.08-0.45,0.17-0.67c0.81-1.87,2.15-3.32,3.74-4.54c5.49-4.21,11.25-7.98,17.76-10.46
		c1.42-0.54,2.88-0.98,4.34-1.43c0.59-0.18,0.98-0.53,1.23-1.06c0.49-1.04,0.05-1.97-1.07-2.2c-1.65-0.35-3.32-0.3-4.98-0.26
		c-0.34,0.01-0.68,0.03-1.01-0.03c-0.8-0.13-1.08-0.78-0.6-1.44c0.33-0.45,0.76-0.83,1.22-1.16c2.51-1.77,5.33-2.86,8.25-3.72
		c4.44-1.31,9-2.09,13.58-2.76c4.59-0.67,9.21-1.1,13.83-1.43c2.97-0.21,5.94-0.07,8.91,0.2c5.02,0.46,9.97,1.39,14.83,2.69
		c7.9,2.11,15.41,5.27,22.47,9.35c7.29,4.2,14.19,9,20.11,15.06c7.59,7.78,12.54,17.07,15.55,27.46c1.28,4.4,2.16,8.89,2.74,13.44
		c0.98,7.63,1.13,15.28,0.68,22.95c-0.15,2.59-0.41,5.16-0.98,7.69c-0.14,0.62-0.37,1.2-0.79,1.69c-0.7,0.82-1.38,0.75-1.79-0.24
		c-0.33-0.81-0.56-1.65-0.8-2.49c-1.91-6.58-3.73-13.19-6.22-19.58c-1.89-4.84-4.08-9.53-6.9-13.9c-0.3-0.46-0.61-0.89-1.09-1.17
		c-0.9-0.52-1.64-0.1-1.63,0.94c0.02,1.38,0.05,2.75,0.15,4.12c0.22,3.05,0.07,6.08-0.2,9.11c-0.18,2.02,0.25,3.88,1.63,5.47
		c3.38,3.91,5.31,8.54,6.67,13.46c0.97,3.49,1.71,7.02,2,10.64c0.05,0.58,0.06,1.17,0.03,1.76c-0.04,0.83-0.36,1.13-1.18,1.09
		c-1.96-0.1-3.89-0.46-5.8-0.85c-2.68-0.54-5.39-0.75-8.12-0.76c-8.55-0.02-17.09-0.12-25.64,0.14c-3.69,0.11-7.38,0.23-11,1.12
		c-4.32,1.06-8.06,3.23-11.48,6c-0.93,0.75-1.88,1.46-2.92,2.06c-0.79,0.46-1.56,0.56-2.45,0.34c-1.24-0.3-2.51-0.53-3.79-0.61
		c-1.77-0.12-3.51,0.08-5.17,0.69c-1.71,0.63-3.23,0.23-4.62-0.82c-1.34-1.02-2.62-2.13-3.98-3.14c-3.77-2.81-8.06-4.36-12.66-5.13
		c-5.1-0.85-10.25-0.61-15.38-0.67C57.88,120.43,56.14,120.44,54.41,120.44z"/>
	<path class="st1" d="M176.48,139.06c-0.18,4.26-0.34,8.02-0.51,11.78c-0.02,0.43-0.01,0.86,0.14,1.27
		c0.23,0.66,0.76,0.97,1.38,0.65c2.13-1.1,4-2.52,5.11-4.73c0.59-1.17,0.39-2.41,0.08-3.57c-0.78-2.89,0.04-5.46,1.44-7.93
		c0.77-1.36,1.35-1.57,2.9-1.25c0.2,0.04,0.4,0.06,0.6,0.11c2.88,0.68,3.99,2.36,3.69,5.78c-0.44,4.98-1.72,9.8-2.96,14.63
		c-1.2,4.64-2.72,9.2-3.76,13.88c-0.99,4.44-2.12,8.85-3.74,13.11c-0.65,1.7-1.36,3.38-2.41,4.88c-1.31,1.86-2.95,2.32-5.05,1.42
		c-0.43-0.19-0.85-0.4-1.29-0.57c-0.9-0.35-1.55-0.2-2.17,0.53c-0.35,0.41-0.66,0.86-0.95,1.31c-0.96,1.52-1.83,3.09-2.83,4.59
		c-0.84,1.27-1.21,2.74-1.25,4.28c-0.32,13.45-3,26.36-9.24,38.37c-5.05,9.73-12.42,17.21-22.22,22.21
		c-2.1,1.07-4.32,1.89-6.56,2.57c-1.91,0.58-3.84,0.41-5.29-1.33c-0.46-0.55-0.98-1.07-1.51-1.55c-0.57-0.51-1.06-0.39-1.42,0.28
		c-0.32,0.6-0.32,1.24-0.27,1.9c0.14,2.2,0.25,4.41-0.31,6.59c-0.41,1.61-1.42,2.9-2.4,4.18c-0.97,1.27-2.04,2.47-3.02,3.73
		c-1.86,2.38-2.85,5.11-3.27,8.08c-0.1,0.69-0.16,1.38-0.38,2.05c-0.37,1.14-0.99,1.42-2.06,0.87c-0.88-0.45-1.71-1-2.51-1.59
		c-6.55-4.88-11.68-10.93-15-18.43c-1.21-2.75-2.05-5.62-1.82-8.68c0.19-2.5,0.81-4.91,1.55-7.3c0.96-3.09,1.86-6.18,2.29-9.4
		c0.27-2.06,0.07-4.09-0.25-6.12c-0.14-0.87-0.33-1.73-0.27-2.61c0.07-0.98,0.67-1.31,1.6-0.95c0.57,0.22,0.96,0.66,1.31,1.13
		c0.72,0.96,1.19,2.06,1.73,3.12c0.24,0.48,0.47,0.98,0.81,1.39c0.42,0.51,0.8,0.5,1.21-0.02c0.42-0.53,0.6-1.16,0.68-1.81
		c0.3-2.33-0.02-4.63-0.49-6.91c-0.15-0.75-0.74-1.22-1.3-1.68c-1.06-0.87-2.31-1.36-3.63-1.69c-0.55-0.14-1.08-0.3-1.55-0.62
		c-0.94-0.63-1.04-1.57-0.17-2.3c1.12-0.94,2.5-1.4,3.82-1.96c1.85-0.78,3.75-0.47,5.65-0.23c4.28,0.54,8.56,0.78,12.88,0.41
		c4.2-0.36,8.16-1.65,12.13-2.94c1-0.33,2.01-0.63,3.05-0.83c0.59-0.12,1.18-0.12,1.73,0.12c1.45,0.63,2.8,1.44,3.97,2.52
		c0.69,0.63,0.97,1.42,1.03,2.34c0.14,2.43,0.04,4.87,0.26,7.3c0.1,1.14,0.22,2.29,0.55,3.39c0.45,1.48,1.41,1.75,2.57,0.73
		c1.22-1.07,1.97-2.43,2.43-3.97c0.73-2.46,1.03-5.01,1.62-7.5c0.21-0.9,0.48-1.77,0.84-2.62c0.39-0.94,0.94-1.75,1.72-2.46
		c2.68-2.43,4.18-5.54,4.87-9.03c0.76-3.87,0.84-7.79,0.54-11.72c-0.07-0.85-0.2-1.7-0.42-2.52c-0.47-1.75-1.59-3.06-3.18-3.73
		c-4.44-1.88-7.54-5.2-10.19-9.07c-1.37-2-2.64-4.09-4.22-5.95c-2.84-3.35-6.22-5.9-10.58-6.96c-0.07-0.02-0.13-0.04-0.19-0.06
		c-2.04-0.36-2.89,0.52-2.41,2.54c0.35,1.46,0.8,2.9,0.96,4.4c0.16,1.49-0.14,2.7-1.53,3.6c-3.4,2.21-7,3.91-11,4.7
		c-3.6,0.71-7.01,0.01-10.33-1.37c-2.81-1.17-5.34-2.73-7.14-5.24c-2.55-3.55-2.83-7.41-1.4-11.47c0.65-1.85,1.47-3.62,2.42-5.32
		c1.3-2.32,1.86-4.85,2.25-7.43c0.6-3.97,1.07-7.97,2.02-11.89c0.86-3.54,3.27-4.08,6.02-3.46c1.99,0.45,3.06,1.78,3.48,3.76
		c0.54,2.58,1.34,5.07,2.77,7.33c0.57,0.9,1.25,1.7,2.1,2.36c0.51,0.4,1.04,0.52,1.64,0.28c1.47-0.59,2.75-1.44,3.64-2.79
		c0.42-0.63,0.52-1.23,0.06-1.93c-0.5-0.77-0.92-1.59-1.17-2.49c-0.12-0.41-0.22-0.82,0.11-1.14c0.36-0.36,0.85-0.38,1.33-0.25
		c0.15,0.04,0.3,0.11,0.42,0.2c1.93,1.51,4.17,2.23,6.55,2.63c2.3,0.39,4.6,0.81,6.93,1.06c2.69,0.28,5.29-0.14,7.88-0.77
		c2.17-0.54,4.35-0.74,6.54-0.18c1.26,0.32,2.32,0.99,2.78,2.31c0.01,0.04,0.05,0.07,0.07,0.12c0.59,1.85,1.94,2.52,3.79,2.59
		c1.09,0.04,2.2,0.18,3.26,0.49c1.1,0.32,1.51,1.03,1.32,2.14c-0.56,3.37-2.68,5.49-5.6,6.96c-2.31,1.17-4.8,1.77-7.33,2.13
		c-1.93,0.27-2.25,1.02-1.96,2.98c0.24,1.67,0.9,2.17,2.61,2.2c4.46,0.07,8.69-0.74,12.33-3.52c3-2.29,4.87-5.37,6.1-8.88
		c1.43-4.08,2.35-8.28,3.12-12.52c0.39-2.14,0.74-4.28,1.6-6.31c0.39-0.93,0.99-1.56,1.95-1.91c1.88-0.67,3.75-1.34,5.73-1.69
		c0.87-0.15,1.53,0.18,1.95,0.97c0.53,1,0.62,2.11,0.65,3.21C176.5,137.43,176.48,138.49,176.48,139.06z"/>
	<path class="st1" d="M62.27,49.61c1.52,0,2.87,0.37,4.14,1.06c0.23,0.13,0.54,0.26,0.53,0.55c-0.01,0.28-0.35,0.32-0.57,0.41
		c-2.21,0.93-4.44,1.8-6.56,2.94c-7.67,4.1-13.19,10.27-17.12,17.93c-1.42,2.78-3.01,5.37-5.62,7.21c-0.55,0.39-1.04,0.86-1.56,1.29
		c-2.48,2.05-3.86,4.77-4.85,7.77c-1.82,5.53-3.22,11.15-4.08,16.91c-0.67,4.51-1.05,9.04-1.2,13.59c-0.03,0.9-0.17,1.79-0.53,2.63
		c-0.35,0.82-0.91,1.43-1.74,1.79c-0.72,0.31-1.42,0.66-2.15,0.96c-0.71,0.29-0.93,0.16-1.13-0.55c-1.45-5.39-3.01-10.75-4.11-16.23
		c-0.7-3.5-1.61-6.95-2.2-10.47c-0.55-3.25-0.26-6.32,1.36-9.27c1.52-2.77,3.13-5.49,5.19-7.87c2.22-2.56,2.45-5.32,1.61-8.39
		c-0.77-2.82-1.68-5.58-3.12-8.14c-0.25-0.45-0.49-0.91-0.54-1.44c-0.07-0.71,0.1-0.97,0.8-1.04c2.21-0.23,4.44-0.38,6.63-0.78
		c7.59-1.39,14.97-3.43,21.89-6.97c3.54-1.81,7.3-2.98,11.25-3.47C59.84,49.89,61.08,49.68,62.27,49.61z"/>
	<path class="st1" d="M67.98,167.08c1.58-0.08,2.93-0.1,4.27-0.32c0.39-0.06,0.78,0.02,1.01,0.38c0.22,0.34-0.04,0.59-0.23,0.84
		c-1.43,1.86-2.46,3.89-2.81,6.26c-0.18,1.2-0.95,1.99-2.11,2.41c-1.64,0.59-3.31,1.13-4.88,1.89c-1.44,0.7-2.78,1.55-4.05,2.54
		c-2.61,2.04-5.58,3.25-8.89,3.48c-2.5,0.18-4.56-0.66-6.02-2.85c-1.91-2.87-3.17-6.02-4.28-9.25c-0.83-2.44-1.51-4.93-2.1-7.43
		c-0.13-0.56-0.14-1.12-0.05-1.68c0.19-1.17,1.23-1.75,2.52-1.43c0.72,0.18,1.39,0.5,2.03,0.89c1.77,1.1,3.71,1.8,5.69,2.37
		c1.33,0.39,2.21-0.05,2.77-1.32c0.29-0.66,0.62-1.3,0.67-2.03c0.07-1.03-0.21-1.56-1.15-1.99c-0.99-0.46-2.02-0.85-3.01-1.32
		c-3.31-1.56-5.43-4.21-6.77-7.54c-0.39-0.96,0.01-2.22,0.84-2.84c0.73-0.56,1.78-0.5,2.67,0.21c0.76,0.6,1.45,1.29,2.21,1.88
		c0.84,0.65,1.74,1.19,2.85,1.26c0.95,0.06,1.68-0.22,2.29-1c1.12-1.45,2.36-2.78,3.85-3.87c2.89-2.1,6.11-2.82,9.63-2.39
		c2.19,0.27,4.34,0.73,6.51,1.08c2.45,0.4,4.89,0.19,7.31-0.29c0.92-0.19,1.86-0.37,2.81-0.33c0.33,0.01,0.73,0.02,0.88,0.38
		c0.14,0.33-0.13,0.6-0.33,0.83c-0.37,0.45-0.78,0.88-1.17,1.31c-1.11,1.24-1.15,1.84-0.22,3.22c1.31,1.93,1.28,3.88-0.13,5.74
		c-0.97,1.27-2.21,2.24-3.61,3c-2.44,1.34-5.08,1.99-7.82,2.29c-1.45,0.16-2.91,0.26-4.37,0.4c-0.7,0.06-1.08,0.43-1.15,1.16
		c-0.07,0.77-0.11,1.52,0.01,2.29c0.12,0.79,0.54,1.24,1.29,1.46C66,167.07,67.11,167.04,67.98,167.08z"/>
	<path class="st1" d="M122.98,203.92c-5.78-0.1-11.73-0.94-17.43-3.18c-3.23-1.27-6.41-1.21-9.58,0.34c-2.06,1.01-4.35,1.4-6.6,1.79
		c-4.98,0.86-10.01,1.26-15.06,1.08c-3.44-0.13-6.78-0.79-9.8-2.57c-0.6-0.36-1.18-0.75-1.64-1.28c-0.52-0.59-0.48-1.12,0.13-1.62
		c0.28-0.23,0.61-0.36,0.95-0.48c2.64-0.98,5.12-2.25,7.45-3.86c2.24-1.55,4.5-3.08,6.86-4.42c2.36-1.35,4.94-2.02,7.7-1.46
		c0.77,0.16,1.41,0.55,2.04,0.99c2.62,1.81,5.37,3.34,8.5,4.09c3.05,0.73,6.14,0.88,9.25,0.49c1.44-0.18,2.6-0.94,3.6-1.96
		c0.31-0.32,0.63-0.65,0.91-1c1.23-1.48,2.73-2.49,4.6-3.02c1.58-0.45,3.03-1.22,4.37-2.19c1.03-0.74,3.19-0.93,4.42,0.12
		c1.53,1.3,2.71,2.88,3.92,4.45c2.11,2.73,4.49,5.17,7.52,6.89c0.86,0.49,1.75,0.9,2.71,1.17c0.78,0.22,1.6,0.6,1.72,1.43
		c0.12,0.83-0.71,1.22-1.36,1.59c-1.68,0.96-3.57,1.31-5.43,1.71C129.63,203.65,126.46,203.89,122.98,203.92z"/>
	<path class="st1" d="M71.85,250.4c-2.46,0.04-4.49-0.73-6.44-1.72c-3.97-2.02-7.27-4.91-10.19-8.22
		c-6.32-7.16-10.29-15.58-13.06-24.63c-0.58-1.88-1.24-3.76-1.43-5.73c-0.45-4.63,0.88-8.65,4.51-11.7c1.46-1.22,3.3-1.73,5.2-1.74
		c1.72-0.01,2.72,1.16,2.81,2.89c0.49,9.3,1.95,18.44,4.98,27.28c0.7,2.04,1.58,4,2.82,5.78c0.32,0.46,0.67,0.91,1.12,1.26
		c0.99,0.76,1.81,0.57,2.31-0.58c0.65-1.48,1.26-2.97,1.9-4.45c0.35-0.82,0.84-1.54,1.51-2.13c0.8-0.71,1.31-0.57,1.58,0.46
		c1.02,3.81,2.07,7.61,3.24,11.37c0.82,2.63,1.61,5.27,2.73,7.79c0.11,0.24,0.19,0.5,0.27,0.76c0.54,1.86-0.15,2.93-2.06,3.17
		C72.99,250.33,72.32,250.43,71.85,250.4z"/>
	<path class="st1" d="M23.39,141.5c0.01,0.66-0.1,1.31-0.4,1.9c-1.13,2.22-1.08,4.53-0.71,6.91c0.9,5.75,2.09,11.44,3.04,17.18
		c0.32,1.93,0.5,3.89,0.32,5.85c-0.06,0.69-0.08,1.48-0.77,1.84c-0.67,0.35-1.17-0.26-1.68-0.58c-1.89-1.2-2.79-3-3.28-5.13
		c-1.13-4.87-2.69-9.62-3.93-14.45c-0.71-2.78-1.62-5.5-2.16-8.32c-0.51-2.65-0.56-5.33,0.32-7.93c0.68-2.01,1.91-2.99,3.68-3.01
		c2.57-0.03,4.26,0.98,4.99,3c0.2,0.57,0.36,1.15,0.5,1.74C23.38,140.82,23.37,141.17,23.39,141.5z"/>
	<path class="st1" d="M96.01,213.79c-2.31,0.31-4.85-0.64-7.1-2.49c-0.16-0.13-0.31-0.27-0.43-0.43c-0.46-0.64-0.24-1.28,0.54-1.39
		c1.18-0.17,2.37-0.24,3.55-0.38c4.11-0.46,8.23-0.51,12.35-0.41c3.49,0.09,6.97,0.32,10.45,0.65c0.65,0.06,1.3,0.12,1.95,0.16
		c0.2,0.01,0.4,0.04,0.59,0.13c0.3,0.13,0.63,0.27,0.63,0.62c0,0.32-0.34,0.47-0.6,0.57c-1.42,0.56-2.91,0.87-4.39,1.25
		c-3.75,0.97-7.59,1.16-11.43,1.36C100.29,213.53,98.47,213.65,96.01,213.79z"/>
	<path class="st1" d="M74.06,135.74c-0.87-0.13-1.8-0.29-2.73-0.41c-2.84-0.35-5.54,0.3-8.21,1.15c-2.23,0.71-4.32,1.75-6.43,2.73
		c-1.56,0.73-3.19,1.19-4.92,1.27c-0.48,0.02-0.88-0.14-1.25-0.41c-0.6-0.45-0.7-1.03-0.27-1.64c0.34-0.49,0.81-0.84,1.34-1.1
		c2.11-1.06,4.12-2.29,6.13-3.53c2.98-1.85,6.18-3.28,9.68-3.62c2.86-0.28,5.41,0.66,7.18,3.14c0.25,0.35,0.44,0.74,0.55,1.15
		C75.37,135.34,75.02,135.76,74.06,135.74z"/>
	<path class="st1" d="M150.96,142.54c-1.43-0.18-2.89-0.61-4.25-1.33c-1.77-0.94-3.43-2.06-4.94-3.38c-1.4-1.22-3.07-1.71-4.85-1.96
		c-2.75-0.39-5.42,0.17-8.08,0.74c-0.59,0.13-1.23,0.33-1.64-0.35c-0.3-0.5-0.06-1.09,0.65-1.67c2.21-1.79,4.76-2.93,7.53-3.39
		c2.38-0.4,4.56,0.44,6.54,1.78c1.34,0.9,2.41,2.1,3.63,3.14c2.06,1.75,4.05,3.58,6.49,4.81c0.3,0.15,0.67,0.36,0.61,0.73
		c-0.09,0.49-0.55,0.68-0.98,0.84C151.48,142.56,151.26,142.52,150.96,142.54z"/>
	<path class="st1" d="M149.38,129.25c2-0.02,4,0,5.95,0.53c3.02,0.82,4.28,4.11,2.62,6.8c-0.4,0.65-0.99,1-1.74,0.99
		c-0.71-0.01-1.45-0.06-2.09-0.42c-2.52-1.41-4.92-2.97-7.03-4.95c-0.49-0.46-0.94-0.97-1.25-1.58c-0.41-0.8-0.13-1.33,0.78-1.37
		C147.53,129.22,148.46,129.25,149.38,129.25z"/>
	<path class="st1" d="M50.58,129.23c0.51,0.03,0.94-0.04,1.36,0.13c0.85,0.35,1.07,1.13,0.49,1.84c-0.18,0.22-0.41,0.43-0.66,0.57
		c-3.22,1.68-6.18,3.76-9.15,5.84c-0.72,0.5-1.51,0.72-2.36,0.56c-1.32-0.24-2.07-1.59-1.54-2.99c0.99-2.64,2.64-4.63,5.6-5.19
		C46.42,129.57,48.54,129.37,50.58,129.23z"/>
	<path class="st1" d="M80.85,166.95c0.37,0.02,0.77,0.06,1.15,0.2c1.14,0.43,1.32,0.87,0.9,2.02c-0.89,2.42-1.08,4.85,0,7.28
		c0.3,0.68,0.41,1.42,0.39,2.17c-0.02,0.78-0.25,1.07-1.02,1.25c-1.05,0.24-1.98-0.09-2.76-0.74c-1.99-1.65-2.84-3.82-2.77-6.38
		c0.04-1.44,0.38-2.81,1.15-4.03C78.56,167.65,79.5,166.98,80.85,166.95z"/>
	<path class="st1" d="M37.36,126.98c-0.02,1.42-1.25,2.4-2.62,2.02c-1.34-0.37-2.64-0.85-4.06-0.86c-0.52,0-0.99-0.67-0.96-1.22
		c0.03-0.57,0.44-0.91,0.93-0.9c1.49,0.05,2.8-0.54,4.15-1.01C36.21,124.51,37.35,125.76,37.36,126.98z"/>
	<path class="st1" d="M166.93,125.03c0.55-0.01,1.05,0.2,1.55,0.41c0.86,0.36,1.73,0.59,2.67,0.56c0.89-0.03,1.4,0.34,1.43,0.91
		c0.04,0.69-0.49,1.24-1.34,1.28c-1.19,0.05-2.27,0.44-3.37,0.83c-1.71,0.61-3.2-0.68-2.85-2.43
		C165.19,125.66,166,125.01,166.93,125.03z"/>
</g>
</svg>
