<?xml version="1.0" encoding="utf-8"?>
<!-- Generator: Adobe Illustrator 27.9.0, SVG Export Plug-In . SVG Version: 6.00 Build 0)  -->
<svg version="1.1" id="Layer_1" xmlns="http://www.w3.org/2000/svg" xmlns:xlink="http://www.w3.org/1999/xlink" x="0px" y="0px"
	 viewBox="0 0 42 42" style="enable-background:new 0 0 42 42;" xml:space="preserve">
<style type="text/css">
	.st0{fill:#FFFCFF;}
</style>
<path class="st0" d="M41.19,13.39L22.43,2.76c-0.89-0.5-1.97-0.5-2.85,0L0.81,13.39c-0.37,0.21-0.22,0.78,0.21,0.78h1.52v25.77
	c0,0.4,0.32,0.72,0.72,0.72h10.24c0.4,0,0.72-0.32,0.72-0.72V27.29h12.84v12.65c0,0.4,0.32,0.72,0.72,0.72H38
	c0.4,0,0.72-0.32,0.72-0.72V14.17h2.26C41.42,14.17,41.57,13.6,41.19,13.39z M14.59,21.86h-1.82v-3.97h1.82V21.86z M21.91,21.86
	h-1.82v-3.97h1.82V21.86z M29.15,21.86h-1.82v-3.97h1.82V21.86z"/>
</svg>
