<?xml version="1.0" encoding="utf-8"?>
<!-- Generator: Adobe Illustrator 27.9.0, SVG Export Plug-In . SVG Version: 6.00 Build 0)  -->
<svg version="1.1" id="Layer_1" xmlns="http://www.w3.org/2000/svg" xmlns:xlink="http://www.w3.org/1999/xlink" x="0px" y="0px"
	 viewBox="0 0 42 42" style="enable-background:new 0 0 42 42;" xml:space="preserve">
<style type="text/css">
	.st0{fill:#FFFCFF;}
</style>
<g>
	<path class="st0" d="M30.39,18.88l-0.56,0.48c-0.43,0.37-1.07,0.37-1.5,0l-0.56-0.48c-1.1-0.95-2.73-0.95-3.83,0l-0.85,0.74
		c-0.43,0.37-1.07,0.37-1.5,0l-0.85-0.74c-1.1-0.95-2.73-0.95-3.83,0l-1.04,0.9c-0.43,0.37-1.07,0.37-1.5,0l-1.04-0.9
		c-1.1-0.95-2.73-0.95-3.83,0L7.65,20.5c-0.49,0.42-0.77,1.04-0.77,1.69v6.17V39.1c0,1.27,1.03,2.3,2.3,2.3h23.5
		c1.27,0,2.3-1.03,2.3-2.3V28.36v-7.78c0-0.65-0.28-1.26-0.77-1.69C33.12,17.93,31.49,17.93,30.39,18.88z M27.94,32.45
		c-1.09,1.09-2.5,1.67-3.94,1.74c0,0,0,0,0,0c-0.49,0.04-5.41,0.32-6.31,1.04c-0.91,0.73-0.66,1.65-0.81,2.34l0,0
		c-0.1,0.57-0.59,1-1.19,1c-0.67,0-1.21-0.54-1.21-1.21c0-0.02,0-0.03,0-0.04c-0.1,0.03-0.2,0.04-0.31,0.04
		c-0.67,0-1.21-0.54-1.21-1.21c0-0.67,0.54-1.21,1.21-1.21c0,0,0.71,0,2.12-1.34c1.56-1.48,1.4-5.4,1.4-5.4
		c0-1.54,0.59-3.08,1.76-4.25c2.35-2.35,5.22-3.28,8.5,0C30.98,26.98,30.29,30.1,27.94,32.45z"/>
	<path class="st0" d="M27.72,26.05c-0.13,0.02-0.23,0.13-0.21,0.27c0,0.02,0.19,1.81-1.1,2.82c-0.11,0.08-0.12,0.23-0.04,0.34
		c0.05,0.06,0.12,0.09,0.19,0.09c0.05,0,0.1-0.02,0.15-0.05c1.52-1.17,1.3-3.17,1.29-3.26C27.97,26.13,27.85,26.03,27.72,26.05z"/>
	<path class="st0" d="M25.53,29.85c-0.01,0-0.48,0.41-0.93,0.14c-0.11-0.07-0.26-0.03-0.33,0.09c-0.07,0.11-0.03,0.26,0.09,0.33
		c0.2,0.11,0.39,0.16,0.57,0.16c0.5,0,0.9-0.33,0.92-0.35c0.1-0.09,0.11-0.24,0.03-0.34C25.79,29.77,25.63,29.76,25.53,29.85z"/>
	<path class="st0" d="M40.62,16.92L38.93,9.7c-0.18-0.75-0.78-1.33-1.54-1.47L29.16,6.7c0.04-0.17,0.06-0.34,0.06-0.52V3.42
		c0-1.29-1.04-2.33-2.33-2.33h-12.7c-1.29,0-2.33,1.04-2.33,2.33v2.76c0,0.23,0.04,0.44,0.1,0.65l-7.54,1.4
		C3.66,8.37,3.05,8.94,2.88,9.7l-1.69,7.22c-0.29,1.22,0.64,2.39,1.89,2.39h1.63c1.14,0,2.23-0.41,3.09-1.16
		c0.34-0.29,0.61-0.53,0.61-0.53c0.21-0.18,0.43-0.36,0.68-0.5c1.82-1.04,3.93-0.75,5.36,0.5l0.25,0.22c0.25,0.22,0.62,0.22,0.87,0
		l0.18-0.16c0.33-0.28,0.68-0.54,1.07-0.73c1.74-0.82,3.69-0.5,5.03,0.67l0.07,0.06c0.25,0.22,0.62,0.22,0.87,0
		c0.33-0.28,0.73-0.54,1.08-0.79c1.94-1.42,3.74-0.39,4.63,0.35c0.36,0.3,0.88,0.33,1.26,0.05c0.19-0.14,0.39-0.27,0.53-0.33
		c1.74-0.82,3.69-0.5,5.03,0.67c0.43,0.37,0.76,0.82,0.99,1.33c0.1,0.23,0.34,0.37,0.59,0.37h1.83
		C39.98,19.31,40.91,18.14,40.62,16.92z"/>
</g>
</svg>
