<?xml version="1.0" encoding="utf-8"?>
<!-- Generator: Adobe Illustrator 27.9.0, SVG Export Plug-In . SVG Version: 6.00 Build 0)  -->
<svg version="1.1" id="Layer_1" xmlns="http://www.w3.org/2000/svg" xmlns:xlink="http://www.w3.org/1999/xlink" x="0px" y="0px"
	 viewBox="0 0 42 42" style="enable-background:new 0 0 42 42;" xml:space="preserve">
<style type="text/css">
	.st0{fill:#FFFBFF;}
</style>
<path class="st0" d="M40.2,38.4h-1.7v-0.4c0-9.5-7.5-17.2-17-17.5v-0.4c0.5-0.1,0.8-0.4,0.8-0.8c0-0.5-0.6-0.9-1.4-0.9
	s-1.4,0.4-1.4,0.9c0,0.4,0.4,0.7,0.8,0.8v0.4c-9.4,0.3-17,8-17,17.5v0.4H1.8c-0.8,0-1.5,0.7-1.5,1.5s0.7,1.5,1.5,1.5h38.5
	c0.8,0,1.5-0.7,1.5-1.5C41.7,39.1,41,38.4,40.2,38.4z M30.2,34.3c0,0,0.7-7.4-5.9-10.8c0,0,9,1.9,9.5,10.8H30.2z"/>
</svg>
