<?xml version="1.0" encoding="utf-8"?>
<!-- Generator: Adobe Illustrator 27.9.0, SVG Export Plug-In . SVG Version: 6.00 Build 0)  -->
<svg version="1.1" id="Layer_1" xmlns="http://www.w3.org/2000/svg" xmlns:xlink="http://www.w3.org/1999/xlink" x="0px" y="0px"
	 viewBox="0 0 42 42" style="enable-background:new 0 0 42 42;" xml:space="preserve">
<style type="text/css">
	.st0{fill:#FBFEF9;}
</style>
<path class="st0" d="M34.83,7.31c-7.37-7.37-13.84-5.28-19.12,0c-2.64,2.64-3.96,6.1-3.96,9.56c0,0,0.37,8.83-3.14,12.15
	c-3.17,3-4.78,3-4.78,3c-1.51,0-2.73,1.22-2.73,2.73c0,1.51,1.22,2.73,2.73,2.73c0.24,0,0.47-0.04,0.69-0.1
	c0,0.03-0.01,0.07-0.01,0.1c0,1.51,1.22,2.73,2.73,2.73c1.35,0,2.46-0.97,2.68-2.26l0.01,0c0.33-1.53-0.21-3.62,1.83-5.26
	c2.04-1.64,13.1-2.25,14.2-2.35c0,0,0.01,0,0.01,0c3.22-0.17,6.39-1.47,8.85-3.93C40.11,21.15,41.66,14.14,34.83,7.31z M18.72,15.41
	c-0.53,0-0.96-0.43-0.96-0.96c0-0.53,0.43-0.96,0.96-0.96s0.96,0.43,0.96,0.96C19.68,14.98,19.25,15.41,18.72,15.41z M19.68,10.06
	c-0.53,0-0.96-0.43-0.96-0.96s0.43-0.96,0.96-0.96s0.96,0.43,0.96,0.96S20.2,10.06,19.68,10.06z M23.78,19.52
	c-0.37,0.37-0.98,0.37-1.35,0c-0.37-0.37-0.37-0.98,0-1.35c0.37-0.37,0.98-0.37,1.35,0C24.16,18.54,24.16,19.14,23.78,19.52z
	 M24.21,14.7c-0.53,0-0.96-0.43-0.96-0.96s0.43-0.96,0.96-0.96s0.96,0.43,0.96,0.96S24.73,14.7,24.21,14.7z M24.21,10.06
	c-0.53,0-0.96-0.43-0.96-0.96s0.43-0.96,0.96-0.96s0.96,0.43,0.96,0.96S24.73,10.06,24.21,10.06z M27.45,24.08
	c-0.52,0.09-1.01-0.27-1.1-0.79c-0.09-0.52,0.27-1.01,0.79-1.1c0.52-0.09,1.01,0.27,1.1,0.79C28.33,23.51,27.97,24,27.45,24.08z
	 M28.23,18.8c-0.53,0-0.96-0.43-0.96-0.96s0.43-0.96,0.96-0.96s0.96,0.43,0.96,0.96S28.76,18.8,28.23,18.8z M28.78,14.16
	c-0.53,0-0.96-0.43-0.96-0.96s0.43-0.96,0.96-0.96c0.53,0,0.96,0.43,0.96,0.96S29.31,14.16,28.78,14.16z M28.78,9.51
	c-0.53,0-0.96-0.43-0.96-0.96s0.43-0.96,0.96-0.96c0.53,0,0.96,0.43,0.96,0.96S29.31,9.51,28.78,9.51z M32.42,23.27
	c-0.52,0.09-1.01-0.27-1.1-0.79c-0.09-0.52,0.27-1.01,0.79-1.1c0.52-0.09,1.01,0.27,1.1,0.79C33.29,22.7,32.94,23.19,32.42,23.27z
	 M32.88,18.46c-0.53,0-0.96-0.43-0.96-0.96s0.43-0.96,0.96-0.96c0.53,0,0.96,0.43,0.96,0.96S33.4,18.46,32.88,18.46z M33.22,14.16
	c-0.53,0-0.96-0.43-0.96-0.96s0.43-0.96,0.96-0.96c0.53,0,0.96,0.43,0.96,0.96S33.75,14.16,33.22,14.16z"/>
</svg>
