<?xml version="1.0" encoding="utf-8"?>
<!-- Generator: Adobe Illustrator 27.9.0, SVG Export Plug-In . SVG Version: 6.00 Build 0)  -->
<svg version="1.1" id="Layer_1" xmlns="http://www.w3.org/2000/svg" xmlns:xlink="http://www.w3.org/1999/xlink" x="0px" y="0px"
	 viewBox="0 0 407.3 143.7" style="enable-background:new 0 0 407.3 143.7;" xml:space="preserve">
<style type="text/css">
	.st0{fill-rule:evenodd;clip-rule:evenodd;fill:#121009;}
</style>
<g id="surface1">
	<path class="st0" d="M86.2,3.9c6.3,0.5,14.1,3.4,14.1,9.7c0,9.5-8.7,17.4-8.7,28.1c0,4.5,4.8,10.8,8.7,10.8
		c7.1,1.5,19.1-3.3,24.9-17.3c-4.8,1.1-9.9,16.1-23.8,15.2c-5.2,0-4.3-5.5-4.1-8.9c0-5,7.4-15.1,7.4-22.5c0-13.5-8.9-17.3-22.7-17.3
		C53,1.7,24.5,29.3,24.5,58c0,11,9.6,21.7,20.6,21.7c9.4,1.2,28.1-3.6,35.7-19.5c-2.8,1.1-6.4,5.9-11.7,10.2
		c-6.3,5.2-12.7,7.1-20.8,7.1c-11.7,0-21.7-8.5-21.7-19.5C26.6,28.3,56.1,3.9,86.2,3.9z M265.3,125.1c2.8-11.8,18.9-32.1,30.5-38.2
		c2.8-1.5,9.1-3.9,9.1,1.5v2.2c0,9.6-17.6,32.1-29.4,40.9C268.2,136.9,263.1,134.3,265.3,125.1z M381.2,93.8
		c-3.7,6.6-12.4,17.6-15.6,25.5c-2.4,5.9-0.9,14.6,5.9,16.4c8.9,2.4,16.4-7.1,21.5-12.9c6.2-7,12.9-17.3,12.7-18.2
		c-1.2-1.2-6.7,7.3-11.7,14c-3.8,5.1-8.3,10.5-12.5,13.5c-3.2,2.3-5.4,3.5-7.7,1.5c-2.6-2.2-1.1-4.2,0.2-7
		c4-8.4,12.1-18.2,14.7-25.6c3.1-8.7-2.4-22.2-13.9-17c-7.1,3.2-13.5,12.7-17.6,17.4c0.9-4.7,2.9-8.3,1.8-13.2
		c-1.8-7.7-11.6-3.9-16,0.7c-11.7,12.2-28.3,38.1-38.3,43.9c-7,4-6.6-4.5-5.2-8.5c4.1-11.1,20.7-32,22.9-40.3h-11.9l-2.9,5.6
		c-0.7-7.2-5.1-7.6-10.9-6.2c-10.4,2.4-25.6,13.2-30.3,18.2c-9.3,9.8-14.3,20.7-23.8,28.5c-2.8,2.3-12.2,8.4-12.2,0.5
		c0-6.3,21.9-38.9,26-46.6h-13c-1.9,8-23.4,39.1-34.9,48.6c-5,4.1-10.1,2.8-7.7-4.1c3.8-10.8,20.5-38,24.4-44.2
		c4.3-6.9,25.5-40.8,26.8-45.7l-5.4,1.1c0.5-6,2.7-12.8-0.7-18.4c-6-9.9-25.9-10.6-35.5-7.4c-14.9,4.9-34,22.8-41.5,30.4
		c-6.8,6.8-13.5,13.1-21.1,18.9c-14.8,11.3-20,5.7-27.2,6.7c-3.4,0.5-5.7,3.4-0.7,3.4h10.8c0.9,3.8,2.2,3.6,2.2,7.6
		c0,15-12.5,30.6-6,46c5.8,13.6,25.6,20.7,36.3,7c1.5,0.8,5.8,3.2,7.6,3.2c8.4,0,16.9-13.4,22.7-17.3c0,9.4,0.1,17.3,9.7,17.3
		c6.9,0,16.1-14.3,20.6-17.3c-0.7,2.9-1.1,2-1.1,4.3c0,7,4.4,13,10.8,13c8,0,18.6-14.6,23.6-19.7c0.2,6.4,0.7,13.5,4.7,16.2
		c13.1,8.8,25.1-10.5,28-12.7c0,5.1,1,11.2,4.1,13.9c2.9,2.5,8.9,1.3,11.9-0.4c6.5-3.8,14-13,18.5-18.8c6.3-8.1,11.5-16.9,18.7-24.3
		c4.8-5,12.6-9.4,7.4,3.1c-2.6,6.1-7.9,13.5-9.4,16.1c-3.2,5.6-14.3,21.1-15.5,25.6h13c0.6-7.3,14.2-24.6,23.4-36.5
		c3-3.9,7.7-11.2,13-13.6C382.2,82.5,384.1,88.5,381.2,93.8z M133.5,42.6c6.8-8.9,18.5-15.2,24.1-20.3h-4.3
		c-17.7,11.9-17.4,10.6-32.2,26.2c-8.1,8.6-17.2,24.1-23.9,34.6C85.7,101.4,69,129.3,42.8,135C25.9,138.6,5,136.9,5,114.3
		c1.4,4.1,1.4,7.6,6.5,7.6c5,0,6.5-5.9,6.5-9.7c0-2.5-2.5-5.7-5-5.7c-6.1,0-11.2,3.5-11.2,11.1c0,20,23.3,23.6,38.6,21.1
		c39.9-6.4,54.9-34.1,73.5-64.8C120.1,63.6,126,52.5,133.5,42.6z M250.8,71c0.5,2.4-0.1,4.3,3.2,4.3c5.1,0,9.7-2.8,9.7-8.7
		c0.5-4.4-2.1-4.3-5.4-4.3C254.8,62.4,250.8,66.4,250.8,71z M188,71c0,2.6,0.1,4.3,3.2,4.3c5.5,0,9.7-2.6,9.7-8.7
		c0-2.6,0-4.3-3.2-4.3C192.6,62.4,188,65.2,188,71z M217.2,60.2l11.9-3.2c-2.8,11.9-44.9,78-57.4,78c-2.5,0-4.3-1.8-4.3-4.3
		c0-8.8,23.6-37.6,26-46.6h-13c-2.4,10.1-20.6,31-20.6,41.1c0,3.3,0.1,4.1,1.2,6.3c-8.2,12.2-27.2,10.1-27.2-7.3
		c0-9,5.5-21.8,6.4-31.2c0.8-8.7-1.5-15.9-7.5-20.7c30.8,0,49.9-41.5,77.7-54c8.8-3.9,27.5-6,32.3,4.6
		C252.3,43.7,223.9,52.6,217.2,60.2z"/>
</g>
</svg>
