<?xml version="1.0" encoding="utf-8"?>
<!-- Generator: Adobe Illustrator 27.9.0, SVG Export Plug-In . SVG Version: 6.00 Build 0)  -->
<svg version="1.1" id="Layer_1" xmlns="http://www.w3.org/2000/svg" xmlns:xlink="http://www.w3.org/1999/xlink" x="0px" y="0px"
	 viewBox="0 0 121 32.8" style="enable-background:new 0 0 121 32.8;" xml:space="preserve">
<style type="text/css">
	.st0{fill:#DDC5A8;}
</style>
<g>
	<path class="st0" d="M42.8,20.5c-0.8-0.2-1.9-0.6-2.4-0.9c-2.1-1.4-2.8-3.1-2.8-5.7c0.1-4.3,3.7-8.5,10.7-8.5s10.3,6.8,10.3,12
		s-4.8,12.4-11,12.4H33.9c-0.4,0-0.9-0.2-1.1-0.6c-0.5-0.9-2.5-2.9-4.7-3.8c0,0,2,0.2,2.9,0.3c1.3,0.1,2.5,0.2,3.8,0.2
		c2.9,0,5.7-0.2,8.5-0.7c2.5-0.4,5-1.1,7-2.8c1.4-1.2,2.2-2.9,2.2-4.8c0-3.9-1.1-5.9-5.4-5.9c-1.4,0-3,0.6-3.8,1.8
		c-0.9,1.4-0.4,3,0.3,4.3c0.2,0.5,0.4,1.1,0.5,1.6c0.1,0.6,0.2,0.5,0.2,1.1C44.3,20.9,43.2,20.6,42.8,20.5z"/>
	<path class="st0" d="M29.5,29.8c0,0-4.4-3.4-5.7-3.9c-1.4-0.5-1-0.8-5.1-0.3C14.6,26,4.7,27.1,3,26.2c0,0,6.9,2.5,12,1.4
		s6.7-0.8,8.5,0.6C25.4,29.5,29.5,29.8,29.5,29.8z"/>
</g>
<g>
	<path class="st0" d="M78.6,20.5c0.8-0.2,1.9-0.6,2.4-0.9c2.1-1.4,2.8-3.1,2.8-5.7C83.6,9.6,80,5.4,73,5.4s-10.3,6.8-10.3,12
		s4.8,12.4,11,12.4h13.8c0.4,0,0.9-0.2,1.1-0.6c0.5-0.9,2.5-2.9,4.7-3.8c0,0-2,0.2-2.9,0.3c-1.3,0.1-2.5,0.2-3.8,0.2
		c-2.9,0-5.7-0.2-8.5-0.7c-2.5-0.4-5-1.1-7-2.8c-1.4-1.2-2.2-2.9-2.2-4.8c0-3.9,1.1-5.9,5.4-5.9c1.4,0,3,0.6,3.8,1.8
		c0.9,1.4,0.4,3-0.3,4.3c-0.2,0.5-0.4,1.1-0.5,1.6C77.2,20,77,20,77,20.6C77.1,20.9,78.2,20.6,78.6,20.5z"/>
	<path class="st0" d="M91.8,29.8c0,0,4.4-3.4,5.7-3.9c1.4-0.5,1-0.8,5.1-0.3s14,1.6,15.7,0.6c0,0-6.9,2.5-12,1.4s-6.7-0.8-8.5,0.6
		C96,29.5,91.8,29.8,91.8,29.8z"/>
</g>
</svg>
