<?xml version="1.0" encoding="utf-8"?>
<!-- Generator: Adobe Illustrator 27.9.0, SVG Export Plug-In . SVG Version: 6.00 Build 0)  -->
<svg version="1.1" id="Layer_1" xmlns="http://www.w3.org/2000/svg" xmlns:xlink="http://www.w3.org/1999/xlink" x="0px" y="0px"
	 viewBox="0 0 41.2 6" style="enable-background:new 0 0 41.2 6;" xml:space="preserve">
<style type="text/css">
	.st0{fill:#FFFFFF;}
	.st1{fill:#E2E2E2;}
</style>
<path d="M78.6,3.5C78.6,3.5,78.7,3.5,78.6,3.5C78.6,2.9,78.6,3.5,78.6,3.5z"/>
<g>
	<path class="st0" d="M32.6,5.3c-0.5,0.2,0.6,0,0.7,0c0.1,0,0.2-0.2,0.1-0.1C33.3,5.2,32.6,5.3,32.6,5.3z"/>
	<path class="st0" d="M39.6,1.9c0,0-1.8-0.2-2.1-0.1c-0.4,0.1,0.4,0,1.1,0.1S40.3,2,39.6,1.9z"/>
	<path class="st0" d="M37.3,1.2c-0.2-0.1-1.5-0.1-1.2,0c0,0,0.2,0.1,0.6,0.1C37.1,1.3,37.4,1.4,37.3,1.2z"/>
	<path class="st0" d="M34.4,0.8c0.6-0.1-3.8-0.2-2.8,0C31.6,0.8,33.8,0.9,34.4,0.8z"/>
	<path class="st0" d="M26.6,5.2c3.3,0.6,3,0.1,4.6,0c0.5-0.2,1.1-0.3,1.6-0.4c0.7-0.1,1.7,0,2.4,0.1c0-0.1,0-0.1,0-0.2
		c1.8,0-0.8-0.5,1.2-0.6c1.2,0,2-0.2,1.9-0.4c0-0.2,1.8-0.1,1.8-0.1c-0.7-0.1-0.2-0.4,0.4-0.5c0.2,0,0.2-0.1,0.1-0.1
		c-0.3-0.1-1.1-0.2-1.6-0.2c-0.9,0-1-0.2-1.6-0.2c-0.1,0-0.1,0-0.1,0c-0.1,0-0.2,0-0.3,0c0,0-4.2,0.2-4.6,0c-0.3-0.2,4,0,4.2-0.1
		c0.1-0.5-1.2-0.8-1.4-1.2c0-0.1,0-0.1,0-0.2c-0.7,0.1-1.7,0.2-2.4,0.1c-0.5-0.1-1.5,0-2-0.2c-1.6-0.2-2.7-0.1-4-0.3
		c0.7-0.2-1.1-0.2-1.8-0.2L1.9,0.6L1.2,0.7C1.1,0.8,1.5,0.9,1.7,0.9c0.1,0.1-0.4,0-0.3,0C1.2,0.9,1.1,0.9,1,1L0.8,1.1
		c-0.1,0.1,1.1,0,1.2,0c0,0,0.1,0.1,0.1,0S2,1,2,1c0.4-0.1,0.5,0.2-0.2,0.2c-1,0.3-0.7,0.5,0.3,0.5c0,0,0.3,0,0.4,0s0.1,0.2,0.1,0.2
		C2.4,2.1,1.5,2,1.3,2.2c0.2,0,0.4,0,0.6,0c-0.1,0-0.2,0-0.3,0c0,0.1-0.1,0.1-0.1,0.1c0.3,0,0.5,0,0.9,0C2,2.5,2.3,2.7,2.1,2.9
		C2,3,2,3,2,3C1.8,3.2,1.3,3.5,1.6,3.6l0,0c0,0.1,0,0.1,0.1,0.1S1.9,3.8,2,3.8c-0.2,0-0.4,0-0.6,0C1.5,4,1.9,4.1,1.8,4.3
		C1.6,4.4,3.1,4.8,2,5C1.2,5.1,3.2,5.4,3.7,5.4l2.1,0.1L26.6,5.2z"/>
</g>
<path class="st1" d="M26.5,5.6c-0.2-0.1-1.5-0.1-1.2,0c0,0,0.2,0.1,0.6,0.1C26.4,5.7,26.6,5.8,26.5,5.6z"/>
</svg>
