<?xml version="1.0" encoding="utf-8"?>
<!-- Generator: Adobe Illustrator 27.9.0, SVG Export Plug-In . SVG Version: 6.00 Build 0)  -->
<svg version="1.1" id="Layer_1" xmlns="http://www.w3.org/2000/svg" xmlns:xlink="http://www.w3.org/1999/xlink" x="0px" y="0px"
	 viewBox="0 0 200 200" style="enable-background:new 0 0 200 200;" xml:space="preserve">
<path d="M182.8,82.4c-1.3-2.8-17.4-16-19.3-17.4c-1.9-1.4-5.9-11.3-12.5-14.4c-6.6-3.2-7.8-5.8-8.3-7.4c-0.5-1.6,4.8-6,10-8.4
	s22-11.2,15-17.1S150.1,29,147,30.5c-3.1,1.5-1.7-0.8-0.9-3.6c0.9-2.8-5.2-9.7-10.6-10.5c-5.4-0.8-9,5.2-9,5.2
	c-4.9-0.3-5.4,7.3-5.4,7.3c-1.7,0.7-1.5,5.2-1.5,5.2c-7.4-1.6-10,2.5-10.9,4.1s-4.4,4.3-7.3,7.4c-2.8,3.2-1.7,5.5-3.8,6.8
	c-2.1,1.4-3.2,8.5-3.2,10.4s-0.9,2.7-0.9,2.7s-5.8,5.5-8.4,9.6s-1.7,9.1-1.7,9.1s-42.3,32.7-42.9,34.3c-0.6,1.6-0.3,2.1-3.8,2.5
	c-3.5,0.3-7.1,3.4-9,5.7c-2,2.3,0.9,3.1-2.9,4.1s-15.6,6.8-17.6,10.6s0.9,6.8,0.9,6.8c7,4.2,13.2-4.6,18-8.6s1.6-7.3,4.7-7.3
	c3.1,0.1,7-4,8.4-5.9c1.4-1.9,0.7-5.2,2.7-5s3.9-0.6,3.9-0.6s41.4-33.7,41.9-33.5c0.5,0.1-2.3,3.7,0.5,3.2s10.2-9.6,10.2-11.4
	s2.4-4.1,3.7-4.4c1.3-0.3,2.4-2.7,3.1-2.7c0.6,0,2.8,4.9,1.3,7.6s-1.7,10-1.9,13.2c-0.3,3.2,0.1,5.9-5.6,9.7
	c-5.8,3.8-12.9,14.3-17.7,17.9c-4.7,3.6-8.2,7.2-8.7,9.9s1.8,5.8,2.4,7.4c0.6,1.7-0.6,1.5-0.6,1.5c-0.5,0.1-0.9,0.4-1.4,0.8
	c-2,5.6,0.6,12,5.1,15.7c0.7,0.6,1.5,1.1,2.2,1.7c0.6,0.5-0.1,1.5-0.7,1c-4.6-2.5-8.1-6.9-9.3-11.8c-0.1,0.4-0.1,0.9-0.1,1.3
	c0,0.8,0,1.9-0.1,3.1c1,2.6,2.7,5,4.8,6.8c0.6,0.5-0.2,1.5-0.8,1c-1.6-1.2-3-2.6-4.1-4.2c-0.2,4.1-0.5,9.1-1.3,13.5
	c-0.1,0.4-0.1,0.7-0.2,1l0,0c0,0-3.5,15-2.1,18.1s12.3-5.5,12.3-5.5l2.5-10c2.3-4.8,0.1-10.8,3.5-12.5c4.7-2.3,4.9-9.9,6.5-11.5
	c1.7-1.7,2.4,0.5,5.5,0.3c3.1-0.3,3.8-6.3,5.6-7.3c1.8-1,1.7,1.4,1.5,3.3c-0.1,1.9-1.3,4.6,2.8,5.4c4.1,0.8,2.2-8.3,2.9-13.3
	c0.8-5,1.7-5.9,4.1-7c2.4-1.2,2.2,0.8,2.2,2.8s1.8,1.2,1.8,1.2c10.5-4.6,4.5-7.4,9.6-7.6c5.1-0.1,6.1,7.3,8.4,11.5
	c2.3,4.2,6.3,6.1,10,5.4c3.7-0.8,3.2,0.6,3.2,0.6c0.7,4.7,2,8.6,3.5,11.9c3.6-1.1,9.1-3,10.1-5.1c1.4-3.1,2.2,1.3-0.8,2.9
	c-1.9,1.1-4.7,4.4-5.9,8.1c1.4,1.9,2.6,3.3,3.4,4c1.3,1.2,3,5.6,4.2,9c1.9,6.5,1.8,13.5,1.8,14.9s8.2-3.8,8.2-3.8l-0.9-18.1
	c-0.2-7-1.2-18.7-1.5-21.5c-0.3-3.6-4.4-9.3-4.8-11.7c-0.4-2.3,1.7-4,1.7-7.7s-5.9-8.1-7-8.6c-1.2-0.5-2.9-2.9-2.9-5.4
	s2.8-4.4,4.5-3.8c1.7,0.5-0.6,3.8,0.9,4.2c1.5,0.4,0.3-1.5,2.3-2.4s1.8,0.5,1.8,1.2c0,0.6-0.5,4.4,0.9,4.4s-0.4-3.2,1.6-3.6
	s2.1,2.2,1.2,3.2c-0.9,1-2.2,2.6,0,3.2s3.3-6.1,3.3-6.1s1.7-1.2,1.8-3.3c0.1-2.2,1.4-7.4,2.2-10.5s5-7.7,5.6-10.5
	C184.8,85.3,182.8,82.4,182.8,82.4z M168.4,97.5c-1.9,1.7-2.1,5.2-3,5.6s-1.3,1.2-4,2.2s-4.7,2.6-4.9,4.7s-0.3,0.9-2,1.1
	c-1.8,0.3-9.2-6.8-10.2-8.5s-0.3-15.6,0-17.8c0.3-2.1,1.7-2.9,1.4-3.4s-0.4-0.1-0.9-2.2c-0.2-0.8,0.4-1.6,1.1-2.3
	c1.4-1.3,3.5-1.8,5.3-1.3C166.2,79.8,170.1,95.9,168.4,97.5z"/>
</svg>
