<?xml version="1.0" encoding="utf-8"?>
<!-- Generator: Adobe Illustrator 27.9.0, SVG Export Plug-In . SVG Version: 6.00 Build 0)  -->
<svg version="1.1" id="Layer_1" xmlns="http://www.w3.org/2000/svg" xmlns:xlink="http://www.w3.org/1999/xlink" x="0px" y="0px"
	 viewBox="0 0 200 200" style="enable-background:new 0 0 200 200;" xml:space="preserve">
<path d="M175.6,91.6c-2.3-4.7-5.3-8.5-8.1-9.4c3.8-21.6-9.1-45.1-23.5-45.3c0,0,17.6,2.8,15.1,32.8s-25.1,35.6-24.1,23.3
	c0.3-1.6,0.8-3.1,1.5-3.9c6.4-8.1,6.9-14.8,5.3-21.1c-0.9-3.4-2.9-6.8-4.9-9.7c-2.3-3.2-5.7-5.3-8.4-8.1c-6.1-6.1,4.1-5.3,5.5-3.4
	c0,0,2.6-1.2,1.4-8S122,13.2,111.1,8.3c-11.1-5-27.5-2.4-29.2,3.1c0,0,15.3-5.9,24.7,6.1c9.5,12,3.4,18.9,8.8,23.2
	c0.9,0.7,4,1.7,6.9,2.7c1.7,1,2.8,2.5,2.9,5.8c0,1.3,0,2.7-0.2,4.2c-0.7,6.7-3.5,13.1-8.4,17.7c-3,2.8-6.8,5.1-11.3,5.3
	c-2.4,0.1-4.5,0-6.3-0.2c-3.7-0.5-6.3-3.9-6.2-7.6c0.1-2.3,0.6-4.9,2.4-6.4c3.8-3.2,4-19.3-5-18.9c0,0-1.1,0.2-1.6-0.9
	c-0.5-1-18-19.1-34.6-4.5c0,0,9.1-3.6,14,5.5c4.9,9.1,6,14.5,9.8,12.3c3.8-2.2,5.8-6.3,9-5.7c3.1,0.5,4.7,3.8,4,7.4
	c-0.1,0.8-0.4,1.8-0.8,2.8c-2.8,8-8.3,14.2-14.6,19.8c-3.2,2.8-6.6,5.3-10.2,7.5c-3.7,2.2-7.6,4.6-10.9,7.4c-0.6,0.5-1.1,1-1.6,1.6
	c-1.2,1.4-1.8,3.6-2,5.4c-0.3,1.8-0.3,3.5-0.6,5.3c-0.7,3.8-1.4,4.6-1.5,4.7c-1.2,0.8-2.8,1.4-4.9,1.3c-3-0.2-5.6-2.1-7-4.8
	c-1.3-2.4-3.2-6.5-5.7-12.9c-4.6-12.1,4-23.8,4-23.8c-15.4,10.5-14.1,31.3-11.9,37c1.8,4.5,6.8,7.7,10.8,5c2.9-2,3.7-0.3,3.1,3.8
	c-0.8,5-8.3,6.8-3.6,20.4c5.2,14.9,20.7,14.8,32.6,25s15.7,17.7,16.8,22c1.3,4.7,3.9,9.7,3.9,9.7c1.5-6.4,3.8-11.1,3.8-11.1
	s-0.1,0-0.3-0.2l0.3,0.2c0.1-0.1,6.5-10.6,15.7-10.6c10.4,0,17.9-7.2,17.9-17.1c0-11.2,5-17.1,14.8-17.8c10-0.6,28.2-4.7,36.8-24.8
	C179.8,103.7,177.9,96.2,175.6,91.6z M43.9,118.7c-1.4,0.1-1.7-2.7-3.1-4.6c0.9,0.2,2.7,1.3,3.5,1.3c1.4,0,2.6-0.3,3.6-0.7
	C47.3,119.3,45.7,118.6,43.9,118.7z M137.3,103.1c3.6,0.4,5.6-0.3,6.5,1c0.7,0.9,11.2,2,18.3-8c0,0,0.8-0.9,2.6-0.1
	c2.1,1.8,4.4,4.7,4,9c-0.5,5.5-7.3,16.1-18.4,18.3c-4.6,0.9-7.5,0.7-10.1,0.5c-3.6-0.3-6.7-0.6-12.7,2.6c-3.6,1.9-6.6,4.7-9,8
	c-1.8,2.4-3.2,5-4.4,7.7c-0.9,2.2-1.8,4.5-3,6.5c-1.2,2-2.6,4-4.3,5.7c-2.1,2.1-5,2.1-7.8,2.4c-0.6,0-1.2-0.1-1.5-0.7
	c-0.1-0.3-0.1-0.6-0.1-0.9c0.2-2.2,0.5-4.4,0.2-6.6c-0.3-2.8-1-5.5-2.5-7.9c-0.6-1-1.4-1.9-2.3-2.6c-0.8-0.6-2.3-1.6-3.3-1.5
	c3.6-0.4,8.1-1.7,11-5.7c3.3-4.6,3.8-8.5,4.2-11.5c0.2-1.7,1.2-3.2,1.8-4.5c0.5-1.2,3.3-3.4,7-5.7c4.1-2.6,9.1-5.7,13.6-9.4
	c0,0,4.3-1.8,5.2-0.7C133.4,99.9,133.6,102.7,137.3,103.1z M78.7,137c-1.5,1.9-2.2,4.4-2.4,6.8c-1.6,1-5.1,2.3-11.6,1
	c-9.4-1.9-11.6-14.1-11.6-14.1c-2.3-9.4,1-12.7,1.3-23.9c0.2-9.1,3.9-11.1,11.2-16.1c2.1-1.4,4.4-3,6.9-4.8
	c7.7-5.7,15.2-13.2,18.3-17.2c0.2,2.3,1.9,4.9,3.7,6.6c1.7,1.7,4.5,2.9,11.4,2.6c9.7-0.4,15.9-8.3,19-13.5c0.8-1.3,1.9-2.5,3.4-3
	c1.3-0.4,2.8-0.1,4.1,0.1c5,0.8,7.2,10.5,6.9,13.5c-1.2,16.4-19.3,27.5-26.6,32c-5.2,3.2-7.9,5-8.7,6.7c-0.7,1.6-1,3.3-1.2,5.1
	c-0.4,3-0.3,6.8-3.3,11c-1.7,2.4-4.9,3.4-7.8,4c-2.6,0.6-5.2-0.4-7.8-0.1C81.7,133.9,79.9,135.3,78.7,137z M85.8,161.8
	c-2.5,0.1,0.1-3.8,0.1-8.8c0-1.7-0.9-3.2-1.9-4.4c-0.5-0.7-1.1-1.3-1.7-1.8c-0.7-0.6-1.5-1.1-2-2c-1.3-2.6,0-5.7,2.7-6.6
	c4.6-1.5,8.7,1.6,10.7,5.5c0.5,0.9,0.7,1.9,0.8,2.9c0.5,9.5,1.7,8.2-3.7,12.3C89.4,159.8,87.4,161.7,85.8,161.8z M173.8,112.1
	c-8.2,19-25.4,22.9-34.9,23.5c-11,0.7-16.8,7.6-16.8,20c0,8.6-6.6,14.9-15.7,14.9c-6.9,0-11.9,4-16.1,9c-0.7,0.8-1.7,0.3-1.8-0.7
	c-0.3-2.9,0.6-5.3,2.4-7.6c2.6-3.3,6.4-5.5,10-7.2c2-1,4.2-1.6,6.3-2.2c3.4-0.9,6.4-3,7.5-6.1c1-3,0.7-6.5,1.1-9.6
	c0.8-6.5,5.2-12.5,10.5-16.4c0.8-0.6,1.6-1.1,2.4-1.5c5.4-2.9,7.9-2.7,11.4-2.4c2.7,0.2,5.7,0.5,10.7-0.5
	c12.4-2.5,19.6-14.1,20.2-20.3c0.5-5.7-2.3-10.2-5-12.5l0,0c-1.2-1-0.5-2.5-0.5-2.5c0.5-1.2,0.9-2.6,1.3-4.1l0,0c0,0,1-0.4,3.8,1.6
	c1.1,1.4,2.3,3,3.2,4.9C175.7,96.8,177.5,103.6,173.8,112.1z"/>
</svg>
