<?xml version="1.0" encoding="utf-8"?>
<!-- Generator: Adobe Illustrator 27.9.0, SVG Export Plug-In . SVG Version: 6.00 Build 0)  -->
<svg version="1.1" id="Layer_1" xmlns="http://www.w3.org/2000/svg" xmlns:xlink="http://www.w3.org/1999/xlink" x="0px" y="0px"
	 viewBox="0 0 200 200" style="enable-background:new 0 0 200 200;" xml:space="preserve">
<g>
	<path d="M196.6,116.6c-1.6,0.8-17.5,9.8-37.4,11.5c-3.5,0.3-9.5-0.5-16.7-1.7c0,0-10.6-4.7-25.4-7.4c11.7-7.8,24.1-15.5,21.5-19.1
		c-1.5-2.1-7.5-2.5-8.4-2.5c-3.4,0-5.4,2.8-7.9,5.1c-1.7,1.6-6.7,8.4-12.3,15.5c-7-0.8-14.5-1-22.2-0.1c-0.1-1.4-0.2-2.3-0.2-2.3
		c-0.1-1.3-0.1-2.5-0.1-3.7h0.1c-0.6-0.8,2.4-5.1,5.5-5.6c3.1-0.5-0.3-11,2.7-14.4c1.7-1.9,3.8-4.4,5.3-6.3c7.9-1.7,7.9,2.3,7.9,2.3
		L95.4,98.1c0,0,1.4-0.7,3.5-1.8l0,0l0,0c1.6-0.8,3.6-1.8,5.7-3c1.9-0.7,4.1-1.3,6.1-1.2c5.4,0.2,5,5.2,11.6,4.2s7.3-8.8,4.4-15.5
		c-2.9-6.7-5.2-8.7-5.2-17.4c0-8,4.3-12.8,8.6-15.6c3.3-2.2,4.2-6.6,2-9.8c-1.4-2.2-3.3-4.9-5.1-7.1c-1.2-1.5-6.2,1.6-13.3,6.5l0,0
		l-12.6,8.2c3.3-6.9,15.8-11.7,15.1-15c-0.2-1.1-5.7-12.1-15.5-5.5c-4.7,3.1-7.2,5.1-10.4,5.9c-2.9,0.7-6.1,0.6-6.2,1.1l-0.1,0
		c0,0-0.2,1.2,3.7,2.1c2.5,1.3,5.8,3.1,8,5.1c-1.4,3.5,0.3,7.3,1.2,9l-15.4,10c-2.8-1.8-5.4-2.5-5.4-2.5s-8,1.6-5,7
		c3,5.4,7.9,9.9,8.6,25.8c0.7,15.9-3.2,61.2-0.8,76.2c2.3,14.3,17.1,10.8,14.9,1.7c0,0-2-27.1,9.6-37.5c1.6-1.4,3.5-2.9,5.5-4.4
		c3.3,1.2,6.7,2.6,10.2,4.4c16.6,8.7,29.3,17.1,49.8,16.1C189.5,144.2,198.2,115.8,196.6,116.6z M81.7,58.3l30.5-15.5
		c2-0.6,3.4-0.7,4-0.1c3.4,3.3-0.4,2.8-0.7,20.8c-0.2,10.4,2.9,19.8,0.7,20.7c-0.3,0.1-0.8,0.4-1.5,0.9c-2.3-0.5-5.7-1.1-8.7-1.7
		c-5.2-1,5.8-11.7,7.5-13.1c1.7-1.4-4.8-6.1-8.4-7.6c-3.6-1.6-11.5,11.9-13.7,14.7c-2.2,2.8-0.5,2.9,4,6.2c2.8,2,4.2,2.3,4.9,2.2
		l-5.5,5.4c-1.7,1.6-3,3.6-4,5.7c-1,2.1-2.3,4.8-3.5,5.8c0.2-18.1,2.8-25.5,1.5-34C88,63.5,84.7,60.3,81.7,58.3z M89.6,136.1
		c-0.7-6.2-1.3-11.9-1.6-15.7c4.9,1,13.9,2.2,14.5,2.2c1,0.3,2,0.5,3,0.8C99.3,130.7,93,136.9,89.6,136.1z"/>
	<path d="M70.1,88.1c-4.7,1.2-6.6,3.7-6.6,3.7l-3.9-18.5l0,0c-1.1-6.2,13.3-14.4,14.7-22.3c0.8-4.3-7-14.9-11.4-15.5
		c-2.8-0.4-2.9,0.8-2.6,1.7c0.3,1.2,1.9,9,1.7,14.5c-1.9,5.4-6.2,9-8.1,9.1c-3.2,0.2-4-5.1-5.9-8.4c-0.4-0.7-1-1.4-1.7-1.9
		c0,0,0,0,0,0s-2.9-3-4.9-2.7c-2,0.3-4.5,3.7-4.5,3.7s0,0,0,0c-0.4,0.5-0.7,1-1.1,1.6C31.8,60.3,20.1,63.5,23.6,66
		c3.5,2.4,7.4,2.2,12.2,0.8c4.8-1.4,8.6,6.2,8,9.2C43.3,79,36,86.2,34,88c-2,1.7-2.6,0.8-2.6,0.8c0-1.3-1.3-3.1-1.3-3.1
		c-0.1,1-8.7,11.5-13,15.8s-8,8-4.1,12.4c4,4.4,9.5-2.3,14.7-7.3c5.1-5,18.2-22.3,22.6-22.9c4.4-0.6,3.5,14.7,3.5,14.7
		s-27.4,26-41.4,47c-3.3,5-6.2,3.9-6.2,3.9c0.2,5.1,12.4,39.4,21.6,10.1c9.2-29.3,24.3-44.1,25.3-45c1-0.9,3.1,21,0,22.9
		c-0.3,0.2-0.7,0.3-1.1,0.2c-2.6-2.9-7.2-7.7-7.2-7.7s2.4,8,5.4,19.7c3.6,14.1,1.8,20.2,7.7,20.2c9.5,0,6-66.4,6.4-70.8
		c0.5-4.3,8.1-8.7,8.1-9.9C72.2,88.1,71.6,87.9,70.1,88.1z"/>
</g>
</svg>
