<?xml version="1.0" encoding="utf-8"?>
<!-- Generator: Adobe Illustrator 27.9.0, SVG Export Plug-In . SVG Version: 6.00 Build 0)  -->
<svg version="1.1" id="Layer_1" xmlns="http://www.w3.org/2000/svg" xmlns:xlink="http://www.w3.org/1999/xlink" x="0px" y="0px"
	 viewBox="0 0 136.3 56.4" style="enable-background:new 0 0 136.3 56.4;" xml:space="preserve">
<style type="text/css">
	.st0{fill:#FFFFFF;}
</style>
<g>
	<g>
		<path class="st0" d="M24.4,24.8L23.8,21c-0.6-3.5-1.7-6.3-3.1-7.8l-0.4-0.5l0.4-0.5c1.4-1.4,2.5-4.2,3.1-7.8l0.6-3.8L25,4.6
			c0.6,3.5,1.7,6.3,3.1,7.8l0.4,0.5l-0.4,0.5c-1.4,1.4-2.5,4.2-3.1,7.8L24.4,24.8z M22,12.8c1,1.2,1.8,2.9,2.4,5.1
			c0.6-2.2,1.4-3.9,2.4-5.1c-1-1.2-1.8-2.9-2.4-5.1C23.8,9.8,23,11.6,22,12.8z"/>
	</g>
	<g>
		<path class="st0" d="M21.4,26.5l-3.6-1.4c-3.3-1.3-6.4-1.7-8.3-1.2l-0.6,0.2l-0.2-0.6c-0.5-1.9-2.4-4.3-5.2-6.6l-3-2.5l3.6,1.4
			c3.3,1.3,6.4,1.7,8.3,1.2l0.6-0.2l0.2,0.6c0.5,1.9,2.4,4.3,5.2,6.6L21.4,26.5z M9.8,22.6c1.5-0.3,3.4-0.1,5.6,0.5
			c-1.6-1.6-2.7-3.2-3.2-4.6c-1.5,0.3-3.4,0.1-5.6-0.5C8.1,19.6,9.2,21.2,9.8,22.6z"/>
	</g>
	<g>
		<path class="st0" d="M21.4,30l-3,2.5c-2.8,2.3-4.6,4.7-5.2,6.6l-0.2,0.6l-0.6-0.2c-1.9-0.5-4.9-0.1-8.3,1.2L0.5,42l3-2.5
			c2.8-2.3,4.6-4.7,5.2-6.6l0.2-0.6l0.6,0.2c1.9,0.5,4.9,0.1,8.3-1.2L21.4,30z M12.2,38.1c0.5-1.4,1.6-3,3.2-4.6
			c-2.2,0.6-4.1,0.7-5.6,0.5c-0.5,1.4-1.6,3-3.2,4.6C8.7,38,10.7,37.9,12.2,38.1z"/>
	</g>
	<g>
		<path class="st0" d="M24.4,31.7l0.6,3.8c0.6,3.5,1.7,6.3,3.1,7.8l0.4,0.5l-0.4,0.5c-1.4,1.4-2.5,4.2-3.1,7.8l-0.6,3.8L23.8,52
			c-0.6-3.5-1.7-6.3-3.1-7.8l-0.4-0.5l0.4-0.5c1.4-1.4,2.5-4.2,3.1-7.8L24.4,31.7z M26.8,43.8c-1-1.2-1.8-2.9-2.4-5.1
			c-0.6,2.2-1.4,3.9-2.4,5.1c1,1.2,1.8,2.9,2.4,5.1C25,46.7,25.8,45,26.8,43.8z"/>
	</g>
	<g>
		<path class="st0" d="M27.4,26.5l3-2.5c2.8-2.3,4.6-4.7,5.2-6.6l0.2-0.6l0.6,0.2c1.9,0.5,4.9,0.1,8.3-1.2l3.6-1.4l-3,2.5
			c-2.8,2.3-4.6,4.7-5.2,6.6l-0.2,0.6L39.3,24c-1.9-0.5-4.9-0.1-8.3,1.2L27.4,26.5z"/>
	</g>
</g>
<g>
	<circle class="st0" cx="32.1" cy="15.1" r="0.7"/>
	<circle class="st0" cx="16.9" cy="15.1" r="0.7"/>
	<circle class="st0" cx="9.3" cy="28.3" r="0.7"/>
	<circle class="st0" cx="17" cy="41.5" r="0.7"/>
	<circle class="st0" cx="32.2" cy="41.4" r="0.7"/>
	<circle class="st0" cx="39.7" cy="28.2" r="0.7"/>
</g>
<g>
	<path class="st0" d="M41.2,36.7L38.6,35c-0.3-0.2-0.5-0.4-0.7-0.5c-0.2-0.2-0.3-0.4-0.3-0.7c0-0.4,0.2-0.7,0.5-0.9
		c0.3-0.2,0.7-0.4,1.2-0.4c0.6,0,1,0.1,1.4,0.4c0.3,0.3,0.5,0.7,0.5,1.1h0.1l0.2-1.8c0,0,0,0,0,0l0-0.2h-0.9c-0.1,0-0.2,0-0.3,0
		c-0.3,0-0.6-0.1-0.8-0.1c-0.3,0-0.5,0-0.7,0c-0.6,0-1,0.1-1.5,0.3c-0.4,0.2-0.7,0.5-1,0.8c-0.2,0.4-0.4,0.8-0.4,1.2
		c0,0.5,0,0.9,0.3,1.4s0.6,0.8,1,1l2.3,1.6c0.4,0.2,0.6,0.4,0.8,0.6c0.2,0.2,0.2,0.5,0.2,0.7c0,0.4-0.2,0.8-0.5,1
		c-0.3,0.3-0.8,0.4-1.4,0.4c-0.5,0-1-0.1-1.4-0.3c-0.4-0.2-0.7-0.5-0.9-0.9c-0.2-0.4-0.3-0.8-0.2-1.3h-0.1c-0.1,0.2-0.2,0.4-0.3,0.7
		s-0.1,0.6-0.1,0.8c0,0.3,0,0.5,0.1,0.7c0.2,0.2,0.4,0.3,0.7,0.4c0.3,0.1,0.6,0.2,1,0.3c0.4,0.1,0.8,0.1,1.1,0.1
		c1.1,0,1.9-0.2,2.5-0.7c0.6-0.5,1-1.2,1-2c0-0.5-0.1-0.9-0.3-1.3C41.9,37.2,41.6,36.9,41.2,36.7z"/>
	<path class="st0" d="M52.5,32.1h-1.8h0h-1.1v0.1c0,0,0.1,0,0.3,0c0.2,0,0.4,0.1,0.6,0.2c0.2,0.2,0.2,0.3,0.2,0.6v5.3l-6.8-6.4h-0.1
		c0.1,0.6,0.2,1.2,0.2,1.7v6.9c0,0.2-0.1,0.4-0.2,0.6c-0.2,0.2-0.4,0.2-0.6,0.2c0,0-0.1,0-0.3,0v0.1H44h0h1.8h0h1.1v-0.1
		c-0.2,0-0.2,0-0.3,0c-0.2,0-0.4-0.1-0.6-0.2c-0.2-0.2-0.2-0.4-0.2-0.6h0l0-5.3l6.8,6.4h0.1c-0.1-0.3-0.1-0.6-0.1-0.8s0-0.6,0-0.9
		V33c0-0.2,0.1-0.4,0.3-0.6c0.2-0.2,0.4-0.2,0.6-0.2h0.2v-0.1H52.5L52.5,32.1z"/>
	<path class="st0" d="M62.1,32.5c-0.8-0.4-1.7-0.6-2.8-0.6s-2,0.2-2.8,0.6s-1.4,1-1.8,1.7c-0.4,0.7-0.6,1.6-0.6,2.6
		c0,1,0.2,1.9,0.6,2.6c0.4,0.7,1,1.3,1.8,1.7s1.7,0.6,2.8,0.6s2-0.2,2.8-0.6s1.4-1,1.8-1.7c0.4-0.7,0.6-1.6,0.6-2.6
		c0-1-0.2-1.9-0.6-2.6C63.5,33.5,62.9,32.9,62.1,32.5z M62,39.1c-0.2,0.6-0.6,1.1-1.1,1.5s-1,0.5-1.6,0.5c-0.6,0-1.2-0.2-1.6-0.5
		s-0.8-0.8-1.1-1.5c-0.2-0.6-0.4-1.4-0.4-2.3c0-0.9,0.1-1.6,0.4-2.3c0.2-0.6,0.6-1.1,1.1-1.5s1-0.5,1.6-0.5c0.6,0,1.2,0.2,1.6,0.5
		s0.8,0.8,1.1,1.5c0.2,0.6,0.4,1.4,0.4,2.3C62.4,37.7,62.3,38.4,62,39.1z"/>
	<path class="st0" d="M83.3,32.1c-0.2,0-0.4,0-0.6,0h-2.1h0h-1.9h0h-0.8h-0.2H75v0.1h0.1c0.2,0,0.3,0.1,0.4,0.2
		c0.1,0.1,0.1,0.3,0.1,0.6h0l-1.3,4.7l-2.7-5.9l0,0h-0.1l-2.4,5.8l-1.6-4.7h0c-0.1-0.3-0.1-0.5,0-0.6c0.1-0.1,0.3-0.2,0.4-0.2h0.1
		v-0.1H64v0.1h0.1c0.2,0,0.4,0.1,0.7,0.2c0.2,0.1,0.4,0.3,0.5,0.6l3.2,8.7h0.1c0-0.2,0-0.5,0.1-0.7c0-0.2,0.1-0.5,0.2-0.8l2.1-5
		l2.9,6.5h0.1c0-0.2,0-0.4,0-0.7c0-0.2,0.1-0.5,0.2-0.8l2.2-7.2c0.1-0.3,0.3-0.5,0.5-0.6c0.2-0.1,0.5-0.2,0.7-0.2h0.1
		c0.2,0,0.4,0.1,0.6,0.2c0.2,0.2,0.3,0.4,0.3,0.6v7.4c0,0.2-0.1,0.4-0.3,0.6c-0.2,0.2-0.4,0.2-0.6,0.2h-0.2v0.1h1h0h1.9h0h1v-0.1
		c0,0-0.1,0-0.2,0c-0.2,0-0.4-0.1-0.6-0.2c-0.2-0.2-0.3-0.4-0.3-0.6v-3.4h1.8c0.3,0,0.6,0.1,0.8,0.3s0.3,0.5,0.3,0.8v0.1h0.1v-1.3v0
		v-0.5v0v-1.3h-0.1v0.1c0,0.3-0.1,0.6-0.3,0.8c-0.2,0.2-0.5,0.3-0.8,0.3h-1.8v-3.9h2.2c0.4,0,0.7,0.1,1,0.4c0.2,0.2,0.4,0.6,0.4,1
		v0.1h0.1v-1.4v0v-0.4v-0.1v-0.2c-0.1,0-0.2,0.1-0.4,0.1C83.7,32,83.5,32,83.3,32.1z"/>
	<path class="st0" d="M106.1,41.3c-0.2,0-0.4-0.1-0.6-0.2c-0.2-0.2-0.3-0.4-0.3-0.6v-7.4c0-0.2,0.1-0.4,0.3-0.6
		c0.2-0.2,0.4-0.2,0.6-0.2c0,0,0,0,0.1,0s0.1,0,0.1,0v-0.1h-1h0h-1.9h0h-1v0.1c0,0,0,0,0.1,0c0,0,0.1,0,0.1,0c0.2,0,0.4,0.1,0.6,0.2
		c0.2,0.2,0.3,0.4,0.3,0.6v7.4c0,0.2-0.1,0.4-0.3,0.6c-0.2,0.2-0.4,0.2-0.6,0.2h-0.1c-0.2,0-0.4-0.1-0.6-0.2
		c-0.2-0.1-0.3-0.3-0.5-0.6l-4-8.7H97c0,0.1,0,0.2-0.1,0.4s-0.1,0.4-0.2,0.5c-0.1,0.2-0.1,0.4-0.2,0.5c-0.1,0.1-0.1,0.2-0.1,0.3
		l-3.1,7c-0.1,0.3-0.3,0.5-0.5,0.6c-0.2,0.1-0.4,0.2-0.6,0.2h-0.1l0.6-2.6h-0.1c-0.1,0.4-0.3,0.8-0.6,1.2s-0.5,0.6-0.9,0.7
		c-0.3,0.2-0.7,0.3-1.2,0.3h-1.8v-7.8c0-0.2,0.1-0.4,0.3-0.6c0.2-0.2,0.4-0.2,0.6-0.2c0.1,0,0.2,0,0.2,0v-0.1h-1h0h-1.9h0h-1v0.1
		h0.2c0.2,0,0.4,0.1,0.6,0.2c0.2,0.2,0.3,0.4,0.3,0.6v7.4c0,0.2-0.1,0.4-0.3,0.6c-0.2,0.2-0.4,0.2-0.6,0.2h-0.2v0.1h1h0h1.9h0h1.3
		H92h0h0h2.8v-0.1h-0.1c-0.1,0-0.2,0-0.3-0.1s-0.2-0.2-0.2-0.3c0-0.1,0-0.3,0-0.4l0.7-1.7h3.1l0.7,1.6h0c0.1,0.3,0.1,0.5,0,0.6
		c-0.1,0.1-0.3,0.2-0.5,0.2h-0.1v0.1h4h0.2h0.8h0h1.9h0h1v-0.1C106.2,41.3,106.2,41.3,106.1,41.3C106.1,41.3,106.1,41.3,106.1,41.3z
		 M95.2,38.3l1.4-3.3l1.3,3.3H95.2z"/>
	<path class="st0" d="M118.7,39.9c-0.2,0.3-0.5,0.6-0.9,0.7c-0.3,0.2-0.7,0.3-1.2,0.3h-1.8v-3.8h1.8c0.3,0,0.6,0.1,0.8,0.3
		s0.3,0.5,0.3,0.8v0.1h0.1v-1.3v0v-0.5v0v-1.3h-0.1v0.1c0,0.3-0.1,0.6-0.3,0.8c-0.2,0.2-0.5,0.3-0.8,0.3h-1.8v-3.9h2.3
		c0.4,0,0.7,0.1,0.9,0.4c0.2,0.2,0.4,0.6,0.4,1v0.2h0.1v-1.5v0v-0.4v-0.1v-0.2c-0.1,0-0.2,0.1-0.4,0.1c-0.2,0-0.4,0.1-0.6,0.1
		c-0.2,0-0.4,0-0.6,0h-2.1h0H113h0h-1v0.1h0.2c0.2,0,0.4,0.1,0.6,0.2c0.2,0.2,0.3,0.4,0.3,0.6v7.4c0,0.2-0.1,0.4-0.3,0.6
		c-0.2,0.2-0.4,0.2-0.6,0.2H112c-0.3,0-0.5-0.1-0.7-0.2s-0.4-0.3-0.6-0.6l-3.3-4.5l2.6-3.1c0.2-0.2,0.4-0.3,0.6-0.4
		c0.3-0.1,0.5-0.2,0.8-0.2h0.1v-0.1h-0.1h-3v0.1h0.1c0.2,0,0.3,0.1,0.4,0.2c0.1,0.1,0.1,0.3-0.1,0.4l-3.2,4.2
		c0.2,0.3,0.4,0.6,0.6,0.8c0.2,0.2,0.3,0.5,0.5,0.7c0.2,0.3,0.4,0.5,0.6,0.8c0.2,0.2,0.3,0.5,0.5,0.6s0.2,0.3,0.3,0.4
		c0.2,0.3,0.5,0.5,0.8,0.7s0.6,0.3,0.9,0.3s0.5,0.1,0.8,0.1s0.4,0,0.5,0h1h0.1h0.9h0h1.9h0h1.3h2.6h0l0.6-2.7h-0.1
		C119.2,39.2,119,39.5,118.7,39.9z"/>
	<path class="st0" d="M126.7,39.9c-0.2,0.3-0.5,0.6-0.9,0.7c-0.3,0.2-0.7,0.3-1.2,0.3h-1.8v-7.8c0-0.2,0.1-0.4,0.3-0.6
		c0.2-0.2,0.4-0.2,0.6-0.2c0.1,0,0.2,0,0.2,0v-0.1h-1h0H121h0h-1v0.1h0.2c0.2,0,0.4,0.1,0.6,0.2c0.2,0.2,0.3,0.4,0.3,0.6v7.4
		c0,0.2-0.1,0.4-0.3,0.6c-0.2,0.2-0.4,0.2-0.6,0.2h-0.2v0.1h1h0h1.9h0h1.3h2.6h0l0.6-2.7h-0.1C127.1,39.2,127,39.5,126.7,39.9z"/>
	<path class="st0" d="M132.5,32.1v0.1h0.2c0.1,0,0.2,0,0.3,0.1c0.1,0.1,0.2,0.2,0.2,0.3c0,0.1,0,0.3-0.1,0.4l0,0l-2,3.5l-1.9-3.5
		c-0.1-0.2-0.1-0.4,0-0.5c0.1-0.2,0.3-0.3,0.4-0.3h0.2v-0.1h-4.4v0.1h0.2c0.3,0,0.5,0.1,0.8,0.2c0.2,0.2,0.4,0.3,0.5,0.5l0,0
		l2.5,4.2v3.3c0,0.2-0.1,0.4-0.3,0.6c-0.2,0.2-0.4,0.2-0.6,0.2c0,0-0.1,0-0.2,0v0.1h1h0h1.9h0h1v-0.1h-0.2c-0.2,0-0.4-0.1-0.6-0.2
		s-0.3-0.4-0.3-0.6v-3.3l2.6-4.2l0,0c0.1-0.2,0.3-0.4,0.6-0.5c0.2-0.2,0.5-0.2,0.8-0.2h0.2v-0.1H132.5z M130.8,37.2L130.8,37.2
		L130.8,37.2L130.8,37.2z"/>
</g>
</svg>
