<svg xmlns="http://www.w3.org/2000/svg" viewBox="0 0 39.68 59.53"><path fill="#fff" d="M39.68 0H0v59.53h39.68V0z"/><path d="M39.11.64v58.25H.58V.64h38.53"/><path fill="#fff" d="M2.52 2.71H36.9v9.66H2.52zM2.5 14.47h34.4v35.51H2.5zM2.51 56.79v-4.71h6.9v1.1H5.28v.67h3.5v1.1h-3.5v.74h4.29v1.1H2.51zM15.44 53.45a.52.52 0 0 0-.4-.32 2.53 2.53 0 0 0-.72-.09c-.61 0-.88.1-.88.28 0 .7 4.87.26 4.87 2 0 1.09-1.64 1.63-4 1.63s-3.7-.73-3.75-1.58h2.65a.69.69 0 0 0 .46.37 2.52 2.52 0 0 0 .79.12c.7 0 1.16-.12 1.16-.35 0-.71-4.88-.22-4.88-2 0-1 1.56-1.5 3.67-1.5 2.35 0 3.42.66 3.63 1.49ZM22.46 54.12h1.09c.86 0 1.32-.12 1.32-.45s-.47-.49-1.11-.49h-1.3Zm0 1v1.64h-2.77v-4.68h4c2.82 0 3.75.43 3.75 1.34 0 .55-.44 1-1.43 1.16.9.18 1.44.29 1.44 1.24 0 .62 0 .83.29.83v.14h-2.81a1.8 1.8 0 0 1-.14-.82c0-.62-.19-.82-1.48-.82ZM31.91 53.18V54h1.16c.55 0 1-.14 1-.41s-.54-.38-1.13-.38Zm0 1.64v.87h1.21c.69 0 1.21-.08 1.21-.43s-.65-.44-1.53-.44Zm-2.77 2v-4.74h4c1.9 0 3.42.25 3.42 1.19 0 .48-.57.84-1.1 1 .91.13 1.4.57 1.4 1.08 0 1.05-1.44 1.42-3.64 1.42Z"/><path d="m3.75 23.27 10.54-2.84 6.02 14.16.05-.02-1.81-15.28 10.54-2.84 6.58 24.74-6.42 1.72-4.71-17.68-.05.01 1.99 18.41-6.96 1.88-7.41-16.95-.05.01 4.69 17.68L10.33 48 3.75 23.27zM3.47 10.26V4.79H5l.73 3.72.76-3.72H8v5.47h-.91V6l-.89 4.22h-.93L4.42 6v4.22ZM8.46 10.26l1.28-5.47H11l1.26 5.47h-1L11 9.05H9.68l-.27 1.21Zm1.86-4.41-.45 2.36h.92ZM15.08 4.79v.91H14v4.56h-1V5.7h-1v-.91ZM18.65 4.79v3.88a2.49 2.49 0 0 1-.08.61 1.5 1.5 0 0 1-.26.54 1.33 1.33 0 0 1-.48.39 1.82 1.82 0 0 1-.75.14 1.47 1.47 0 0 1-1.18-.45 1.81 1.81 0 0 1-.39-1.23V4.79h1V8.6a1.2 1.2 0 0 0 .16.72.53.53 0 0 0 .43.22.51.51 0 0 0 .47-.25 1.31 1.31 0 0 0 .15-.69V4.79ZM20.38 10.26h-1V4.79h1.82a1 1 0 0 1 .79.37 1.69 1.69 0 0 1 .29 1.06 1.86 1.86 0 0 1-.2.89.87.87 0 0 1-.66.46h.22a.65.65 0 0 1 .28.13.92.92 0 0 1 .24.32 1.31 1.31 0 0 1 .1.58v1.31a1.1 1.1 0 0 0 .05.29h-.95a1.5 1.5 0 0 1-.09-.52V8.74a1.08 1.08 0 0 0-.06-.38.49.49 0 0 0-.21-.26.71.71 0 0 0-.42-.1h-.25Zm0-3.1h.43a.41.41 0 0 0 .24-.08.58.58 0 0 0 .15-.19.79.79 0 0 0 .08-.26 1.37 1.37 0 0 0 0-.28.87.87 0 0 0-.13-.55.45.45 0 0 0-.36-.17h-.43ZM23 10.26V4.79h2.52v.84H24V7h1.43v.84H24v1.6h1.6v.84ZM27.52 5.62a5.45 5.45 0 0 0 .48-.38 2.13 2.13 0 0 0 .4-.48h.85v5.5h-1V6a3.7 3.7 0 0 1-.36.33l-.39.29ZM32.64 5.81l-1.09 4.45h-1l1.23-4.64h-1.54v-.86h2.4ZM34.12 5.85h.71v1.5h1.08v.84h-1.08v1.49h-.71V8.19H33v-.84h1.08Z"/></svg>