<?xml version="1.0" encoding="utf-8"?>
<!-- Generator: Adobe Illustrator 27.9.0, SVG Export Plug-In . SVG Version: 6.00 Build 0)  -->
<svg version="1.1" id="Layer_1" xmlns="http://www.w3.org/2000/svg" xmlns:xlink="http://www.w3.org/1999/xlink" x="0px" y="0px"
	 viewBox="0 0 72.6 4" style="enable-background:new 0 0 72.6 4;" xml:space="preserve">
<style type="text/css">
	.st0{fill:#DDC5A8;}
</style>
<path class="st0" d="M71.8,1.7c-1.1-0.1-2.1,0.2-3.2-0.2c-0.2,0-0.4,0-0.6,0.1c-0.4,0.2-0.1,0.2-0.5,0.2l-0.1,0.4c0.1,0,0.2,0,0.2,0
	c0.7,0.3,0.7,0.1,1.3,0.2c1,0.1,2-0.2,3-0.4C72,1.9,71.8,1.7,71.8,1.7z"/>
<path class="st0" d="M64,2.1L64,2.1C64,1.9,64,2.1,64,2.1z"/>
<path class="st0" d="M57.3,1.6c-0.3,0-0.7,0.1-1,0.1V1.6L56,2.2c0.1,0.2,0.2,0.2,0.3,0.2c0.6,0.2,1.1,0.2,1.7,0
	c0.2-0.1,0.3,0,0.4,0.1c0.3,0.1,0.5,0.2,0.7,0c0.2-0.1,0.6,0.1,0.8,0.1c0.4,0,0.7,0.2,1.1,0c0.2-0.1,0.3,0.1,0.4,0.1
	c1.5,0.1,2.5-0.4,4-0.6l0,0c-1,0-3.1-0.7-4.1-0.7C60,1.4,58.7,1.3,57.3,1.6z"/>
<path class="st0" d="M54.7,1.4c-0.2-0.1-0.2-0.1-0.2-0.1c-1.6-0.3-3.2,0.3-4.8,0C47.8,1,45.8,1.1,43.8,1c-0.6,0-1.3,0-1.9,0.1
	c-1.1,0.3-2.3,0.3-3.4,0.3l-3.2-0.1c-0.7,0.3-1.4,0-2,0c-0.7-0.1-1.4-0.1-2.1-0.1c-0.5,0-1,0.1-1.4,0.1h-3.2c-0.2,0.3-0.5,0-0.8,0
	h-0.1c0,0.4,0.1,0.3,0.2,0.3h-0.7c0-0.3-0.1,0-0.2,0.1c0,0.1,0,0-0.1,0h-0.2c-0.2,0-0.3,0.1-0.4,0s-0.3-0.3-0.4,0
	c0,0-0.2,0.3-0.2-0.3c0-0.1-0.1-0.1-0.1-0.1c-0.3,0.3-0.7-0.1-1-0.3h-0.2c-0.8,0.3-1.5,0-2.3,0h-1.4c-0.1,0-0.2,0-0.3,0.3l0,0
	c-0.2,0.3-0.3,0.4-0.5,0.1s-0.3-0.3-0.5-0.3L18.1,3c0,0,0,0,0.1,0c0.5,0.3,1,0,1.5,0c0.1,0,0.2,0,0.2,0.1c0.6,0.1,1.2,0,1.7-0.3
	s1,0,1.6,0.1c0.7,0.1,1.5-0.1,2.3-0.1c0.3,0,0.7,0,1-0.1c0.8-0.3,1.6,0.1,2.4,0c0.2-0.1,0.3-0.3,0.4-0.4h0.3c0,0.1,0,0.3,0.1,0.3
	c0.4,0,0.8,0.3,1.2,0.1c0.4-0.1,0.8,0.3,1.2,0.1c0.4-0.1,0.9,0.1,1.3,0c0.5,0,1,0.1,1.5,0.1c1,0.1,2.1,0.3,3.1,0.3
	c0.7,0,1.3,0,1.9-0.1c0.5-0.1,1.1,0.1,1.7,0C42,3,42.4,3,42.8,2.9c0.7-0.1,1.3-0.1,1.9-0.3c0.6-0.1,1.2,0,1.9,0.1c0.5,0,1,0,1.5,0.3
	c0.2,0.1-0.1-0.3,0.1-0.3c0.3,0,0.7-0.1,1,0.1c0.2,0.3,0.3,0,0.5-0.1h0.1c0.2,0.3,0.3,0,0.5,0c0.1-0.1,0.3-0.1,0.4-0.3
	c0.3,0,0.7,0.5,1,0.5c0.1,0,0.2,0.3,0.3-0.3c0-0.3,0.2,0.1,0.2-0.3c0.2-0.3,0.8-0.3,1,0.3C53.3,2.9,53.3,3,53.4,3h0.2c0,0,0,0,0-0.1
	c0-0.3,0.2-0.3,0.2-0.3c0.3,0,0.5,0.3,0.8-0.1c0.1-0.1,0.1,0.1,0.2,0.3c0,0,0.1,0.1,0.1,0C55,2.5,54.9,1.5,54.7,1.4z"/>
<path class="st0" d="M0.1,2c1,0.2,2,0.5,3,0.4c0.6-0.1,0.6,0.1,1.3-0.2c0.1,0,0.2,0,0.2,0L4.5,1.8c-0.4,0-0.1,0-0.5-0.2
	C3.9,1.5,3.7,1.5,3.5,1.5C2.4,1.9,1.4,1.6,0.3,1.7C0.3,1.7,0,1.9,0.1,2z"/>
<path class="st0" d="M8.1,2.1C8,2.1,8.1,2.1,8.1,2.1S8.1,1.8,8.1,2.1z"/>
<path class="st0" d="M10.7,1.5c-1,0-3.1,0.7-4.1,0.7l0,0c1.5,0.2,2.5,0.7,4,0.6c0.2,0,0.3-0.2,0.4-0.1c0.4,0.2,0.7,0,1.1,0
	c0.3,0,0.6-0.2,0.8-0.1c0.3,0.2,0.5,0.1,0.7,0s0.3-0.2,0.4-0.1c0.6,0.2,1.1,0.2,1.7,0c0.1,0,0.2,0,0.3-0.2l-0.3-0.6v0.1
	c-0.3,0-0.7-0.1-1-0.1C13.4,1.3,12,1.4,10.7,1.5z"/>
</svg>
