<?xml version="1.0" encoding="utf-8"?>
<!-- Generator: Adobe Illustrator 27.9.0, SVG Export Plug-In . SVG Version: 6.00 Build 0)  -->
<svg version="1.1" id="Layer_1" xmlns="http://www.w3.org/2000/svg" xmlns:xlink="http://www.w3.org/1999/xlink" x="0px" y="0px"
	 viewBox="0 0 72.5 4.1" style="enable-background:new 0 0 72.5 4.1;" xml:space="preserve">
<style type="text/css">
	.st0{fill:#DDC5A8;}
</style>
<path class="st0" d="M51.4,2.7l-1-0.1c-1.1,0.1-2.3-0.1-3.3,0.1c-0.8,0.1-1.5-0.3-2.3,0.3c-0.1,0-0.1,0-0.2-0.1
	c-0.7-0.4-1.3-0.3-2-0.3c-0.2,0-0.5,0.2-0.7-0.3c-0.1-0.1-0.1-0.1-0.1,0c-0.1,0.3-0.3,0.2-0.4,0.3c-0.9,0-1.9-0.1-2.7-0.2
	c-1.9,0-3.7-0.2-5.5-0.1c-0.8,0.1-1.5-0.2-2.3,0c-0.2,0.1-0.4,0.7-0.7,0.1c-0.2-0.1-0.4-0.2-0.6,0c-0.2,0.2-0.5-0.3-0.7,0
	c-0.2,0.2-0.2,0.2-0.4,0c-0.1-0.2-0.2-0.2-0.3-0.1c-0.2,0.1-0.4,0.1-0.6,0.3C27,3,26.3,2.9,25.6,2.9h-0.1c-0.2-0.8-0.5-0.4-0.9-0.3
	c-0.1,0-0.2,0.1-0.3,0c-0.8-0.4-1.6-0.2-2.4-0.2l-2.3,0.1c-1.6,0.1-3.2,0.1-4.8,0.2c-1.1,0.1-2.2,0.3-3.3-0.2
	c-0.4-0.2-0.8,0.1-1.2,0.1C9.9,2.6,9.5,2,9,2.6c-0.2,0.2-0.5,0-0.8,0.1C6.3,2.9,4.6,3,2.8,2.9C2.5,2.2,0.2,3.3,0.2,2.7V1.4
	c0.9,0,2.4-0.2,3.3,0c0.1,0,0.2,0,0.4-0.1c0.5-0.4,0.9,0,1.4-0.1C5.9,1,6.5,1.2,7.1,1.2C9,1.4,11,0.7,12.9,1.4
	c0.2-0.2,0.4,0.3,0.6-0.1c0.2-0.2,0.4,0.1,0.6,0.1c1.1,0,2.3,0,3.3,0.1c1.1,0.1,2.3-0.1,3.3,0c0.7,0.1,1.3,0,1.9,0
	c1.5,0.1,3-0.1,4.5,0c0.4,0,0.9,0.3,1.2,0c0.4-0.3,0.8-0.1,1.2-0.1c0.5,0,1,0.2,1.5,0c0.2-0.1,0.4-0.1,0.6,0.3
	c-0.1,0.2,0.2,0.3,0.2-0.2c0.1-0.3,0.2-0.1,0.3-0.1c0.8,0,1.5-0.1,2.3,0c0.7,0,1.4-0.2,2-0.2c0.5,0.1,1.2,0.1,1.7,0
	c1.3-0.2,2.6,0.1,4,0.1c0.9,0,1.9,0.1,2.8,0.1c0.7,0,1.4-0.3,2.1-0.2c1.3,0.2,2.6,0.1,3.8,0.2C52.7,1.4,51.7,1.5,51.4,2.7z"/>
<path class="st0" d="M66.9,1.7c0.4,0,0.1,0,0.5-0.2c0.2-0.1,0.4-0.1,0.6-0.1c1.2,0.4,2.2,0.1,3.4,0.2c0,0,0.3,0.2,0.2,0.3
	c-1,0.2-2.1,0.5-3.1,0.4c-0.7-0.1-0.7,0.1-1.4-0.2c-0.1,0-0.2,0-0.2,0L66.9,1.7L66.9,1.7z"/>
<path class="st0" d="M63.2,2c-1.6,0.2-2.7,0.6-4.3,0.6c-0.2,0-0.3-0.2-0.4-0.1c-0.4,0.2-0.8,0-1.2,0c-0.3,0-0.7-0.2-0.9-0.1
	c-0.3,0.2-0.5,0.1-0.8,0c-0.2-0.1-0.3-0.2-0.4-0.1c-0.6,0.2-1.2,0.2-1.8,0c-0.1,0-0.2,0-0.3-0.2l0.3-0.6v0.1c0.3,0,0.7-0.1,1-0.1
	c1.4-0.4,2.9-0.3,4.3-0.2C59.9,1.4,62.2,2,63.2,2C63.2,1.7,63.2,2,63.2,2z"/>
</svg>
