<?xml version="1.0" encoding="utf-8"?>
<!-- Generator: Adobe Illustrator 27.9.0, SVG Export Plug-In . SVG Version: 6.00 Build 0)  -->
<svg version="1.1" id="Layer_1" xmlns="http://www.w3.org/2000/svg" xmlns:xlink="http://www.w3.org/1999/xlink" x="0px" y="0px"
	 viewBox="0 0 900 600" style="enable-background:new 0 0 900 600;" xml:space="preserve">
<style type="text/css">
	.st0{fill:#FFFFFF;}
	.st1{fill:#CF142B;}
	.st2{fill:none;stroke:#CF142B;stroke-width:5.5556;stroke-miterlimit:10;}
	.st3{fill:#FFFFFF;stroke:#000000;stroke-width:0.5208;stroke-miterlimit:10;}
	.st4{fill:#FFFFFF;stroke:#000000;stroke-width:1.0417;stroke-miterlimit:10;}
	.st5{fill:#FFFFFF;stroke:#000000;stroke-width:0.5208;stroke-linejoin:round;stroke-miterlimit:10;}
	.st6{fill:none;stroke:#000000;stroke-width:0.5208;stroke-linecap:round;stroke-linejoin:round;stroke-miterlimit:10;}
	.st7{fill:none;stroke:#000000;stroke-width:0.2604;stroke-linecap:round;stroke-linejoin:round;stroke-miterlimit:10;}
	.st8{fill:#FFFFFF;stroke:#000000;stroke-width:0.3906;stroke-linecap:round;stroke-linejoin:round;stroke-miterlimit:10;}
	.st9{fill:#FFFFFF;stroke:#000000;stroke-width:0.2387;stroke-linecap:round;stroke-linejoin:round;stroke-miterlimit:10;}
	.st10{fill:none;stroke:#000000;stroke-width:0.3906;stroke-linecap:round;stroke-linejoin:round;stroke-miterlimit:10;}
	.st11{fill:none;stroke:#000000;stroke-width:0.2387;stroke-linecap:round;stroke-linejoin:round;stroke-miterlimit:10;}
	.st12{fill:none;stroke:#000000;stroke-width:0.1736;stroke-linecap:round;stroke-linejoin:round;stroke-miterlimit:10;}
	.st13{fill:#FFFFFF;stroke:#000000;stroke-width:0.1085;stroke-linecap:round;stroke-linejoin:round;stroke-miterlimit:10;}
	.st14{fill:none;stroke:#000000;stroke-width:0.1085;stroke-linecap:round;stroke-linejoin:round;stroke-miterlimit:10;}
	.st15{fill:#FFFFFF;stroke:#000000;stroke-width:0.1519;stroke-linecap:round;stroke-linejoin:round;stroke-miterlimit:10;}
	.st16{fill:#FFFFFF;stroke:#000000;stroke-width:0.3038;stroke-linecap:round;stroke-linejoin:round;stroke-miterlimit:10;}
	.st17{fill:none;stroke:#000000;stroke-width:8.680555e-02;stroke-linecap:round;stroke-linejoin:round;stroke-miterlimit:10;}
	.st18{fill:none;stroke:#000000;stroke-width:0.1953;stroke-linecap:round;stroke-linejoin:round;stroke-miterlimit:10;}
	.st19{fill:none;stroke:#000000;stroke-width:0.1302;stroke-linecap:round;stroke-linejoin:round;stroke-miterlimit:10;}
</style>
<path class="st0" d="M0,0h900v600H0V0z"/>
<path class="st1" d="M450,0h450v600H450V0z"/>
<g transform="translate(10368 10368)">
	<path class="st2" d="M-10133.7-10333.3h44.4v42.2c6.1-0.4,11.9,4.2,13.2,10.4c0.2,1,0.3,2,0.2,3h42.2v44.4h-42.2
		c0.4,6.1-4.2,11.9-10.4,13.2c-1,0.2-2,0.3-3,0.2v42.2h-44.4v-42.2c-6.1,0.4-11.9-4.2-13.2-10.4c-0.2-1-0.3-2-0.2-3h-42.2v-44.4
		h42.2c-0.4-6.1,4.2-11.9,10.4-13.2c1-0.2,2-0.3,3-0.2V-10333.3z"/>
	<path class="st0" d="M-10089.5-10291c6-0.6,12,3.9,13.4,10.1c0.3,1.2,0.3,2.3,0.2,3.5v43.9c0.6,6-3.9,12-10.1,13.4
		c-1.2,0.3-2.3,0.3-3.5,0.2h-43.9c-6,0.6-12-3.9-13.4-10.1c-0.3-1.2-0.3-2.3-0.2-3.5v-43.9c-0.6-6,3.9-12,10.1-13.4
		c1.2-0.3,2.3-0.3,3.5-0.2H-10089.5z"/>
	<path class="st3" d="M-10133.5-10333h43.9v155h-43.9V-10333z M-10189-10277.5h155v43.9h-155V-10277.5z"/>
	<path class="st4" d="M-10130.9-10330.5h38.9v150h-38.9V-10330.5z M-10186.5-10274.9h150v38.9h-150V-10274.9z"/>
	<circle class="st4" cx="-10111.5" cy="-10255.5" r="34.7"/>
	<circle class="st4" cx="-10111.5" cy="-10255.5" r="25.7"/>
	<g id="a">
		<path class="st5" d="M-10078-10283.3c-1.2,0.9-3.5,3.3-4.9,5l-1.3-0.8c1.8-1.5,4.2-3.8,5.6-5.4L-10078-10283.3z M-10079.1-10285.3
			c-2.2,0.6-6.3,1.9-8.1,3l-0.4-0.6c0.7-1.1,1.6-5.5,1.6-6.7l1.4,0.3c-0.4,1.1-0.9,3.4-1,4.9c1.4-0.2,4.7-1.3,5.7-2
			L-10079.1-10285.3z"/>
		<path class="st5" d="M-10076.3-10280.4h-1.7c0.4-2.2-1.6-5.5-4.5-7.4s-5.5-1.6-5.9,0.7s1.6,5.5,4.5,7.4c1.1,0.7,2.3,1.2,3.3,1.2
			l1.2-1.5l1.5,1.5l-1.7,1.7c-6-0.9-10.8-6.5-10.7-12.4c0-0.5,0.1-1,0.1-1.5c5.8-1,11.9,3.1,13.6,9
			C-10076.5-10281.2-10076.4-10280.8-10076.3-10280.4z"/>
	</g>
	<g transform="rotate(90)">
		<g id="a_00000050620926850815189440000011369816717642617009_">
			<path class="st5" d="M-10083.7-10222c-0.9-1.2-3.3-3.5-5-4.9l0.8-1.3c1.5,1.8,3.8,4.2,5.4,5.6L-10083.7-10222z M-10081.7-10223.1
				c-0.6-2.2-1.9-6.3-3-8.1l0.6-0.4c1.1,0.7,5.5,1.6,6.7,1.6l-0.3,1.4c-1.1-0.4-3.4-0.9-4.9-1c0.2,1.4,1.3,4.7,2,5.7
				L-10081.7-10223.1z"/>
			<path class="st5" d="M-10086.6-10220.3v-1.7c2.2,0.4,5.5-1.6,7.4-4.5s1.6-5.5-0.7-5.9s-5.5,1.6-7.4,4.5c-0.7,1.1-1.2,2.3-1.2,3.3
				l1.5,1.2l-1.5,1.5l-1.7-1.7c0.9-6,6.5-10.8,12.4-10.7c0.5,0,1,0.1,1.5,0.1c1,5.8-3.1,11.9-9,13.6
				C-10085.8-10220.5-10086.2-10220.4-10086.6-10220.3z"/>
		</g>
	</g>
	<g transform="rotate(180)">
		<g id="a_00000169528066963748225910000009623552817759538340_">
			<path class="st5" d="M-10145-10227.7c1.2-0.9,3.5-3.3,4.9-5l1.3,0.8c-1.8,1.5-4.2,3.8-5.6,5.4L-10145-10227.7z M-10143.9-10225.7
				c2.2-0.6,6.3-1.9,8.1-3l0.4,0.6c-0.7,1.1-1.6,5.5-1.6,6.7l-1.4-0.3c0.4-1.1,0.9-3.4,1-4.9c-1.4,0.2-4.7,1.3-5.7,2
				L-10143.9-10225.7z"/>
			<path class="st5" d="M-10146.7-10230.6h1.7c-0.4,2.2,1.6,5.5,4.5,7.4s5.5,1.6,5.9-0.7s-1.6-5.5-4.5-7.4c-1.1-0.7-2.3-1.2-3.3-1.2
				l-1.2,1.5l-1.5-1.5l1.7-1.7c6,0.9,10.8,6.5,10.7,12.4c0,0.5-0.1,1-0.1,1.5c-5.8,1-11.9-3.1-13.6-9
				C-10146.5-10229.8-10146.6-10230.2-10146.7-10230.6z"/>
		</g>
	</g>
	<g transform="rotate(270)">
		<g id="a_00000163791705737785348150000010897743716727731593_">
			<path class="st5" d="M-10139.3-10289c0.9,1.2,3.3,3.5,5,4.9l-0.8,1.3c-1.5-1.8-3.8-4.2-5.4-5.6L-10139.3-10289z
				 M-10141.3-10287.9c0.6,2.2,1.9,6.3,3,8.1l-0.6,0.4c-1.1-0.7-5.5-1.6-6.7-1.6l0.3-1.4c1.1,0.4,3.4,0.9,4.9,1
				c-0.2-1.4-1.3-4.7-2-5.7L-10141.3-10287.9z"/>
			<path class="st5" d="M-10136.4-10290.7v1.7c-2.2-0.4-5.5,1.6-7.4,4.5s-1.6,5.5,0.7,5.9s5.5-1.6,7.4-4.5c0.7-1.1,1.2-2.3,1.2-3.3
				l-1.5-1.2l1.5-1.5l1.7,1.7c-0.9,6-6.5,10.8-12.4,10.7c-0.5,0-1-0.1-1.5-0.1c-1-5.8,3.1-11.9,9-13.6
				C-10137.2-10290.5-10136.8-10290.6-10136.4-10290.7z"/>
		</g>
	</g>
</g>
<g transform="translate(10368 10368)">
	<path d="M-10139.1-10236.1c-0.8-1.4-1.8-3.1-2.4-3.6c0.3-0.2,0.8-0.6,1.1-0.7c0,0.9,1.3,2.7,1.3,2.7l1.9-1.3
		c-0.5-0.8-1-1.5-1.4-1.7c0.5-0.3,1-0.6,1.1-0.7c0,0.4,0.3,1.1,1,2c0,0,1.8-1,2.4-1.7l0.8,1.2
		C-10134.1-10239.6-10137.9-10237.2-10139.1-10236.1z M-10141.8-10252.5c-2,0.4-3.1,2.1-2.7,4c0.3,2,2.1,3.3,4,3
		c1.9-0.3,3-2.1,2.7-4.2C-10138.1-10251.8-10139.7-10252.9-10141.8-10252.5z M-10141.5-10251.4c1.6-0.3,3,0.5,3.2,1.8
		c0.2,1.3-0.8,2.5-2.4,2.8c-1.6,0.3-2.9-0.7-3.1-1.8C-10144-10249.7-10143.1-10251.1-10141.5-10251.4z M-10137.5-10263.3
		c-0.7,1.1-2.2,2-3.5,2.9c-0.2-0.9-0.9-1.5-1.7-1.6c-0.9,0-1.7,0.6-1.9,1.1c-0.2,0.6-0.5,3.3-0.5,3.3c1.7-0.1,5.4,0.2,6.7,0.6
		l0.2-1.4c-0.8,0.2-2.7-0.2-2.7-0.2l0-0.6l2-1.5c0.2-0.2,1.7-1.6,1.8-2.5C-10137.2-10263.5-10137.4-10263.4-10137.5-10263.3z
		 M-10141.4-10258.5c-0.8,0-2.4-0.1-2.8-0.3c0.2-1.6,0.7-2.1,1.5-2C-10142-10260.7-10141.2-10260.3-10141.4-10258.5z
		 M-10134-10277.7c-1.5,0.1-3.3,1.5-3.3,2.7c0,0.6,0.2,1.5,1.1,2.1c0.8,0.6,1.7,0.8,2.4,0.7c0.7-0.1,1.8-1,1.7-1.6
		c0-0.5-1.2-1.9-1.9-1.9l1.2-1.3c0.3,0.8,1.6,1.9,2,2c-0.5,1.3-1.2,2.6-2.6,3.2c-1.4,0.7-2.8,0.6-4.1-0.6c-1.2-1.2-0.8-3.4,0-4.3
		c0.9-1,2.5-1.4,2.5-2.1L-10134-10277.7z M-10127.1-10285l0.3,4.9c0,0,0.1,1.7-0.3,2.8l1.5-1.1c-0.6-0.5-0.5-1.9-0.5-1.9l2.5-1.3
		c0,0,1.2,0.7,1.1,1.7l2.1-0.9c-1.2-0.5-2.7-1.5-2.7-1.5L-10127.1-10285z M-10126.3-10283.5l2.3,1.5l-2.2,1.2L-10126.3-10283.5z
		 M-10115.2-10288.7c-0.3,1.2,0,3.6,0.5,5.6c1.5-0.1,2.7-0.3,3.2-0.9l0.1,1.6c-1.5,0-3.2,0.2-4.7,0.4c0-2.2-0.2-5.1-0.8-6.4
		L-10115.2-10288.7z M-10103.8-10287.9c-0.7,1-1.3,3.3-1.6,5.3c1.5,0.4,2.6,0.7,3.4,0.3l-0.5,1.6c-1.4-0.5-3-1-4.5-1.3
		c0.8-2.1,1.7-4.9,1.6-6.2L-10103.8-10287.9z M-10092.1-10282.7l-4.3,2.4c0,0-1.5,0.9-2.7,1l1.6,0.9c0.2-0.7,1.5-1.3,1.5-1.3
		l2.3,1.6c0,0-0.2,1.4-1,1.7l1.7,1.5c-0.1-1.3,0.2-3.2,0.2-3.2L-10092.1-10282.7z M-10093.2-10281.3l-0.3,2.7l-2.1-1.4
		L-10093.2-10281.3z M-10089.9-10271.2l-0.7-1.3c1.1-0.1,4.4-2,6-3l0.2,0.4l-1.4,6.5c1.3-0.5,3.3-1.6,3.9-2.2l0.8,1.4
		c-1.4-0.2-4.1,1.1-6.1,2.3l-0.2-0.3l1.2-6.4C-10086.2-10273.6-10089.5-10272.1-10089.9-10271.2z M-10079.8-10261.7
		c-0.1-1-0.2-1.6-0.6-1.8l-0.1-0.4l1.2-0.2c0.5,1.3,1,4.8,1,5.7l-1.2,0.2l-0.1-0.3c0.4-0.5,0-2.1,0-2.1c-1.8,0.2-4.9,0.7-5.4,1.3
		l-0.3-1.7C-10084.6-10260.8-10081.4-10261.2-10079.8-10261.7z M-10085.6-10247.3c0.7-1.1,2.2-2,3.5-2.9c0.2,0.9,0.9,1.5,1.7,1.6
		c0.9,0.1,1.7-0.6,1.9-1.1c0.2-0.6,0.5-3.3,0.5-3.3c-1.7,0.1-5.4-0.2-6.7-0.7l-0.2,1.4c0.8-0.2,2.7,0.2,2.7,0.2l0,0.6l-2,1.5
		c-0.3,0.2-1.7,1.6-1.8,2.5C-10085.9-10247.1-10085.7-10247.2-10085.6-10247.3z M-10081.6-10252.1c0.8,0,2.4,0.1,2.8,0.3
		c-0.2,1.6-0.7,2.1-1.5,2C-10081.1-10249.9-10081.9-10250.3-10081.6-10252.1z M-10087.8-10243l-1,1.7c0.8-0.1,1.9,0.5,2.7,1.1
		c0.3,0.8,1.4,2.8,1.4,4.7l1.3-2.2c-0.6-0.3-1.2-0.5-1.7-2.6c1.7-0.6,3-0.8,3.5-0.5l1.2-2c-1.3,0.8-4.5,1.6-5,1.5
		C-10085.9-10241.7-10087.4-10242.2-10087.8-10243z"/>
	<circle cx="-10095.5" cy="-10229.9" r="1.4"/>
	<circle cx="-10127.5" cy="-10229.9" r="1.4"/>
</g>
<g transform="translate(10368 13152)">
	<path d="M-10109.4-13006.4c-0.1,0.1-0.5-0.1-0.6-0.4c0,0.1,0,0.4-0.2,0.6c-0.4,0.4-0.9,0.2-1.3,0.2s-0.9,0.2-1.3-0.2
		c-0.2-0.2-0.2-0.5-0.2-0.6c-0.1,0.3-0.5,0.5-0.6,0.4c-0.1-0.1-0.1-0.5,0.2-0.7c-0.1,0-0.4,0.1-0.6,0c-0.5-0.3-0.5-0.8-0.6-1.2
		c-0.1-0.4-0.5-0.7-0.2-1.3c0.1-0.2,0.4-0.3,0.5-0.4c-0.3,0-0.6-0.3-0.6-0.4c0.1-0.2,0.5-0.2,0.7,0c-0.1-0.1-0.2-0.3-0.2-0.6
		c0.1-0.6,0.6-0.7,0.9-0.9c0.3-0.2,0.6-0.7,1.2-0.6c0.2,0,0.4,0.3,0.5,0.3c-0.1-0.3,0.1-0.7,0.2-0.7s0.4,0.4,0.2,0.7
		c0.1-0.1,0.3-0.3,0.5-0.3c0.6-0.1,0.9,0.4,1.2,0.6c0.3,0.2,0.8,0.3,0.9,0.9c0,0.2-0.1,0.5-0.2,0.6c0.2-0.2,0.7-0.1,0.7,0
		c0,0.2-0.2,0.5-0.6,0.4c0.1,0,0.4,0.2,0.5,0.4c0.3,0.6-0.1,0.9-0.2,1.3c-0.1,0.4-0.1,0.9-0.6,1.2c-0.2,0.1-0.5,0-0.6,0
		C-10109.3-13006.9-10109.3-13006.5-10109.4-13006.4z M-10112.5-13007.9c0.2,0.1-0.3,0.5-0.1,1c0.2,0.6,0.8,0.4,1.1,0.4
		s0.9,0.2,1.1-0.4c0.2-0.5-0.3-0.9-0.1-1c0.2-0.1,0.4,0.4,0.9,0.4c0.6,0,0.6-0.6,0.7-0.9c0.1-0.3,0.5-0.8,0-1.2
		c-0.4-0.3-0.9,0-1-0.2c-0.1-0.2,0.5-0.2,0.7-0.7c0.2-0.6-0.4-0.8-0.7-1c-0.3-0.2-0.6-0.7-1.2-0.3c-0.4,0.3-0.3,0.9-0.5,0.9
		s-0.1-0.6-0.5-0.9c-0.5-0.3-0.9,0.1-1.2,0.3c-0.3,0.2-0.8,0.4-0.7,1c0.2,0.5,0.8,0.5,0.7,0.7c-0.1,0.2-0.6-0.1-1,0.2
		c-0.5,0.4-0.1,0.9,0,1.2c0.1,0.3,0.1,0.9,0.7,0.9C-10112.9-13007.5-10112.7-13008-10112.5-13007.9z"/>
	<path d="M-10111.5-13007.1c-0.1,0-0.2-0.2-0.2-0.4c0,0.1-0.2,0.2-0.3,0.2c-0.4,0.1-0.5-0.2-0.7-0.3c-0.2-0.1-0.5-0.2-0.6-0.6
		c0-0.2,0.1-0.3,0.1-0.4c-0.2,0.1-0.4,0.1-0.4,0c0-0.1,0.2-0.3,0.3-0.3c-0.1,0-0.2-0.1-0.3-0.2c-0.2-0.3,0-0.6,0.1-0.8
		c0.1-0.2,0-0.5,0.4-0.7c0.1-0.1,0.3,0,0.4,0c-0.2-0.1-0.2-0.4-0.1-0.4c0.1-0.1,0.3,0.1,0.4,0.2c0-0.1,0-0.2,0.1-0.3
		c0.3-0.3,0.6-0.1,0.8-0.1s0.5-0.1,0.8,0.1c0.1,0.1,0.1,0.3,0.1,0.3c0.1-0.2,0.3-0.3,0.4-0.2c0.1,0.1,0,0.3-0.1,0.4
		c0.1,0,0.2-0.1,0.4,0c0.3,0.2,0.3,0.5,0.4,0.7c0.1,0.2,0.3,0.4,0.1,0.8c-0.1,0.1-0.2,0.2-0.3,0.2c0.2,0,0.4,0.2,0.3,0.3
		c0,0.1-0.3,0.1-0.4,0c0,0,0.1,0.2,0.1,0.4c-0.1,0.4-0.4,0.4-0.6,0.6c-0.2,0.1-0.3,0.4-0.7,0.3c-0.2,0-0.3-0.2-0.3-0.2
		C-10111.3-13007.4-10111.4-13007.1-10111.5-13007.1z M-10111.5-13008.4c0.1,0,0,0.3,0.3,0.5c0.3,0.2,0.5-0.1,0.6-0.2
		c0.2-0.1,0.5-0.2,0.4-0.5c-0.1-0.3-0.4-0.3-0.4-0.4c0-0.1,0.3,0.1,0.5-0.1c0.3-0.2,0.1-0.5,0-0.6c-0.1-0.2-0.1-0.5-0.4-0.5
		c-0.3,0-0.4,0.3-0.5,0.2c-0.1-0.1,0.2-0.3,0.1-0.5c-0.1-0.3-0.4-0.2-0.6-0.2s-0.5-0.1-0.6,0.2c-0.1,0.3,0.2,0.5,0.1,0.5
		c-0.1,0.1-0.2-0.2-0.5-0.2c-0.3,0-0.3,0.3-0.4,0.5c-0.1,0.2-0.2,0.4,0,0.6c0.2,0.2,0.5,0,0.5,0.1c0,0.1-0.3,0.1-0.4,0.4
		c-0.1,0.3,0.2,0.4,0.4,0.5c0.2,0.1,0.3,0.4,0.6,0.2C-10111.5-13008-10111.6-13008.4-10111.5-13008.4z"/>
	<circle cx="-10111.5" cy="-13009.3" r="0.5"/>
</g>
<g>
	<path class="st6" d="M238.8,131.1c11.8-0.5,23.6-0.5,35.4,0"/>
	<path class="st7" d="M255.2,99.8c0.8,0.9,0.9,1.1,0.9,1.1 M257.6,115c-0.1,0.9,0,1.9,0.1,2.4 M255.3,115.2c0.3,0.4,0.8,1.7,0.7,2.2
		"/>
	<path class="st8" d="M262.7,131c-0.4,0.1-1.2,0.6-1.2,0.9c0,0.4,0.9,0.4,1.1,0.5c-0.5,0.2-2,0.5-2.6,0.1c-0.5,0.3-3.9-0.5-4.6-0.5
		c-0.4,0-1.1-0.4-1-1.2c0-0.2,0.1-0.6,0.5-0.7c-0.2-0.4,0.8-1.1,1.9-1.7c-1.6,0.2-3.5-0.4-4-1c-1.2-0.4-1.7,0-2.2,1
		c0,1.8-1,2.6-2.1,2.5c-0.8-0.1-1,0.3-1.2,0.4l2.4,0.7c1.6,1.5,0.7,2.6,0.3,2.9c-0.3,0.3-1.2,0.1-1.8,0.1c-0.5,0-0.5,0.2-0.8,0.3
		c-0.4,0.2-0.8,0.3-0.9,0.1c0.1-0.2,0.2-1.2,0.9-1.4c0.4,0,1.1-0.2,1.1-0.6c0-0.4-1.3-0.3-2.3-0.7c-0.9-0.3-1.2-0.8-0.8-2.1
		c0.2-1.5,2-1.7,2.9-1.7c-0.1-0.6,0-1.7,0.8-2.5c1.2-1.1,3-0.7,4.5-0.6c0.9-0.5,2.5-1.2,4.1-1.3c1.4-0.1,7.8-1.7,10.7-1.4
		c-0.7-1-0.5-3.2,0.7-3.9c1.5-0.8,3.1,1.4,3.5,1c0.4-0.4-0.5-1-1.6-2.2c-0.3-0.5-0.2-0.4-0.2-0.6c0-0.4,0.1-0.8,0.2-0.9
		c0.1-0.1,1,0.2,1.2,0.6c0.3,0.4,0.7,0.7,1,0.4c0.4-0.3-0.1-0.2-0.3-0.8c-0.1-0.3-0.4-0.6-0.3-0.9c0.2-0.2,1.1-0.9,1.7-1.2
		c0.3,0.3,0.4,0.6,0.7,1c0.5,0.8,1,0.6,1.4,1.1c0.1,0.2,0.1,0.8,0.4,1.3c0.5,0.9,1.4,1.9,2.6,2.6c0.2,0.1,0.4,0.3,0.5,0.5
		c0,0.3-0.2,0.6-0.3,0.7c-0.2,0.2-0.7,0.2-1.2,0c-0.8-0.4-1.1-0.6-1.5-0.5c-1,0.2-1.7,1.8-3.1,1.8c-1.4-0.2-2.3-2.2-3.1-1.6
		c-0.8,0.6,1.9,2.3,1.5,3c0.2,0.2,0.6,0.8,0.5,1.2c1.4-0.3,2.4-1.2,2.8-2c0.7-1,1.2-1.5,1.7-1.7c0.4-0.2,0.9,0.1,0.9,0.4
		c0.2,0,0.4,0.2,0.7,0.2c0.4,0.2,0.2,0.6,0.1,0.7c0-0.1-0.2-0.1-0.4-0.2c-0.2-0.1-0.6,0.2-0.9,0.4c-0.3,0.2-0.5,0.9-0.9,1.2
		c-0.3,0.4-1.1,1.2-1.5,1.6c0.2,0.3,0.1,0.8,0.1,1.1c0.1,0,0.3,0.1,0.5,0.2c0.1,0.1,0.1,0.2,0.1,0.5c-0.1,0.4-1.4,2-1.8,2
		c-0.6,0-1-0.7-0.9-1c-0.7,0.3-0.9-0.4-1-0.7c-0.2,0.3-1.2,0.9-1.6,1c-0.3,0.1-0.5,0.2-0.6-0.3c-0.1,0.3-1,0.6-1.2,0.7
		c-1.1,0.2-2.3,0.7-3.4,0.7l-2.8-0.1L262.7,131z"/>
	<path class="st9" d="M266.6,120.5c0,0.4-0.6,1.6,0.3,2.3c0.6,0.5,1.6,0.9,1.9,1.5c0.3,0.5-0.1,1-0.2,1c-0.6-0.1-1.4,0.9-1.7,1.6
		c-0.3-1-1-0.8-1.8-0.6c0.2-1.1-0.6-1.7-1.9-1.9c0.2-0.2-0.1-0.6-0.5-0.8c-0.3-0.3-1.3-0.1-1.4-0.3c-0.1-0.2,0.5-0.7,0.2-1.1
		c-0.3-0.5-1.5-0.2-1.9-0.4c0.1-0.6,0.2-0.9-0.1-1.4c-0.3-0.5-1.7-0.4-2.4-0.5c0.6-0.4,0.8-1,0.5-1.6c-0.3-0.7-1.8,0.1-1.8-0.7
		c0-0.3,1.7-0.6,2.4-0.6c0.6,0,2.8,0.5,4.8,1C263.3,118.3,266.5,119.2,266.6,120.5z"/>
	<path class="st10" d="M272,128.8c1-0.5,2-1.2,3-2.1 M256.1,125.9c0.9,0,2.9,0.3,3.4,1.1c0.6,0.8,0.9,2-3,3c1.2,0,2.9-0.3,3.5-0.1
		c0.6-0.1,1.8-0.5,2.3-0.3c-0.2,0.1-0.9,0.3-0.9,0.7s0.3,0.5,0.8,0.6 M266.2,128.2c1.4,0.3,3.3-0.1,3.6,1.3"/>
	<path class="st7" d="M270.8,117.1c0.4,0.4,1.4,1.1,2,1.5c0.7,0.5,1.1-0.1,0.5-1.1"/>
	<path class="st11" d="M261.1,123.3c1.4-0.3,3.3-0.6,4.5-0.5 M259.4,121.8c2.2-0.6,4.5-0.3,6-0.3 M265.1,126.2
		c0.4-0.5,1.3-1.2,2-1.9 M263.1,124.4c0.7-0.3,1.9-0.7,3-0.9 M262.9,117.9c1.2-1.1,2.5-1,3.8-1.7c0.8-0.4,1.5-1.5,2.2-2.3
		c0.4-0.3,0.6-0.5,1.5-0.5c0.9,0.1,1.1,0.4-0.2,0.5c-0.9,0.1-0.9,0.5-1.2,1.2c-0.3,0.6,0,1.2,0.2,1.7c-0.2,0.5-0.5,1.1-0.6,1.6
		c0,0.2,0.1,0.4,0.4,0.8 M256.9,119.9c3-0.7,7.4,0.5,8.2,0.5"/>
	<path class="st12" d="M275.5,124.7c1-0.5,1-1.5,2.3-2 M272.9,129.4c1.3-0.6,1.5-1.1,2.2-1.6 M275.8,117.7c-0.1,0.1-0.4,0-0.6-0.2
		c-0.1-0.2-0.2-0.5-0.1-0.6c0.1-0.1,0.3-0.1,0.5,0.1C275.9,117.2,275.9,117.6,275.8,117.7z M276,120c-0.6,0.1-0.7-0.4-1.3-0.5
		c-0.6-0.1-1.1,0.3-1.1,0.7c0,0.4,0.4,0.7,0.8,0.7s0.7-0.3,1.5-0.2 M273.2,115.4c0.5,0,1,0.1,1.3-0.2"/>
	<path class="st13" d="M257.2,105.2c-0.1,0-0.2,0-0.2-0.2c0-0.1,0-0.3,0-0.3c-0.1,0-0.2-0.1-0.2-0.2c0-0.1,0-0.3,0.1-0.3l0,0
		c-0.1,0-0.2-0.1-0.2-0.2c0-0.1,0-0.3,0.1-0.3c-0.1,0-0.2-0.1-0.2-0.2c0-0.1,0-0.3,0.1-0.3c-0.1,0-0.2-0.1-0.2-0.2
		c0-0.1,0-0.3,0.1-0.3c-0.1,0-0.2-0.1-0.2-0.2c0-0.1,0-0.3,0.1-0.3c-0.1,0-0.2-0.1-0.2-0.2c0-0.1,0-0.3,0.1-0.3l0,0
		c-0.1,0-0.2-0.1-0.2-0.2c0-0.2,0-0.3,0.1-0.3l0,0c-0.1,0-0.1-0.1-0.2-0.2c0-0.1,0-0.3,0.1-0.3c-0.1,0-0.1-0.1-0.2-0.3
		c0-0.2,0-0.3,0.1-0.3c-0.1,0-0.1-0.1-0.1-0.2c0-0.2,0.1-0.3,0.1-0.3c-0.1,0-0.1-0.1-0.1-0.3c0-0.2,0.1-0.3,0.1-0.3
		c-0.1,0-0.1-0.1-0.1-0.3c0-0.2,0.1-0.3,0.2-0.3c-0.1,0-0.1-0.1-0.1-0.3c0-0.2,0.1-0.3,0.2-0.3l0,0c-0.1,0-0.1-0.1-0.1-0.3
		c0-0.2,0.1-0.3,0.2-0.3c-0.1,0-0.1-0.1-0.1-0.3c0-0.2,0.1-0.3,0.2-0.3c-0.1,0-0.1-0.1-0.1-0.3c0-0.1,0.1-0.3,0.2-0.3
		c-0.1,0-0.1-0.1-0.1-0.3c0.1-0.1,0.2-0.3,0.2-0.3c-0.1,0-0.1-0.2,0-0.3c0.1-0.1,0.2-0.3,0.3-0.2c-0.1,0-0.1-0.2,0-0.3
		c0.1-0.1,0.2-0.2,0.3-0.2c-0.1,0-0.1-0.2,0-0.3c0.1-0.1,0.2-0.2,0.3-0.2c-0.1,0-0.1-0.2,0-0.3c0.1-0.1,0.2-0.2,0.3-0.2
		c-0.1,0,0-0.2,0.1-0.3c0.1-0.1,0.3-0.2,0.3-0.2c-0.1-0.1,0-0.2,0.1-0.3c0.1-0.1,0.3-0.2,0.4-0.1l0,0"/>
	<path class="st14" d="M257.8,105l-0.6,0.2 M257.7,104.5l-0.7,0.2 M257.6,104l-0.7,0.2 M257.5,103.5l-0.8,0.2 M257.4,103l-0.8,0.2
		 M257.3,102.5l-0.9,0.2 M257.3,102l-0.9,0.1 M257.2,101.5l-0.9,0.1 M257.2,100.9l-1,0.1 M257.2,100.4l-1,0.1 M257.2,99.9l-1.1,0
		 M257.2,99.4l-1.1,0 M257.3,98.9l-1.2-0.1 M257.3,98.4l-1.2-0.1 M257.4,97.9l-1.2-0.2 M257.6,97.4l-1.3-0.3 M257.7,96.9l-1.3-0.4
		 M257.9,96.5l-1.3-0.4 M258.1,96.1l-1.3-0.6 M258.3,95.6L257,95 M258.5,95.2l-1.3-0.8 M258.8,94.8l-1.3-0.9 M259.1,94.4l-1.2-1
		 M259.5,94.1l-1.2-1.2 M259.9,93.8l-1.1-1.3"/>
	<path class="st8" d="M264.7,97.9c-0.6,0.1-1,0.2-1.8,0.2c-0.2,0.4-0.2,1.4-0.2,1.8c1.7,1.7,3.4,3.8,3.5,5.8
		c0.5,0.4,0.9,0.9,1.2,1.7c1.2-0.6,2.5-1.7,3.6-2c0.7-0.2,1.9-0.2,2.5,0.1c0.3,0.2,3.3,2,4.2,2.5c0.9,0.5,1.5,1.2,1.9,1.9
		c0.4,0.6,0.5,1.7,0.3,2l-2.5-0.7c-0.2-0.4,0-0.9,0.2-1.3c0.2-0.4,0.2-0.4-0.2-0.7c-0.2-0.2-0.6-0.1-0.8-0.1c-0.2,0-0.6-0.1-0.8-0.4
		c-0.2-0.4-2.9-1.5-3.3-1.6c-0.4-0.1-1.1-0.1-1.6,0.4c-0.3,0.4-1.1,1.8-1.8,2.4c-0.2,0.2-0.2,0.4-0.1,0.6c0,0,1.7-0.1,2.7,0.1
		c1,0.2,2.3,1.2,2.8,1.9c2.5,2.3,3.5,3.6,4.3,4.4c0.4,0.4,0.8,0.8,0.7,1.3l-2.5,0c0-0.9-0.1-1.5-0.3-2c-0.3-0.4-0.8-0.2-1-0.2
		c-0.2,0-0.5-0.4-0.8-0.8c-0.3-0.7-1.7-1.6-2.3-2c-0.6-0.4-0.8-0.2-1.4-0.3c-0.4-0.1-1.2-0.3-1.9,0c-0.6,0.2-2.5,0.8-4.2,1
		c-0.6,0.3-2.5,0.6-4.4,1.1c-1.5,0.3-4.8,0.8-5.5,0.9c-0.2,1.6-1.9,3.8-2.4,4.1c-0.5,0.7-0.5,1.2-0.1,1.5c0.3,0.3,2.9,0.3,3.5,0.3
		c0.6,0,1.9,0.1,2.1,0.1c0.4,0.1,1,0.6,1.6,0.9c0.5,0.2,0.6,0.5,0.9,1c0.2,0.3,0.5,0.6,0.6,0.9l-3-0.1c0-0.6-0.3-1.2-0.8-1.2
		c-0.4,0.3-0.9,0.6-1.5,0.4c-2.3-0.1-3.8,0-5.9-0.2c-0.6,0-1.2-0.9-0.9-1.7c0.2-0.8,0.1-1.4,0-2c-0.2,0.2-1.1,1.1-1.5,1.6
		c-0.7,0.8-0.3,1.7,0,2.2c0.4,0.4,2.9,2.7,3.2,3.5c0.2,0.4,1.2,1.2,2.2,2c0.3,0.7,0.9,1.1,1.4,1.6l-3.8,0c0.1-0.2,0.2-0.5,0.2-1
		c0-0.2-0.2-0.6-0.7-0.6c-0.5,0.1-0.9-0.5-1.1-1c-0.2-0.5-1.8-2.6-2.3-3.1c-0.5-0.5-2-2-2.3-2.1c-0.3-0.1-0.3-0.7,0-1
		c0.3-0.3,1.3-1.8,1.6-2.8c0.2-0.7,0-0.7-0.2-0.9c-1.6-1.2-3.1-2.9-3.9-4.4c-0.3,0.2-2.1,0.2-3-0.3c-0.7-0.3-1.6-0.4-2.1,0.3
		c-0.3,0.5-0.3,1.3,0.2,1.7c0.7,0.5,1.6,1.4,2.4,2.5c0.8,1,0.1,1.7-0.9,2.6c0.2,0.4,0,0.3,0.2,1c0.3,0.5,0.3,1.8-0.1,2
		c-0.4,0.3-1,0.6-1.5,1.2c-0.5,0.6-0.7,0-0.5-1c0.1-0.7-0.4-1.2-0.9-1.7c-0.4-0.5-0.2-2,0.1-2.4c0.3-0.4,0.6-1.3-0.1-1.9
		c-0.6-0.6-1.9-2-1.7-3.7c0.2-2.3,2.5-3.1,3.8-2.5c2.2,1,3.5,0.8,4.1,0.6c0.7-1.1,1.5-2.1,2.8-2.8c1.2-0.7,3.7-1.7,6.1-2.1l6-2.1
		c0.8-0.2,0.8-1,0.7-1.4c-0.8-4.1-0.5-8.3,2.8-10.5c0.3-0.3,0.2-1.2,0.8-1.9c0.1,0.3,0.8,1.1,0.9,1.7c1.4,0.5,4,1.4,5,1.9
		c0.5,0.2,1,0.3,1.3,0.4c0.3,0.1,0.5,0.4,0.7,0.7c0.3,0.5,0,1-0.3,1.1c-0.2,0.1-1.4-0.3-1.7,0c0.1,0.3,0.4,0.6,1,0.8
		c0.3,0.1-0.2,0.7-0.5,0.7c-0.2,0-0.5-0.1-0.6-0.2C266.2,98.4,265.4,98.1,264.7,97.9z"/>
	<path class="st10" d="M260.5,95.2c0,2.5,0.8,3.8,2.2,4.6 M267.5,107.3c0.2,1.1,0.2,2.1,0,3 M249.2,120c1.9-0.9,3.5-3,3.5-4.3
		c0-0.7-0.6-1.9-2.3-2 M252.7,115.7c0.5,0.2,1.7,0.1,2.5,0.2 M264.5,109.8c1.5,0.1,3.4,0.9,4.4,0.9 M263.8,112.7
		c1.2,0.3,1.3,0.9,3.8,0.7 M263.2,104.4c1.4,0,2.3,0.7,3.1,1.3"/>
	<path class="st11" d="M252.4,116.8c1,0,1.8-0.1,2.2-1 M260.5,95.2c-0.1,2,0.8,2.5,2.3,2.8"/>
	<path class="st12" d="M268.4,95.6c-0.1,0.5-0.1,0.9,0.7,0.9 M264.6,94.2c-0.7,1.7,2.6,1.9,2.8,2.9 M249,107.9
		c1.6,0.7,1.4,3.9,1.4,5.8"/>
	<path class="st15" d="M266.6,97.1c-0.5,1-1.7,2.6-2.8,3.5c-1.7,1.2-3.6,2.2-6,2.7c-0.3,0.1-0.7,0.2-1.2,0.1c-0.4-0.1-0.9-0.4-1.2-1
		c-0.2-0.3-0.1-1.9,0.5-2.2c0.6-0.2,1.2-0.3,1.8-0.3c0.3,0,0.8,0.1,0.7,0.6c0,0.4-0.4,0.6-0.8,0.5c-0.5-0.1-1.2-0.4-1.5-0.1
		c-0.3,0.2-0.4,0.9-0.2,1.2c0.3,0.5,0.6,0.7,0.9,0.7c0.3,0.1,0.6,0,0.9-0.1c2.3-0.5,4-1.4,5.8-2.6c1.1-0.8,2.3-2.5,2.7-3.2
		L266.6,97.1z M257.8,100.3c-0.7-0.1-1.8,0-1.9,0.3c0.5-0.3,1.1-0.2,1.8,0C258,100.6,258.1,100.3,257.8,100.3z M262.2,94.8l0.3-0.5
		c0.1-0.1-0.2-1.3,1-0.7c1.2,0.6,0.2,1.2,0.2,1.3c-0.1,0.1-0.3,0.5-0.3,0.5"/>
	<path class="st7" d="M260.1,93.7l7,3.7"/>
	<g>
		<path class="st9" d="M251.2,93.9c-1.2,0.1-3.5-0.1-4.8-0.3c-0.6-0.1-2.3,2.3-3.2,2.5c-0.9,0.2-1.7-1.8-3-1.3
			c-0.6,0.5,0,2.9-0.3,3.2c-0.4,0.3-1.5-1.2-2.3-0.7c-0.7,0.5,0.6,3.7,0.3,4.1c-0.3,0.3-2-1.4-2.4-1.1c-0.5,0.3,0.5,5.3,0.1,5.6
			c-0.5,0.3-2.7-1.3-3-0.6c-0.3,0.7,3.2,2.3,4.2,2.3l1-0.4c0.3,0.2,3.1,0.4,3.4,0.4l1.6-1.6c2.4-3.2,5.1-6.2,8.6-6V93.9z"/>
		<path class="st11" d="M240.5,94.7l4.7-0.2 M237.7,97.2l2.3-0.8 M235.6,100.2l2.1-0.9 M232.5,105.1l2.9-2.6 M237.7,107.1
			c1.2-2.2,3.7-4.5,5.8-5.8 M235.6,105.8c1.7-2.1,6.7-5.6,8.3-5.8 M239.9,98c2.1-1,5-1.1,7.4-1.3 M243.3,96.1c0.3,0,3.9-0.5,5.4-0.4
			 M237.9,101.4c2.8-1.6,5.5-2.9,8.5-3.9"/>
	</g>
	<path class="st16" d="M261.2,135.1c0.2,0.1,0.4,0.5,0.4,0.5s-0.5,0.2-0.7,0.2l-21.7-6.5c-0.6-0.2-0.4-1.2,0.3-1L261.2,135.1z
		 M240.5,104.8c-0.1-0.4-0.5-0.8-0.8-0.9c-0.2,0-0.7,0.5-0.6,0.6c0.1,0.3,0.7,0.7,0.9,0.8L240.5,104.8z M242.5,105.6l-1.8,1.8
		c-0.2,0.2,0.2,0.6,0.4,0.4l1.8-1.8C243.2,105.8,242.7,105.4,242.5,105.6z M241.6,107.3l5.7,5.9l1.2,0.2l-0.2-1.2l-5.9-5.7
		L241.6,107.3z"/>
	<path class="st17" d="M247.6,112.5l-5.6-5.6"/>
	<path class="st8" d="M255.1,96.3c0-0.3,0.1-0.5,0.3-0.7c0.4-0.3,0.3-0.1,0.5,0c0.2,0.1,0.4,0.3,0.5,0.4c0.2,0.1,0.2,0.1,0.3,0
		c0.1-0.2,0.1-0.5,0.2-0.6c0.1,0,0.2,0,0.2-0.2c0.1,0,0.2-0.1,0.1-0.2c0-0.1,0.1-0.3,0.2-0.3c0.2,0,0.5,0.2,0.5,0
		c0-0.2,0.1-0.7,0.2-1.2c0.4,0.1,0.3-0.4,0.5-0.5c0.5,0.2,0.7-0.6,0.4-0.9c0-0.6,0.5-0.7,1.2-0.7c-0.1-0.4-0.6-0.5-1-1.1
		c-0.4-0.5-1.5-1.2-2.8-1.2c-1.3,0-2.3,1.2-2.8,1.7c-0.5,0.5-1.4,0.7-1.7,0.7c-0.3-0.1-0.4-0.3-0.7-0.3c0,0-0.8,0-1.3,0
		c-0.4,0-0.6,0.3-1.1,0.2c-0.3,0-1.5,0-1.8,0.1c-0.3,0.1,0,0.9,0.4,0.9c0.2,0,1.1,0.1,1.4,0.3c0.4,0.2,1.5,0.3,2,0.1
		c0.9-0.3,1.6,0.3,2.6,0.5l0.3,0.1c0,0.5,0,0.8-0.3,0.8c-0.2,0-0.7,0-0.9,0c-0.1,0-0.7-0.4-1-0.4c-0.5-0.1-0.7,0.1-0.9,0.2
		c-1.2,0.5-5.7,4-6.1,4.8c-0.5,0.9-1.2,1.4-1.9,2.7c-0.4,0.7-1.1,1.6-1.6,2.8c-0.7,0.3-1.5,1-1.6,1.2c-0.1,0.2,0.1,0.5,0.3,0.4
		c-0.1,0.1,0.2,0.4,0.4,0.4c-0.1,0.1,0.2,0.4,0.4,0.3c-0.1,0.1,0.1,0.5,0.3,0.5l1.8-1.8c0-0.8,0.5-1.6,0.7-2.1
		c1-1.2,2.2-3.1,2.6-3.6c0.2-0.3,2.3-1.1,2.9-1.7c-0.1,1.5-0.1,2.6,0.1,3.5c0.3,1.5,0.8,2.4,1.1,3.7c0.3,1.2,0,2,0.1,2.6
		c0,0.5,0.2,0.5,0.6,0.7c0.4,0.3,2.2,0,2.7,0.2c1,0.3,1.9,0.3,2.3,0.4c1.3-0.2,2.2,0.2,2.6,0.5c0.4,0.3,1.2,2.2,1.5,2.9
		c0.3,0.7,1.9,1.6,2.3,2c0.3,0.4,0.6,1.5,0.5,2c-0.1,0.5,0,0.7,0.5,0.6c0.4-0.1,1.8,0.2,2.1,0.4c0.3,0.1,0.9,0.6,1.1,0.7
		c0.2,0,1.2,0.1,1.7,0.1s0.5-0.8,0.2-0.9c-0.2,0-1-0.2-1.5-0.3c-0.5-0.1-1.6-1.1-2-1.6c-0.4-0.5-0.7-1.3-0.9-1.8
		c-0.3-0.5-1.9-2.8-2.3-3.3c-0.1-0.2-1-2.3-1.2-2.8c-0.2-0.5-0.6-0.6-0.9-0.7c-1.3-0.4-1.9-0.6-3.2-0.8c-1-0.2-1.2-0.2-1.3-1
		c-0.1-0.6-0.5-1.6-0.3-2.3c0.1-0.2,0.2-1,0.3-1.4c0.1-0.3,0.3-0.9,0.3-1.3c0.1-0.5,0.2-1.9,0.2-2.3
		C255.3,97.3,255.2,96.8,255.1,96.3z M256.2,102.4c-0.1,0-0.8,0.1-1.1,0c-0.1-0.1-0.1-0.3,0-0.3c-0.1,0-0.2-0.3,0-0.3
		c-0.1,0-0.2-0.3,0-0.4c-0.2-0.1-0.2-0.3,0-0.3c0.1-0.1,0.8-0.1,1.1-0.1C256.3,101.4,256.2,102,256.2,102.4z"/>
	<path class="st10" d="M253.7,93.7c0.3,0.2,0.3,0,0.8-0.2c0.6-0.2,0.9,0.3,0.7,0.8c-0.2,0.5-0.2,0.8,0.4,0.9s0.7-0.5,0.9-0.7
		c0.1-0.2,0.4-0.2,0.6-0.5c0.1-0.6,0.7-0.5,1.1-0.4 M259,92.2c-0.3,0.2-1-0.4-1.1-0.9c-0.2-0.6-0.6-1-1.4-1c-0.7,0-2.2,0.4-2.5,1.3
		c-0.1,0.7-0.2,1.1-0.2,1.2c-0.3,0.1-0.5,0-0.6,0.1c0,0.3,0.1,0.5-0.1,0.6 M248.7,98.2l1.5-0.7"/>
	<path class="st18" d="M250.2,97.5c0.4,1,0.7,1.9,1.3,2.3 M252.4,100.2c0.6,0.3,1.1,0.2,1.8,0.1 M250.4,107.3
		c1.6,0.1,2.2,0.8,3.5,1.2c1.3,0.4,3.1,0.2,4.8,1 M249.9,102.3c0.4,0.3,1,0.5,1.4,0.5 M252,102.8c0.8,0.1,1.6,0.5,1.7,0.9
		 M251.7,104.6c0.7,0.7,2.1,1.3,3.1,1.3"/>
	<path class="st12" d="M252.9,94.5c0.7,2.3,0.8,3.2,2.5,3.6 M252.3,94.3c0.7,2.3,1.5,3.5,3,3.7 M251.6,94c0.7,2.3,1.8,3.9,3.7,4
		 M263.8,116.3c-0.3-0.3-0.4-0.4-0.7-0.9l-0.6-1.2l-0.4,0.2c-0.2,0.1-0.3-0.2-0.2-0.3l0.3-0.2l-0.4-0.8c-0.2,0,0-0.2,0.2-0.3
		c0.2-0.1,0.4-0.2,0.3,0l0.4,0.8l0.3-0.2c0.2-0.1,0.3,0.2,0.2,0.3l-0.4,0.2l0.6,1.2C263.7,115.7,263.8,115.8,263.8,116.3z"/>
	<path class="st19" d="M263.8,113.8l-1.8,0.9 M260.4,113.4l2.3-1.2 M260,113l2.4-1.2"/>
	<path class="st17" d="M240.5,106.9l0.8-0.7 M240.1,106.5l0.8-0.7 M239.7,106.2l0.8-0.7 M255.1,102.1l0.8,0 M255,101.4l0.7,0
		 M255.1,101.8l0.7-0.1 M256.7,95c0.2,0.1,0.3,0.2,0.5,0.2"/>
</g>
</svg>
