<?xml version="1.0" encoding="utf-8"?>
<!-- Generator: Adobe Illustrator 27.9.0, SVG Export Plug-In . SVG Version: 6.00 Build 0)  -->
<svg version="1.1" id="Layer_1" xmlns="http://www.w3.org/2000/svg" xmlns:xlink="http://www.w3.org/1999/xlink" x="0px" y="0px"
	 viewBox="0 0 145 15" style="enable-background:new 0 0 145 15;" xml:space="preserve">
<style type="text/css">
	.st0{fill:none;}
	.st1{fill:#FFFFFF;}
</style>
<g>
	<polygon class="st0" points="87,10.1 90.8,10.1 89,5.4 	"/>
	<path class="st0" d="M37.8,2.6c-0.6-0.5-1.4-0.7-2.3-0.7c-0.8,0-1.6,0.1-2.3,0.7c-0.7,0.6-1.3,1.3-1.6,2.2c-0.5,1-0.6,1.9-0.6,3.3
		c0,1.2,0.4,2.4,0.6,3.3c0.4,1,1,1.7,1.6,2.2c0.6,0.5,1.4,0.7,2.3,0.7s1.6-0.1,2.3-0.7s1.3-1.3,1.6-2.2c0.5-1.1,0.6-2,0.6-3.3
		c0-1.2-0.4-2.4-0.6-3.3C39,3.8,38.4,3.1,37.8,2.6z"/>
	<path class="st1" d="M9.7,8.4C9.5,8.2,9.4,8,9.2,7.8c-0.9-1-2-1.7-3.1-2.4C5.4,5.1,4.6,4.6,4.6,3.7c0-0.9,0.8-1.5,1.6-1.8
		C7.1,1.7,8.2,1.8,9,2.4c0.5,0.5,0.7,1,0.7,1.6h0.1l0.2-2.5c0,0,0-0.2,0-0.2c0,0-2.8-0.1-3.1-0.1c-0.3,0-0.6,0-0.9,0
		c-1.7,0-3.5,0.9-4,2.7C1.9,4.5,1.9,5.4,2.2,6.1c0.3,0.7,0.9,1.2,1.5,1.7c0.9,0.7,1.9,1.4,2.8,2c0.5,0.3,1,0.6,1.4,1
		c0.4,0.3,0.5,0.7,0.5,1.2c0,1.5-1.5,2-2.8,2c-0.7,0-1.4-0.1-2-0.5c-0.6-0.2-1-0.6-1.4-1.2c-0.2-0.6-0.5-1.3-0.2-1.9
		c0,0-0.2,0-0.2,0c-0.1,0.3-0.4,0.9-0.5,1c-0.1,0.5-0.2,1-0.2,1.6c0,0.2,0,0.2,0.1,0.4c0.2,0.3,0.6,0.7,1,0.8c2,0.7,4.6,1.1,6.5-0.3
		c1.4-1,1.9-3,1.3-4.6C10.1,9,9.9,8.7,9.7,8.4z"/>
	<path class="st1" d="M23.2,1.3h-1.6c0,0,0,0.1,0,0.1c0,0,0.4,0,0.4,0c0.3,0,0.6,0.1,0.8,0.2c0,0,0.1,0,0.1,0.1
		c0.2,0.2,0.2,0.6,0.2,0.8v7.6L13.5,1h-0.1c0.1,0.8,0.2,1.7,0.2,2.4c0,0.6,0,1.2,0,1.8c0,1.3,0,2.5,0,3.8c0,1.1,0,2.3,0,3.4
		c0,0.6,0.2,1.6-0.5,1.9c-0.1,0-1.1,0.1-1.1,0.1v0.1h1.6h2.5h1.6c0,0,0-0.1,0-0.1c0,0.1-1-0.1-1-0.1c-0.2,0-0.3-0.1-0.4-0.2
		c-0.2-0.2-0.2-0.5-0.2-0.7V5.7l9.8,9.2H26c-0.1-0.5-0.1-0.8-0.1-1.2c0-0.4,0-0.8,0-1.3c0,0,0-9.9,0-9.9c0-0.3,0.2-0.6,0.4-0.8
		c0.3-0.2,0.6-0.2,0.9-0.2h0.2V1.3h-1.7H23.2z"/>
	<path class="st1" d="M39.6,1.8c-1.2-0.6-2.4-0.8-4-0.8s-3,0.4-4.1,0.8c-1.1,0.5-2,1.4-2.5,2.4c-0.6,1-0.8,2.3-0.8,3.7
		c0,1.4,0.2,2.8,0.8,3.7c0.6,1,1.4,1.8,2.5,2.4c1.2,0.6,2.4,0.8,4,0.8s2.9-0.2,4-0.8c1.1-0.6,2-1.4,2.5-2.4c0.6-1,0.8-2.3,0.8-3.7
		c0-1.4-0.2-2.8-0.8-3.7C41.5,3.2,40.7,2.4,39.6,1.8z M39.4,11.3c-0.2,0.8-0.8,1.6-1.6,2.2s-1.4,0.7-2.3,0.7s-1.7-0.2-2.3-0.7
		c-0.6-0.5-1.2-1.2-1.6-2.2c-0.2-0.8-0.6-2-0.6-3.3c0-1.3,0.1-2.3,0.6-3.3c0.2-0.8,0.8-1.6,1.6-2.2C34,2,34.7,1.9,35.5,1.9
		c0.8,0,1.7,0.2,2.3,0.7c0.6,0.5,1.2,1.2,1.6,2.2c0.2,0.8,0.6,2,0.6,3.3C40,9.3,39.9,10.2,39.4,11.3z"/>
	<path class="st1" d="M69.9,1.3c-0.2,0-0.6,0-0.8,0h-3h-2.8H62h-0.2h-3.7v0.1h0.1c0.2,0,0.5,0.1,0.6,0.2c0.2,0.2,0.1,0.5,0.1,0.7
		c0,0.4-0.1,0.7-0.2,1c-0.1,0.3-0.2,0.7-0.3,1C58.2,5.2,58,6,57.7,6.8c-0.2,0.7-0.4,1.3-0.5,2c0,0.2-0.1,0.3-0.1,0.5l-3.9-8.1h-0.1
		l-3.5,8l-2.3-6.7c-0.1-0.5-0.1-0.6,0-0.7c0.1-0.1,0.5-0.2,0.6-0.2h0.1V1.3h-5.8v0.1h0.1c0.2,0,0.6,0.1,1,0.2
		C43.6,1.8,44,2,44.1,2.4l4.6,12.4h0.1c0-0.1,3.3-8.7,3.5-9.4l4.1,9.3c0,0,0.1,0,0.1,0c0,0,2.9-10.9,3.1-11.6c0.1-0.3,0.2-0.7,0.3-1
		c0.1-0.3,0.4-0.5,0.7-0.6c0.1,0,0.2,0,0.2,0c0.1,0,0.2,0,0.4,0c0.3,0,0.6,0,0.9,0c0.1,0,0.2,0,0.3,0c0.2,0,0.3,0.2,0.4,0.3
		C62.9,1.8,63,2,63,2.2c0,0.6,0,1.1,0,1.7c0,1.2,0,2.5,0,3.7c0,0.8,0,1.7,0,2.5c0,0.7,0,1.3,0,2c0,0.5,0,1.1-0.4,1.5
		c-0.2,0.2-0.6,0.3-1,0.3h-0.2V14h1.4h2.8h1.4v-0.1c0,0-0.1,0-0.2,0c-0.6,0-1.3-0.4-1.3-1.1V7.9H68c0.5,0,0.8,0.1,1.2,0.5
		c0.2,0.2,0.5,0.7,0.5,1.2v0.1h0.1V7.9V7.2V5.4h-0.1v0.1c0,0.5-0.1,0.8-0.5,1.2C69,7,68.5,7.2,68,7.2h-2.5V1.7h3.1
		c0.6,0,1,0.1,1.4,0.6c0.2,0.2,0.6,0.8,0.6,1.4v0.1h0.1v-2V1.2V1.1V0.8C70.8,0.7,70.5,1.3,69.9,1.3z"/>
	<path class="st1" d="M83.1,10.7c-0.1,0.6-0.5,1.2-0.8,1.7c-0.5,0.6-0.7,0.8-1.3,1.2c-0.6,0.2-1,0.2-1.7,0.2h-2.5c0,0,0-11.2,0-11.2
		c0-0.7,0.7-1.1,1.3-1.1c0.1,0,0.2,0,0.2,0V1.3h-1.4h-2.8h-1.4v0.3c0,0,0.2,0,0.2,0c0.6,0,1.3,0.4,1.3,1.1v10.6
		c0,0.2-0.1,0.6-0.5,0.8c-0.2,0.2-0.6,0.2-0.8,0.2h-0.2v0.1h1.4h2.8h1.8h3.6h0.1l0.8-3.7H83.1z"/>
	<path class="st1" d="M101.3,13.4c-0.1-0.2-0.1-0.4-0.1-0.6c0-3.3,0-6.3,0-9.6c0-0.3,0-0.7,0.2-0.9c0.3-0.5,0.9-0.8,1.4-0.7
		c0.1-0.1-0.1-0.2-0.1-0.2c-1.8,0-3.5,0-5.3,0c-0.1,0-0.2,0.2-0.1,0.2c0.6,0,1.3,0.4,1.5,1c0.1,0.2,0.1,0.4,0.1,0.6
		c0,1.9,0,3.8,0,5.7c0,1,0,1.9,0,2.9c0,0.3,0,0.6,0,1c0,0.2,0,0.6-0.1,0.9c0,0.1-0.1,0.1-0.2,0.2c-0.4,0.2-0.8,0.3-1.2,0.3l0,0.2
		c1.6,0,3.2,0,4.8,0c0.1,0,0.3,0,0.4,0l0-0.2c-0.2,0-0.7-0.1-0.9-0.2C101.5,13.7,101.3,13.6,101.3,13.4z"/>
	<path class="st1" d="M120.6,12.4c-0.7,0.8-1.7,1.4-2.9,1.4h-0.1H115V8.4h2.5c0.5,0,0.8,0.1,1.2,0.5c0.2,0.2,0.5,0.7,0.5,1.2v0.1
		h0.1V8.4V7.7V5.9h-0.1V6c0,0.5-0.1,0.8-0.5,1.2c-0.2,0.2-0.7,0.5-1.2,0.5H115V1.8h3.3c0.6,0,1,0.1,1.3,0.6c0.2,0.2,0.6,0.8,0.6,1.4
		v0.2h0.1V1.9V1.3V1.2c0,0,0-0.2,0-0.2c0,0.1-0.5,0.1-0.6,0.1c-0.3,0-0.7,0.1-1,0.1c-1.2,0.1-2.4,0-3.7,0c0,0,0,0,0,0h-2.5H111v0.1
		h0.2c0.3,0,0.6,0.1,0.8,0.2c0.7,0.5,0.5,1.5,0.5,2.2c0,0.9,0,1.8,0,2.7c0,1,0,2.1,0,3.1c0,0.8,0,1.7,0,2.5c0,0.3,0,0.6,0,0.9
		c0,0.2-0.1,0.6-0.5,0.8c-0.2,0.2-0.6,0.2-0.8,0.2H111c-0.5,0-0.7-0.1-1-0.2c-0.2-0.1-0.6-0.5-0.8-0.8l-4.7-6.4l3.7-4.5
		c0.2-0.2,0.6-0.5,0.8-0.6c0.5-0.1,0.7-0.2,1.2-0.2h0.1V1.2h-0.1H106v0.1c0,0,0.1,0,0.1,0c0.2,0,0.4,0.1,0.5,0.1
		c0.4,0.3-0.2,0.9-0.4,1.2c-0.4,0.6-0.9,1.1-1.2,1.6c-0.7,0.9-1.3,1.7-2,2.6c-0.3,0.4-0.7,0.9-1,1.3c0.6,0.7,1.2,1.4,1.7,2.3
		c0.7,1,1.3,2,2.2,2.8c0.5,0.5,1,0.8,1.7,1c1.3,0.2,2.4,0.2,3.7,0.2h0.1h1.3h2.8h1.8h3.7l0.8-3.9h-0.1
		C121.3,11.4,121,11.9,120.6,12.4z"/>
	<path class="st1" d="M132.5,11.6c-0.1,0.3-0.3,0.6-0.5,0.8c-0.5,0.6-1.1,1.1-1.9,1.3c-0.4,0.1-0.8,0.1-1.2,0.1c0,0-2.5,0-2.5,0V2.6
		c0-0.2,0.1-0.6,0.5-0.8c0.2-0.2,0.6-0.4,0.8-0.4c0.1,0,0.2,0,0.2,0V1.3h-1.4h-2.8h-1.4v0.1h0.2c0.3,0,0.6,0.1,0.8,0.2
		c0.2,0.1,0.3,0.5,0.4,0.6c0.1,0.3,0.1,0.5,0.1,0.8c0,0.3,0,0.6,0,0.8c0,0.4,0,0.8,0,1.2c0,0.5,0,0.9,0,1.4c0,0.5,0,1,0,1.5
		c0,0.5,0,1,0,1.5c0,0.5,0,0.9,0,1.4c0,0.4,0,0.8,0,1.2c0,0.3,0,0.6,0,0.8c0,0.1,0,0.3,0,0.4c0,0.2-0.1,0.6-0.5,0.8
		c-0.2,0.2-0.6,0.2-0.8,0.2h-0.2v0.1h1.4h2.8h1.8h3.7l0.8-3.9c0,0-0.1,0-0.1,0C132.8,10.6,132.6,11.5,132.5,11.6z"/>
	<path class="st1" d="M140.2,1.2c0,0,0,0.1,0,0.1c0,0,0.1,0,0.1,0c0.2,0,0.4,0.1,0.6,0.1c0.1,0,0.2,0.1,0.3,0.2
		c0.1,0.1,0.2,0.4,0.2,0.5c0,0.3-0.2,0.6-0.4,0.9c-0.1,0.3-0.3,0.5-0.4,0.8c-0.2,0.3-0.4,0.7-0.6,1c-0.2,0.3-0.5,0.7-0.7,1
		c-0.2,0.3-0.3,0.5-0.5,0.8c-0.1,0.2-0.7,1-0.7,1c-0.5-0.8-2.7-5.1-2.7-5.5c0-0.2,0.2-0.7,0.7-0.7h0.2V1.3h-6.3v0.1h0.2
		c0.6,0,1,0.2,1.4,0.6c0.5,0.5,3.9,6.3,3.9,6.3V13c0,0.2-0.1,0.6-0.5,0.8c-0.2,0.2-0.6,0.2-0.8,0.2c0,0-0.1,0-0.2,0v0.1h1.4h2.8h1.4
		v-0.1h-0.2c-0.2,0-0.6-0.1-0.8-0.2c-0.2-0.1-0.5-0.6-0.5-0.8V8.3c0,0,3.7-6,3.7-6c0.3-0.5,0.8-0.9,1.4-0.9c0.2,0,0.4,0,0.6,0h0.2
		V1.2H140.2z"/>
	<path class="st1" d="M97,14.1c-0.2,0-0.6-0.1-0.7-0.2c-0.2-0.1-0.3-0.2-0.5-0.4c-0.2-0.3-0.4-0.7-0.5-1.1c-0.3-0.7-0.6-1.3-0.9-2
		c-0.4-0.9-0.8-1.7-1.2-2.6c-0.4-0.9-0.8-1.8-1.3-2.7c-0.4-0.8-0.7-1.6-1.1-2.3c-0.2-0.5-0.5-1-0.7-1.5C90.1,1.2,90,1.1,90,1h-0.6
		c0,0.1-0.1,0.2-0.1,0.2c-0.1,0.2-0.2,0.4-0.3,0.6c-0.1,0.3-0.3,0.6-0.4,0.9c-0.2,0.4-0.3,0.8-0.5,1.2c-0.2,0.4-0.4,0.9-0.6,1.3
		c-0.2,0.5-0.4,1-0.6,1.4c-0.2,0.5-0.4,1-0.6,1.5c-0.2,0.5-0.4,0.9-0.6,1.4c-0.2,0.4-0.4,0.9-0.6,1.3c-0.2,0.4-0.3,0.7-0.5,1.1
		c-0.1,0.3-0.2,0.5-0.4,0.8c0,0.1-0.1,0.2-0.1,0.2c-0.1,0.2-0.2,0.4-0.3,0.6c-0.2,0.3-0.4,0.5-0.7,0.6c-0.2,0.1-0.5,0.2-0.8,0.2h4.1
		v-0.1c0,0-0.1,0-0.1,0c-0.3,0-0.6-0.1-0.7-0.4c0-0.1,0-0.3-0.1-0.4c0-0.2,0-0.4,0.1-0.7c0.1-0.2,0.2-0.4,0.2-0.6
		c0.2-0.4,0.3-0.9,0.5-1.3c0-0.1,0.1-0.2,0.1-0.3h4.1l1,2.3c0,0.2,0.1,0.3,0.1,0.4c0,0.2,0,0.3-0.1,0.4c-0.1,0.1-0.5,0.2-0.7,0.2
		h-0.1v0.1h1.6h3.1h0.9h0.7v-0.1H97z M87,10.1l2-4.7l1.8,4.7H87z"/>
</g>
</svg>
