<?xml version="1.0" encoding="utf-8"?>
<!-- Generator: Adobe Illustrator 27.9.0, SVG Export Plug-In . SVG Version: 6.00 Build 0)  -->
<svg version="1.1" id="Layer_1" xmlns="http://www.w3.org/2000/svg" xmlns:xlink="http://www.w3.org/1999/xlink" x="0px" y="0px"
	 viewBox="0 0 199 56.4" style="enable-background:new 0 0 199 56.4;" xml:space="preserve">
<style type="text/css">
	.st0{fill:#FFFFFF;}
</style>
<g>
	<g>
		<path class="st0" d="M24.2,24.8L23.6,21c-0.6-3.5-1.7-6.3-3.1-7.8l-0.4-0.5l0.4-0.5c1.4-1.4,2.5-4.2,3.1-7.8l0.6-3.8l0.6,4
			c0.6,3.5,1.7,6.3,3.1,7.8l0.4,0.5l-0.4,0.5c-1.4,1.4-2.5,4.2-3.1,7.8L24.2,24.8z M21.8,12.8c1,1.2,1.8,2.9,2.4,5.1
			c0.6-2.2,1.4-3.9,2.4-5.1c-1-1.2-1.8-2.9-2.4-5.1C23.6,9.8,22.8,11.6,21.8,12.8z"/>
	</g>
	<g>
		<path class="st0" d="M21.2,26.5l-3.6-1.4c-3.3-1.3-6.4-1.7-8.3-1.2l-0.6,0.2l-0.2-0.6c-0.5-1.9-2.4-4.3-5.2-6.6l-3-2.5l3.6,1.4
			c3.3,1.3,6.4,1.7,8.3,1.2l0.6-0.2l0.2,0.6c0.5,1.9,2.4,4.3,5.2,6.6L21.2,26.5z M9.6,22.6c1.5-0.3,3.4-0.1,5.6,0.5
			c-1.6-1.6-2.7-3.2-3.2-4.6c-1.5,0.3-3.4,0.1-5.6-0.5C7.9,19.6,9,21.2,9.6,22.6z"/>
	</g>
	<g>
		<path class="st0" d="M21.2,30l-3,2.5c-2.8,2.3-4.6,4.7-5.2,6.6l-0.2,0.6l-0.6-0.2c-1.9-0.5-4.9-0.1-8.3,1.2L0.3,42l3-2.5
			c2.8-2.3,4.6-4.7,5.2-6.6l0.2-0.6l0.6,0.2c1.9,0.5,4.9,0.1,8.3-1.2L21.2,30z M12,38c0.5-1.4,1.6-3,3.2-4.6
			c-2.2,0.6-4.1,0.7-5.6,0.5c-0.5,1.4-1.6,3-3.2,4.6C8.5,38,10.5,37.9,12,38z"/>
	</g>
	<g>
		<path class="st0" d="M24.2,31.7l0.6,3.8c0.6,3.5,1.7,6.3,3.1,7.8l0.4,0.5l-0.4,0.5c-1.4,1.4-2.5,4.2-3.1,7.8l-0.6,3.8L23.6,52
			c-0.6-3.5-1.7-6.3-3.1-7.8l-0.4-0.5l0.4-0.5c1.4-1.4,2.5-4.2,3.1-7.8L24.2,31.7z M26.6,43.8c-1-1.2-1.8-2.9-2.4-5.1
			c-0.6,2.2-1.4,3.9-2.4,5.1c1,1.2,1.8,2.9,2.4,5.1C24.8,46.7,25.6,45,26.6,43.8z"/>
	</g>
	<g>
		<path class="st0" d="M27.2,26.5l3-2.5c2.8-2.3,4.6-4.7,5.2-6.6l0.2-0.6l0.6,0.2c1.9,0.5,4.9,0.1,8.3-1.2l3.6-1.4l-3,2.5
			c-2.8,2.3-4.6,4.7-5.2,6.6l-0.2,0.6L39.1,24c-1.9-0.5-4.9-0.1-8.3,1.2L27.2,26.5z"/>
	</g>
</g>
<g>
	<circle class="st0" cx="31.9" cy="15.1" r="0.7"/>
	<circle class="st0" cx="16.7" cy="15.1" r="0.7"/>
	<circle class="st0" cx="9.1" cy="28.3" r="0.7"/>
	<circle class="st0" cx="16.8" cy="41.5" r="0.7"/>
	<circle class="st0" cx="32" cy="41.4" r="0.7"/>
	<circle class="st0" cx="39.5" cy="28.2" r="0.7"/>
</g>
<g>
	<path class="st0" d="M62,27.9c-0.1-0.1-0.2-0.2-0.6-0.5c-0.8-0.6-1.7-1.2-2.5-1.7c-0.5-0.2-0.8-0.6-1.3-0.8
		c-0.5-0.2-0.6-0.6-0.6-1.2c0-0.6,0.2-1,0.7-1.3c0.5-0.2,1-0.6,1.7-0.6c0.8,0,1.4,0.1,2,0.6c0.5,0.5,0.7,1,0.7,1.6h0.1l0.2-2.5v-0.2
		c-0.5,0-0.7,0-1.2,0c-0.8,0-1.8-0.1-2.8-0.1c-0.8,0-1.4,0.1-2.2,0.5c-0.6,0.2-1,0.7-1.4,1.2c-0.2,0.6-0.6,1.2-0.6,1.7
		c0,0.7,0.1,1.4,0.5,2c0.6,1,1.6,1.4,2.4,2c0.7,0.6,1.4,1,2.2,1.6c0,0,0.1,0,0.1,0.1c0.6,0.2,0.8,0.6,1.2,0.8c0.2,0.2,0.2,0.7,0.2,1
		c0,0.6-0.2,1.2-0.7,1.4c-0.5,0.5-1.2,0.6-2,0.6c-0.7,0-1.4-0.1-2-0.5c-0.6-0.2-1-0.7-1.3-1.3c-0.2-0.6-0.5-1.2-0.2-1.8h-0.2
		c-0.1,0.2-0.2,0.6-0.5,1c-0.1,0.5-0.1,0.8-0.1,1.2c0,0.5,0,0.7,0.1,1c0.2,0.2,0.6,0.5,1,0.6c0.5,0.1,0.8,0.2,1.4,0.5
		c0.6,0.1,1.2,0.1,1.6,0.1c1.6,0,2.8-0.2,3.6-1s1.4-1.7,1.4-2.9C63.2,29.7,62.7,28.6,62,27.9z"/>
	<path class="st0" d="M78.1,21.3h-2.5l0,0H74v0.1c0,0,0.1,0,0.5,0c0.2,0,0.6,0.1,0.8,0.2c0.2,0.2,0.2,0.5,0.2,0.8v7.6l-9.8-9.2h-0.1
		c0.1,0.8,0.2,1.7,0.2,2.4v9.9c0,0.2-0.1,0.6-0.2,0.8c-0.2,0.2-0.6,0.2-0.8,0.2c0,0-0.1,0-0.5,0v0.1h1.6l0,0h2.5l0,0H70v-0.1
		c-0.2,0-0.2,0-0.5,0c-0.2,0-0.6-0.1-0.8-0.2c-0.2-0.2-0.2-0.6-0.2-0.8l0,0v-7.6l9.8,9.2h0.1c-0.1-0.5-0.1-0.8-0.1-1.2
		c0-0.4,0-0.8,0-1.3v-9.9c0-0.2,0.1-0.6,0.5-0.8c0.2-0.2,0.6-0.2,0.8-0.2h0.2v-0.1L78.1,21.3L78.1,21.3z"/>
	<path class="st0" d="M91.9,21.8c-1.2-0.6-2.4-0.8-4-0.8c-1.6,0-3,0.4-4.1,0.8s-2,1.4-2.5,2.4c-0.6,1-0.8,2.3-0.8,3.7
		c0,1.4,0.2,2.8,0.8,3.7c0.6,1,1.4,1.8,2.5,2.4c1.2,0.6,2.4,0.8,4,0.8c1.6,0,2.9-0.2,4-0.8c1.1-0.6,2-1.4,2.5-2.4
		c0.6-1,0.8-2.3,0.8-3.7c0-1.4-0.2-2.8-0.8-3.7C93.9,23.2,93,22.4,91.9,21.8z M91.7,31.3c-0.2,0.8-0.8,1.6-1.6,2.2
		c-0.7,0.6-1.4,0.7-2.3,0.7c-0.8,0-1.7-0.2-2.3-0.7C85,33,84.4,32.3,84,31.3c-0.2-0.8-0.6-2-0.6-3.3c0-1.3,0.1-2.3,0.6-3.3
		c0.2-0.8,0.8-1.6,1.6-2.2s1.4-0.7,2.3-0.7c0.8,0,1.7,0.2,2.3,0.7s1.2,1.2,1.6,2.2c0.2,0.8,0.6,2,0.6,3.3S92.2,30.2,91.7,31.3z"/>
	<path class="st0" d="M122.2,21.3c-0.2,0-0.6,0-0.8,0h-3h-2.8h-1.2h-0.2h-3.7v0.1h0.1c0.2,0,0.5,0.1,0.6,0.2
		c0.1,0.1,0.1,0.5,0.1,0.8l-1.8,6.7l-3.9-8.4h-0.1l-3.5,8.3l-2.3-6.7c-0.1-0.5-0.1-0.7,0-0.8c0.1-0.1,0.5-0.2,0.6-0.2h0.1v-0.1h-5.8
		v0.1h0.1c0.2,0,0.6,0.1,1,0.2c0.2,0.1,0.6,0.5,0.7,0.8l4.6,12.4h0.1c0-0.1,0-0.5,0-0.6c0.1-1.3,0.7-2.4,1.3-3.6
		c0.5-1,0.8-2.2,1.3-3.1c0.2-0.7,0.6-1.3,0.8-2l0,0l4.1,9.3h0.1c0-0.2,0-0.6,0-1c0-0.2,0.1-0.7,0.2-1.2l3.1-10.4
		c0.1-0.5,0.5-0.7,0.7-0.8c0.2-0.1,0.7-0.2,1-0.2h0.1c0.2,0,0.6,0.1,0.8,0.2c0.2,0.2,0.5,0.6,0.5,0.8v10.6c0,0.2-0.1,0.6-0.5,0.8
		c-0.2,0.2-0.6,0.2-0.8,0.2h-0.2v0.1h1.4h2.8h1.4v-0.1c0,0-0.1,0-0.2,0c-0.2,0-0.6-0.1-0.8-0.2c-0.2-0.2-0.5-0.6-0.5-0.8v-4.8h2.5
		c0.5,0,0.8,0.1,1.2,0.5c0.2,0.2,0.5,0.7,0.5,1.2v0.1h0.1v-1.8v-0.7v-1.8h-0.1v0.1c0,0.5-0.1,0.8-0.5,1.2c-0.2,0.2-0.7,0.5-1.2,0.5
		h-2.5v-5.5h3.1c0.6,0,1,0.1,1.4,0.6c0.2,0.2,0.6,0.8,0.6,1.4v0.1h0.1v-2v-0.6V21v-0.2C123.1,20.7,122.8,21.3,122.2,21.3z"/>
	<path class="st0" d="M154.8,34.4c-0.2,0-0.6-0.1-0.8-0.2c-0.2-0.2-0.5-0.6-0.5-0.8V22.7c0-0.2,0.1-0.6,0.5-0.8
		c0.2-0.2,0.6-0.2,0.8-0.2c0,0,0,0,0.1,0c0.1,0,0.1,0,0.1,0v-0.1h-1.3l0,0H151l0,0h-1.4v0.1c0,0,0,0,0.1,0h0.1
		c0.2,0,0.6,0.1,0.8,0.2c0.2,0.2,0.5,0.6,0.5,0.8v10.6c0,0.2-0.1,0.6-0.5,0.8c-0.2,0.2-0.6,0.2-0.8,0.2h-0.1c-0.2,0-0.6-0.1-0.8-0.2
		c-0.2-0.1-0.5-0.5-0.7-0.8l-5.8-12.4h-0.6c0,0.1-0.8,2.4-0.8,2.4l-4.5,10c-0.1,0.5-0.5,0.7-0.7,0.8c-0.2,0.1-0.6,0.2-0.8,0.2h-0.1
		l0.8-3.7h-0.1c-0.1,0.6-0.5,1.2-0.8,1.7c-0.5,0.6-0.7,0.8-1.3,1.2c-0.6,0.2-1,0.2-1.7,0.2H129V22.6c0-0.2,0.1-0.6,0.5-0.8
		c0.2-0.2,0.6-0.2,0.8-0.2c0.1,0,0.2,0,0.2,0v-0.1h-1.4l0,0h-2.8l0,0H125v0.1h0.2c0.2,0,0.6,0.1,0.8,0.2c0.2,0.2,0.5,0.6,0.5,0.8
		v10.6c0,0.2-0.1,0.6-0.5,0.8c-0.2,0.2-0.6,0.2-0.8,0.2H125v0.1h1.4l0,0h2.8l0,0h1.8h3.6l0,0l0,0h4v-0.1h-0.1c-0.1,0-0.2,0-0.5-0.1
		c-0.1-0.1-0.2-0.2-0.2-0.5c0-0.2,0-0.5,0-0.6l1-2.4h4.5l1,2.3l0,0c0.1,0.5,0.1,0.7,0,0.8c-0.1,0.1-0.5,0.2-0.7,0.2h-0.1v0.1h5.8
		h0.2h1.2l0,0h2.8l0,0h1.6C154.7,34.4,154.9,34.4,154.8,34.4L154.8,34.4z M139.3,30.1l2-4.7l1.8,4.7H139.3z"/>
	<path class="st0" d="M172.9,32.4c-0.7,0.8-1.7,1.4-2.9,1.4h-0.1h-2.5v-5.4h2.5c0.5,0,0.8,0.1,1.2,0.5c0.2,0.2,0.5,0.7,0.5,1.2v0.1
		h0.1v-1.8v-0.7v-1.8h-0.1V26c0,0.5-0.1,0.8-0.5,1.2c-0.2,0.2-0.7,0.5-1.2,0.5h-2.5v-5.9h3.3c0.6,0,1,0.1,1.3,0.6
		c0.2,0.2,0.6,0.8,0.6,1.4v0.2h0.1v-2.2v-0.6v-0.1v-0.2c-0.1,0-0.2,0.1-0.6,0.1s-0.6,0.1-0.8,0.1c-0.2,0-0.6,0-0.8,0h-3h-2.5h-1.4
		v0.1h0.2c0.2,0,0.6,0.1,0.8,0.2c0.2,0.2,0.5,0.6,0.5,0.8V33c0,0.2-0.1,0.6-0.5,0.8c-0.2,0.2-0.6,0.2-0.8,0.2h-0.2
		c-0.5,0-0.7-0.1-1-0.2c-0.2-0.1-0.6-0.5-0.8-0.8l-4.7-6.4l3.7-4.5c0.2-0.2,0.6-0.5,0.8-0.6c0.5-0.1,0.7-0.2,1.2-0.2h0.1v-0.1h-0.1
		h-4.3v0.1h0.1c0.2,0,0.5,0.1,0.6,0.2c0.1,0.1,0,0.2-0.1,0.6l-4.6,6c0.6,0.7,1.2,1.4,1.7,2.3c0.7,1,1.3,2,2.2,2.8
		c0.5,0.5,1,0.8,1.7,1c1.3,0.2,2.4,0.2,3.7,0.2h0.1h1.3h2.8h1.8h3.7l0.8-3.9h-0.1C173.6,31.4,173.4,31.9,172.9,32.4z"/>
	<path class="st0" d="M184.3,32.4c-0.1,0.2-0.2,0.5-0.6,0.6c-0.2,0.2-0.6,0.5-0.8,0.6c-0.5,0.1-1,0.2-1.6,0.2h-2.5V22.6
		c0-0.2,0.1-0.6,0.5-0.8c0.2-0.2,0.6-0.2,0.8-0.2c0.1,0,0.2,0,0.2,0v-0.1h-1.4h-2.8h-1.4v0.1h0.2c0.2,0,0.6,0.1,0.8,0.2
		c0.2,0.2,0.5,0.6,0.5,0.8v10.6c0,0.2-0.1,0.6-0.5,0.8c-0.2,0.2-0.6,0.2-0.8,0.2h-0.2v0.1h1.4h2.8h1.8h3.7l0.8-3.9h-0.1
		C184.9,31.4,184.8,31.9,184.3,32.4z"/>
	<path class="st0" d="M192.6,21.3L192.6,21.3l0.2,0.1c0.1,0,0.2,0,0.5,0.1c0.2,0.1,0.2,0.2,0.2,0.5c0,0.2,0,0.5-0.1,0.6l-2.9,5.1
		c-0.5-0.8-1-1.8-1.4-2.8c-0.2-0.5-0.6-1-0.8-1.4c-0.1-0.2-0.6-0.8-0.6-1.3c0-0.2,0.2-0.7,0.7-0.7h0.2v-0.1h-6.3v0.1h0.2
		c0.6,0,1,0.2,1.4,0.6c0.5,0.5,0.7,0.8,1,1.3c0.2,0.6,0.7,1.2,1,1.7c0.6,1,1.3,2.2,1.8,3.1l0.1,0.1V33c0,0.2-0.1,0.6-0.5,0.8
		c-0.2,0.2-0.6,0.2-0.8,0.2c0,0-0.1,0-0.2,0v0.1h1.4h2.8h1.4v-0.1h-0.2c-0.2,0-0.6-0.1-0.8-0.2c-0.2-0.1-0.5-0.6-0.5-0.8v-4.7l3.7-6
		c0.1-0.2,0.5-0.6,0.8-0.7c0.2-0.2,0.7-0.2,1.2-0.2h0.2v-0.1h-4v0.1H192.6z M190.2,28.5L190.2,28.5L190.2,28.5L190.2,28.5z"/>
</g>
</svg>
