<?xml version="1.0" encoding="utf-8"?>
<!-- Generator: Adobe Illustrator 27.9.0, SVG Export Plug-In . SVG Version: 6.00 Build 0)  -->
<svg version="1.1" id="Layer_1" xmlns="http://www.w3.org/2000/svg" xmlns:xlink="http://www.w3.org/1999/xlink" x="0px" y="0px"
	 viewBox="0 0 174 200" style="enable-background:new 0 0 174 200;" xml:space="preserve">
<style type="text/css">
	.st0{fill:rgba(255, 255, 255, .15);}
</style>
<g>
	<g>
		<path class="st0" d="M87.2,87.8l-2.1-13.2c-2.1-12.2-5.9-21.9-10.8-27.1L73,45.8l1.4-1.7c4.9-4.9,8.7-14.6,10.8-27.1l2.1-13.2
			l2.1,13.9c2.1,12.2,5.9,21.9,10.8,27.1l1.4,1.7l-1.4,1.7c-4.9,4.9-8.7,14.6-10.8,27.1L87.2,87.8z M78.9,46.2
			c3.5,4.2,6.3,10.1,8.3,17.7c2.1-7.6,4.9-13.5,8.3-17.7c-3.5-4.2-6.3-10.1-8.3-17.7C85.1,35.7,82.4,42,78.9,46.2z"/>
	</g>
	<g>
		<path class="st0" d="M76.8,93.7l-12.5-4.9c-11.5-4.5-22.2-5.9-28.8-4.2l-2.1,0.7l-0.7-2.1c-1.7-6.6-8.3-14.9-18.1-22.9L4.2,51.7
			l12.5,4.9c11.5,4.5,22.2,5.9,28.8,4.2l2.1-0.7l0.7,2.1c1.7,6.6,8.3,14.9,18.1,22.9L76.8,93.7z M36.5,80.2c5.2-1,11.8-0.3,19.4,1.7
			c-5.6-5.6-9.4-11.1-11.1-16c-5.2,1-11.8,0.3-19.4-1.7C30.6,69.8,34.4,75.3,36.5,80.2z"/>
	</g>
	<g>
		<path class="st0" d="M76.8,105.9l-10.4,8.7c-9.7,8-16,16.3-18.1,22.9l-0.7,2.1l-2.1-0.7c-6.6-1.7-17-0.3-28.8,4.2l-12.5,4.5
			l10.4-8.7c9.7-8,16-16.3,18.1-22.9l0.7-2.1l2.1,0.7c6.6,1.7,17,0.3,28.8-4.2L76.8,105.9z M44.9,133.7c1.7-4.9,5.6-10.4,11.1-16
			c-7.6,2.1-14.2,2.4-19.4,1.7c-1.7,4.9-5.6,10.4-11.1,16C32.7,133.7,39.7,133.3,44.9,133.7z"/>
	</g>
	<g>
		<path class="st0" d="M87.2,111.8l2.1,13.2c2.1,12.2,5.9,21.9,10.8,27.1l1.4,1.7l-1.4,1.7c-4.9,4.9-8.7,14.6-10.8,27.1l-2.1,13.2
			l-2.1-13.5c-2.1-12.2-5.9-21.9-10.8-27.1l-1.4-1.7l1.4-1.7c4.9-4.9,8.7-14.6,10.8-27.1L87.2,111.8z M95.6,153.8
			c-3.5-4.2-6.3-10.1-8.3-17.7c-2.1,7.6-4.9,13.5-8.3,17.7c3.5,4.2,6.3,10.1,8.3,17.7C89.3,163.9,92.1,158,95.6,153.8z"/>
	</g>
	<g>
		<path class="st0" d="M97.6,93.7l10.4-8.7c9.7-8,16-16.3,18.1-22.9l0.7-2.1l2.1,0.7c6.6,1.7,17,0.3,28.8-4.2l12.5-4.9l-10.4,8.7
			c-9.7,8-16,16.3-18.1,22.9l-0.7,2.1l-2.1-0.3c-6.6-1.7-17-0.3-28.8,4.2L97.6,93.7z"/>
	</g>
</g>
<g>
	<circle class="st0" cx="114" cy="54.1" r="2.4"/>
	<circle class="st0" cx="61.2" cy="54.1" r="2.4"/>
	<circle class="st0" cx="34.8" cy="100" r="2.4"/>
	<circle class="st0" cx="61.5" cy="145.8" r="2.4"/>
	<circle class="st0" cx="114.3" cy="145.5" r="2.4"/>
	<circle class="st0" cx="140.4" cy="99.6" r="2.4"/>
</g>
</svg>
